<svg width="343" height="99" viewBox="0 0 343 99" fill="none" xmlns="http://www.w3.org/2000/svg">
<path d="M55.1593 19H57.7593V5H55.1593V19ZM71.7334 19.14C73.8134 19.14 75.4734 18.24 76.2934 16.64L74.3734 15.52C73.7334 16.54 72.7734 17 71.7134 17C69.8734 17 68.4734 15.74 68.4734 13.66C68.4734 11.6 69.8734 10.32 71.7134 10.32C72.7734 10.32 73.7334 10.78 74.3734 11.8L76.2934 10.68C75.4734 9.06 73.8134 8.2 71.7334 8.2C68.3534 8.2 65.9534 10.46 65.9534 13.66C65.9534 16.86 68.3534 19.14 71.7334 19.14ZM82.5345 8.2C80.8145 8.2 79.1545 8.64 78.0145 9.52L78.9945 11.34C79.7945 10.68 81.0345 10.28 82.2345 10.28C84.0145 10.28 84.8945 11.14 84.8945 12.6V12.76H82.1345C78.8945 12.76 77.6945 14.16 77.6945 15.94C77.6945 17.8 79.2345 19.14 81.6745 19.14C83.2745 19.14 84.4345 18.62 85.0345 17.7V19H87.3945V12.74C87.3945 9.66 85.6145 8.2 82.5345 8.2ZM82.1945 17.32C80.9145 17.32 80.1545 16.74 80.1545 15.84C80.1545 15.06 80.6145 14.42 82.3145 14.42H84.8945V15.66C84.4745 16.76 83.4145 17.32 82.1945 17.32ZM104.083 8.2C102.383 8.2 100.943 8.88 100.083 9.98C99.3429 8.78 98.0429 8.2 96.4829 8.2C95.0229 8.2 93.7829 8.72 92.9829 9.68V8.32H90.6029V19H93.1029V13.58C93.1029 11.46 94.2229 10.38 95.8829 10.38C97.4029 10.38 98.2829 11.3 98.2829 13.2V19H100.783V13.58C100.783 11.46 101.923 10.38 103.563 10.38C105.083 10.38 105.963 11.3 105.963 13.2V19H108.463V12.88C108.463 9.66 106.663 8.2 104.083 8.2ZM121.795 13.72C121.795 10.38 119.515 8.2 116.395 8.2C113.215 8.2 110.875 10.48 110.875 13.66C110.875 16.84 113.195 19.14 116.775 19.14C118.615 19.14 120.115 18.54 121.075 17.4L119.735 15.86C118.975 16.64 118.035 17.02 116.835 17.02C114.975 17.02 113.675 16.02 113.375 14.46H121.755C121.775 14.22 121.795 13.92 121.795 13.72ZM116.395 10.2C118.035 10.2 119.215 11.26 119.415 12.8H113.355C113.595 11.24 114.775 10.2 116.395 10.2ZM144.164 8.32L141.264 16.24L138.384 8.32H136.284L133.344 16.2L130.524 8.32H128.164L132.084 19H134.484L137.284 11.64L140.044 19H142.444L146.384 8.32H144.164ZM149.363 6.56C150.303 6.56 150.963 5.88 150.963 5C150.963 4.18 150.283 3.56 149.363 3.56C148.443 3.56 147.763 4.22 147.763 5.06C147.763 5.9 148.443 6.56 149.363 6.56ZM148.103 19H150.603V8.32H148.103V19ZM159.604 16.64C159.224 16.94 158.724 17.08 158.204 17.08C157.244 17.08 156.724 16.52 156.724 15.48V10.4H159.584V8.4H156.724V5.96H154.224V8.4H152.464V10.4H154.224V15.54C154.224 17.9 155.564 19.14 157.904 19.14C158.804 19.14 159.704 18.9 160.304 18.42L159.604 16.64ZM168.421 8.2C166.941 8.2 165.681 8.68 164.861 9.56V4.16H162.361V19H164.861V13.6C164.861 11.46 166.061 10.38 167.841 10.38C169.441 10.38 170.381 11.3 170.381 13.2V19H172.881V12.88C172.881 9.66 170.981 8.2 168.421 8.2ZM185.659 8.2C183.939 8.2 182.279 8.64 181.139 9.52L182.119 11.34C182.919 10.68 184.159 10.28 185.359 10.28C187.139 10.28 188.019 11.14 188.019 12.6V12.76H185.259C182.019 12.76 180.819 14.16 180.819 15.94C180.819 17.8 182.359 19.14 184.799 19.14C186.399 19.14 187.559 18.62 188.159 17.7V19H190.519V12.74C190.519 9.66 188.739 8.2 185.659 8.2ZM185.319 17.32C184.039 17.32 183.279 16.74 183.279 15.84C183.279 15.06 183.739 14.42 185.439 14.42H188.019V15.66C187.599 16.76 186.539 17.32 185.319 17.32ZM207.475 8.32V9.74C206.595 8.68 205.275 8.2 203.775 8.2C200.715 8.2 198.375 10.24 198.375 13.34C198.375 16.44 200.715 18.52 203.775 18.52C205.215 18.52 206.475 18.06 207.355 17.1V17.66C207.355 19.82 206.315 20.9 203.955 20.9C202.475 20.9 200.955 20.4 200.015 19.62L198.895 21.5C200.115 22.5 202.095 23.02 204.095 23.02C207.835 23.02 209.855 21.26 209.855 17.38V8.32H207.475ZM204.155 16.4C202.255 16.4 200.895 15.16 200.895 13.34C200.895 11.54 202.255 10.32 204.155 10.32C206.035 10.32 207.395 11.54 207.395 13.34C207.395 15.16 206.035 16.4 204.155 16.4ZM215.522 9.88V8.32H213.142V19H215.642V13.82C215.642 11.64 216.842 10.52 218.742 10.52C218.922 10.52 219.102 10.54 219.322 10.58V8.2C217.542 8.2 216.242 8.76 215.522 9.88ZM226.145 19.14C229.465 19.14 231.845 16.86 231.845 13.66C231.845 10.46 229.465 8.2 226.145 8.2C222.865 8.2 220.465 10.46 220.465 13.66C220.465 16.86 222.865 19.14 226.145 19.14ZM226.145 17C224.345 17 222.985 15.7 222.985 13.66C222.985 11.62 224.345 10.32 226.145 10.32C227.965 10.32 229.325 11.62 229.325 13.66C229.325 15.7 227.965 17 226.145 17ZM242.076 8.32V13.72C242.076 15.86 240.896 16.94 239.156 16.94C237.576 16.94 236.656 16.02 236.656 14.08V8.32H234.156V14.42C234.156 17.64 236.016 19.14 238.756 19.14C240.136 19.14 241.396 18.62 242.196 17.64V19H244.576V8.32H242.076ZM253.769 8.2C252.309 8.2 251.069 8.7 250.229 9.72V8.32H247.849V22.88H250.349V17.7C251.209 18.68 252.409 19.14 253.769 19.14C256.889 19.14 259.189 16.98 259.189 13.66C259.189 10.36 256.889 8.2 253.769 8.2ZM253.489 17C251.689 17 250.309 15.7 250.309 13.66C250.309 11.62 251.689 10.32 253.489 10.32C255.289 10.32 256.649 11.62 256.649 13.66C256.649 15.7 255.289 17 253.489 17ZM271.887 19.14C275.207 19.14 277.587 16.86 277.587 13.66C277.587 10.46 275.207 8.2 271.887 8.2C268.607 8.2 266.207 10.46 266.207 13.66C266.207 16.86 268.607 19.14 271.887 19.14ZM271.887 17C270.087 17 268.727 15.7 268.727 13.66C268.727 11.62 270.087 10.32 271.887 10.32C273.707 10.32 275.067 11.62 275.067 13.66C275.067 15.7 273.707 17 271.887 17ZM284.318 6.04C284.838 6.04 285.318 6.22 285.698 6.48L286.398 4.6C285.838 4.2 284.998 4.02 284.138 4.02C281.658 4.02 280.318 5.48 280.318 7.72V8.4H278.558V10.4H280.318V19H282.818V10.4H285.678V8.4H282.738V7.76C282.738 6.62 283.278 6.04 284.318 6.04ZM42.5503 30.04C43.0703 30.04 43.5503 30.22 43.9303 30.48L44.6303 28.6C44.0703 28.2 43.2303 28.02 42.3703 28.02C39.8903 28.02 38.5503 29.48 38.5503 31.72V32.4H36.7903V34.4H38.5503V43H41.0503V34.4H43.9103V32.4H40.9703V31.76C40.9703 30.62 41.5103 30.04 42.5503 30.04ZM49.5747 33.88V32.32H47.1947V43H49.6947V37.82C49.6947 35.64 50.8947 34.52 52.7947 34.52C52.9747 34.52 53.1547 34.54 53.3747 34.58V32.2C51.5947 32.2 50.2947 32.76 49.5747 33.88ZM56.7555 30.56C57.6955 30.56 58.3555 29.88 58.3555 29C58.3555 28.18 57.6755 27.56 56.7555 27.56C55.8355 27.56 55.1555 28.22 55.1555 29.06C55.1555 29.9 55.8355 30.56 56.7555 30.56ZM55.4955 43H57.9955V32.32H55.4955V43ZM71.3167 37.72C71.3167 34.38 69.0367 32.2 65.9167 32.2C62.7367 32.2 60.3967 34.48 60.3967 37.66C60.3967 40.84 62.7167 43.14 66.2967 43.14C68.1367 43.14 69.6367 42.54 70.5967 41.4L69.2567 39.86C68.4967 40.64 67.5567 41.02 66.3567 41.02C64.4967 41.02 63.1967 40.02 62.8967 38.46H71.2767C71.2967 38.22 71.3167 37.92 71.3167 37.72ZM65.9167 34.2C67.5567 34.2 68.7367 35.26 68.9367 36.8H62.8767C63.1167 35.24 64.2967 34.2 65.9167 34.2ZM79.7781 32.2C78.2181 32.2 76.9181 32.72 76.0981 33.7V32.32H73.7181V43H76.2181V37.6C76.2181 35.46 77.4181 34.38 79.1981 34.38C80.7981 34.38 81.7381 35.3 81.7381 37.2V43H84.2381V36.88C84.2381 33.66 82.3381 32.2 79.7781 32.2ZM95.4672 28.16V33.64C94.6272 32.66 93.4072 32.2 92.0272 32.2C88.9272 32.2 86.6272 34.34 86.6272 37.66C86.6272 40.98 88.9272 43.14 92.0272 43.14C93.4872 43.14 94.7272 42.64 95.5672 41.62V43H97.9672V28.16H95.4672ZM92.3272 41C90.5272 41 89.1472 39.7 89.1472 37.66C89.1472 35.62 90.5272 34.32 92.3272 34.32C94.1272 34.32 95.5072 35.62 95.5072 37.66C95.5072 39.7 94.1272 41 92.3272 41ZM104.538 43.14C107.538 43.14 109.378 41.84 109.378 39.84C109.378 35.66 102.778 37.58 102.778 35.42C102.778 34.72 103.498 34.22 105.018 34.22C106.038 34.22 107.058 34.42 108.078 35.02L109.038 33.12C108.078 32.54 106.458 32.2 105.038 32.2C102.158 32.2 100.338 33.52 100.338 35.54C100.338 39.8 106.938 37.88 106.938 39.92C106.938 40.66 106.278 41.1 104.698 41.1C103.358 41.1 101.918 40.66 100.978 40.04L100.018 41.94C100.978 42.62 102.758 43.14 104.538 43.14ZM131.498 32.32L128.598 40.24L125.718 32.32H123.618L120.678 40.2L117.858 32.32H115.498L119.418 43H121.818L124.618 35.64L127.378 43H129.778L133.718 32.32H131.498ZM136.697 30.56C137.637 30.56 138.297 29.88 138.297 29C138.297 28.18 137.617 27.56 136.697 27.56C135.777 27.56 135.097 28.22 135.097 29.06C135.097 29.9 135.777 30.56 136.697 30.56ZM135.437 43H137.937V32.32H135.437V43ZM146.938 40.64C146.558 40.94 146.058 41.08 145.538 41.08C144.578 41.08 144.058 40.52 144.058 39.48V34.4H146.918V32.4H144.058V29.96H141.558V32.4H139.798V34.4H141.558V39.54C141.558 41.9 142.898 43.14 145.238 43.14C146.138 43.14 147.038 42.9 147.638 42.42L146.938 40.64ZM155.755 32.2C154.275 32.2 153.015 32.68 152.195 33.56V28.16H149.695V43H152.195V37.6C152.195 35.46 153.395 34.38 155.175 34.38C156.775 34.38 157.715 35.3 157.715 37.2V43H160.215V36.88C160.215 33.66 158.315 32.2 155.755 32.2ZM176.873 28.16V33.64C176.033 32.66 174.813 32.2 173.433 32.2C170.333 32.2 168.033 34.34 168.033 37.66C168.033 40.98 170.333 43.14 173.433 43.14C174.893 43.14 176.133 42.64 176.973 41.62V43H179.373V28.16H176.873ZM173.733 41C171.933 41 170.553 39.7 170.553 37.66C170.553 35.62 171.933 34.32 173.733 34.32C175.533 34.32 176.913 35.62 176.913 37.66C176.913 39.7 175.533 41 173.733 41ZM183.904 30.56C184.844 30.56 185.504 29.88 185.504 29C185.504 28.18 184.824 27.56 183.904 27.56C182.984 27.56 182.304 28.22 182.304 29.06C182.304 29.9 182.984 30.56 183.904 30.56ZM182.644 43H185.144V32.32H182.644V43ZM192.765 30.04C193.285 30.04 193.765 30.22 194.145 30.48L194.845 28.6C194.285 28.2 193.445 28.02 192.585 28.02C190.105 28.02 188.765 29.48 188.765 31.72V32.4H187.005V34.4H188.765V43H191.265V34.4H194.125V32.4H191.185V31.76C191.185 30.62 191.725 30.04 192.765 30.04ZM200.148 30.04C200.668 30.04 201.148 30.22 201.528 30.48L202.228 28.6C201.668 28.2 200.828 28.02 199.968 28.02C197.488 28.02 196.148 29.48 196.148 31.72V32.4H194.388V34.4H196.148V43H198.648V34.4H201.508V32.4H198.568V31.76C198.568 30.62 199.108 30.04 200.148 30.04ZM213.075 37.72C213.075 34.38 210.795 32.2 207.675 32.2C204.495 32.2 202.155 34.48 202.155 37.66C202.155 40.84 204.475 43.14 208.055 43.14C209.895 43.14 211.395 42.54 212.355 41.4L211.015 39.86C210.255 40.64 209.315 41.02 208.115 41.02C206.255 41.02 204.955 40.02 204.655 38.46H213.035C213.055 38.22 213.075 37.92 213.075 37.72ZM207.675 34.2C209.315 34.2 210.495 35.26 210.695 36.8H204.635C204.875 35.24 206.055 34.2 207.675 34.2ZM217.856 33.88V32.32H215.476V43H217.976V37.82C217.976 35.64 219.176 34.52 221.076 34.52C221.256 34.52 221.436 34.54 221.656 34.58V32.2C219.876 32.2 218.576 32.76 217.856 33.88ZM233.719 37.72C233.719 34.38 231.439 32.2 228.319 32.2C225.139 32.2 222.799 34.48 222.799 37.66C222.799 40.84 225.119 43.14 228.699 43.14C230.539 43.14 232.039 42.54 232.999 41.4L231.659 39.86C230.899 40.64 229.959 41.02 228.759 41.02C226.899 41.02 225.599 40.02 225.299 38.46H233.679C233.699 38.22 233.719 37.92 233.719 37.72ZM228.319 34.2C229.959 34.2 231.139 35.26 231.339 36.8H225.279C225.519 35.24 226.699 34.2 228.319 34.2ZM242.18 32.2C240.62 32.2 239.32 32.72 238.5 33.7V32.32H236.12V43H238.62V37.6C238.62 35.46 239.82 34.38 241.6 34.38C243.2 34.38 244.14 35.3 244.14 37.2V43H246.64V36.88C246.64 33.66 244.74 32.2 242.18 32.2ZM255.532 40.64C255.152 40.94 254.652 41.08 254.132 41.08C253.172 41.08 252.652 40.52 252.652 39.48V34.4H255.512V32.4H252.652V29.96H250.152V32.4H248.392V34.4H250.152V39.54C250.152 41.9 251.492 43.14 253.832 43.14C254.732 43.14 255.632 42.9 256.232 42.42L255.532 40.64ZM267.116 43.14C270.116 43.14 271.956 41.84 271.956 39.84C271.956 35.66 265.356 37.58 265.356 35.42C265.356 34.72 266.076 34.22 267.596 34.22C268.616 34.22 269.636 34.42 270.656 35.02L271.616 33.12C270.656 32.54 269.036 32.2 267.616 32.2C264.736 32.2 262.916 33.52 262.916 35.54C262.916 39.8 269.516 37.88 269.516 39.92C269.516 40.66 268.856 41.1 267.276 41.1C265.936 41.1 264.496 40.66 263.556 40.04L262.596 41.94C263.556 42.62 265.336 43.14 267.116 43.14ZM282.169 43H285.209L280.329 36.8L284.789 32.32H281.789L276.609 37.12V28.16H274.109V43H276.609V40.18L278.469 38.42L282.169 43ZM287.986 30.56C288.926 30.56 289.586 29.88 289.586 29C289.586 28.18 288.906 27.56 287.986 27.56C287.066 27.56 286.386 28.22 286.386 29.06C286.386 29.9 287.066 30.56 287.986 30.56ZM286.726 43H289.226V32.32H286.726V43ZM292.507 43H295.007V28.16H292.507V43ZM298.288 43H300.788V28.16H298.288V43ZM33.8353 67H36.3353V52.16H33.8353V67ZM49.6566 61.72C49.6566 58.38 47.3766 56.2 44.2566 56.2C41.0766 56.2 38.7366 58.48 38.7366 61.66C38.7366 64.84 41.0566 67.14 44.6366 67.14C46.4766 67.14 47.9766 66.54 48.9366 65.4L47.5966 63.86C46.8366 64.64 45.8966 65.02 44.6966 65.02C42.8366 65.02 41.5366 64.02 41.2366 62.46H49.6166C49.6366 62.22 49.6566 61.92 49.6566 61.72ZM44.2566 58.2C45.8966 58.2 47.0766 59.26 47.2766 60.8H41.2166C41.4566 59.24 42.6366 58.2 44.2566 58.2ZM59.4627 56.32L56.0427 64.24L52.7227 56.32H50.1227L54.7027 67H57.2827L61.8627 56.32H59.4627ZM73.1722 61.72C73.1722 58.38 70.8922 56.2 67.7722 56.2C64.5922 56.2 62.2522 58.48 62.2522 61.66C62.2522 64.84 64.5722 67.14 68.1522 67.14C69.9922 67.14 71.4922 66.54 72.4522 65.4L71.1122 63.86C70.3522 64.64 69.4122 65.02 68.2122 65.02C66.3522 65.02 65.0522 64.02 64.7522 62.46H73.1322C73.1522 62.22 73.1722 61.92 73.1722 61.72ZM67.7722 58.2C69.4122 58.2 70.5922 59.26 70.7922 60.8H64.7322C64.9722 59.24 66.1522 58.2 67.7722 58.2ZM75.5736 67H78.0736V52.16H75.5736V67ZM84.6548 67.14C87.6548 67.14 89.4948 65.84 89.4948 63.84C89.4948 59.66 82.8948 61.58 82.8948 59.42C82.8948 58.72 83.6148 58.22 85.1348 58.22C86.1548 58.22 87.1748 58.42 88.1948 59.02L89.1548 57.12C88.1948 56.54 86.5748 56.2 85.1548 56.2C82.2748 56.2 80.4548 57.52 80.4548 59.54C80.4548 63.8 87.0548 61.88 87.0548 63.92C87.0548 64.66 86.3948 65.1 84.8148 65.1C83.4748 65.1 82.0348 64.66 81.0948 64.04L80.1348 65.94C81.0948 66.62 82.8748 67.14 84.6548 67.14ZM101.255 56.2C99.5352 56.2 97.8752 56.64 96.7352 57.52L97.7152 59.34C98.5152 58.68 99.7552 58.28 100.955 58.28C102.735 58.28 103.615 59.14 103.615 60.6V60.76H100.855C97.6152 60.76 96.4152 62.16 96.4152 63.94C96.4152 65.8 97.9552 67.14 100.395 67.14C101.995 67.14 103.155 66.62 103.755 65.7V67H106.115V60.74C106.115 57.66 104.335 56.2 101.255 56.2ZM100.915 65.32C99.6352 65.32 98.8752 64.74 98.8752 63.84C98.8752 63.06 99.3352 62.42 101.035 62.42H103.615V63.66C103.195 64.76 102.135 65.32 100.915 65.32ZM115.384 56.2C113.824 56.2 112.524 56.72 111.704 57.7V56.32H109.324V67H111.824V61.6C111.824 59.46 113.024 58.38 114.804 58.38C116.404 58.38 117.344 59.3 117.344 61.2V67H119.844V60.88C119.844 57.66 117.944 56.2 115.384 56.2ZM131.073 52.16V57.64C130.233 56.66 129.013 56.2 127.633 56.2C124.533 56.2 122.233 58.34 122.233 61.66C122.233 64.98 124.533 67.14 127.633 67.14C129.093 67.14 130.333 66.64 131.173 65.62V67H133.573V52.16H131.073ZM127.933 65C126.133 65 124.753 63.7 124.753 61.66C124.753 59.62 126.133 58.32 127.933 58.32C129.733 58.32 131.113 59.62 131.113 61.66C131.113 63.7 129.733 65 127.933 65ZM156.81 56.32L153.91 64.24L151.03 56.32H148.93L145.99 64.2L143.17 56.32H140.81L144.73 67H147.13L149.93 59.64L152.69 67H155.09L159.03 56.32H156.81ZM170.496 61.72C170.496 58.38 168.216 56.2 165.096 56.2C161.916 56.2 159.576 58.48 159.576 61.66C159.576 64.84 161.896 67.14 165.476 67.14C167.316 67.14 168.816 66.54 169.776 65.4L168.436 63.86C167.676 64.64 166.736 65.02 165.536 65.02C163.676 65.02 162.376 64.02 162.076 62.46H170.456C170.476 62.22 170.496 61.92 170.496 61.72ZM165.096 58.2C166.736 58.2 167.916 59.26 168.116 60.8H162.056C162.296 59.24 163.476 58.2 165.096 58.2ZM192.865 56.32L189.965 64.24L187.085 56.32H184.985L182.045 64.2L179.225 56.32H176.865L180.785 67H183.185L185.985 59.64L188.745 67H191.145L195.085 56.32H192.865ZM206.551 61.72C206.551 58.38 204.271 56.2 201.151 56.2C197.971 56.2 195.631 58.48 195.631 61.66C195.631 64.84 197.951 67.14 201.531 67.14C203.371 67.14 204.871 66.54 205.831 65.4L204.491 63.86C203.731 64.64 202.791 65.02 201.591 65.02C199.731 65.02 198.431 64.02 198.131 62.46H206.511C206.531 62.22 206.551 61.92 206.551 61.72ZM201.151 58.2C202.791 58.2 203.971 59.26 204.171 60.8H198.111C198.351 59.24 199.531 58.2 201.151 58.2ZM211.333 57.88V56.32H208.953V67H211.453V61.82C211.453 59.64 212.653 58.52 214.553 58.52C214.733 58.52 214.913 58.54 215.133 58.58V56.2C213.353 56.2 212.053 56.76 211.333 57.88ZM227.196 61.72C227.196 58.38 224.916 56.2 221.796 56.2C218.616 56.2 216.276 58.48 216.276 61.66C216.276 64.84 218.596 67.14 222.176 67.14C224.016 67.14 225.516 66.54 226.476 65.4L225.136 63.86C224.376 64.64 223.436 65.02 222.236 65.02C220.376 65.02 219.076 64.02 218.776 62.46H227.156C227.176 62.22 227.196 61.92 227.196 61.72ZM221.796 58.2C223.436 58.2 224.616 59.26 224.816 60.8H218.756C218.996 59.24 220.176 58.2 221.796 58.2ZM239.204 56.2C237.484 56.2 235.824 56.64 234.684 57.52L235.664 59.34C236.464 58.68 237.704 58.28 238.904 58.28C240.684 58.28 241.564 59.14 241.564 60.6V60.76H238.804C235.564 60.76 234.364 62.16 234.364 63.94C234.364 65.8 235.904 67.14 238.344 67.14C239.944 67.14 241.104 66.62 241.704 65.7V67H244.064V60.74C244.064 57.66 242.284 56.2 239.204 56.2ZM238.864 65.32C237.584 65.32 236.824 64.74 236.824 63.84C236.824 63.06 237.284 62.42 238.984 62.42H241.564V63.66C241.144 64.76 240.084 65.32 238.864 65.32ZM247.273 67H249.773V52.16H247.273V67ZM253.054 67H255.554V52.16H253.054V67ZM268.443 56.2C266.723 56.2 265.063 56.64 263.923 57.52L264.903 59.34C265.703 58.68 266.943 58.28 268.143 58.28C269.923 58.28 270.803 59.14 270.803 60.6V60.76H268.043C264.803 60.76 263.603 62.16 263.603 63.94C263.603 65.8 265.143 67.14 267.583 67.14C269.183 67.14 270.343 66.62 270.943 65.7V67H273.303V60.74C273.303 57.66 271.523 56.2 268.443 56.2ZM268.103 65.32C266.823 65.32 266.063 64.74 266.063 63.84C266.063 63.06 266.523 62.42 268.223 62.42H270.803V63.66C270.383 64.76 269.323 65.32 268.103 65.32ZM282.431 56.2C281.071 56.2 279.871 56.66 279.011 57.62V52.16H276.511V67H278.891V65.62C279.731 66.64 280.971 67.14 282.431 67.14C285.551 67.14 287.851 64.98 287.851 61.66C287.851 58.34 285.551 56.2 282.431 56.2ZM282.151 65C280.351 65 278.971 63.7 278.971 61.66C278.971 59.62 280.351 58.32 282.151 58.32C283.951 58.32 285.311 59.62 285.311 61.66C285.311 63.7 283.951 65 282.151 65ZM290.222 67H292.722V52.16H290.222V67ZM306.043 61.72C306.043 58.38 303.763 56.2 300.643 56.2C297.463 56.2 295.123 58.48 295.123 61.66C295.123 64.84 297.443 67.14 301.023 67.14C302.863 67.14 304.363 66.54 305.323 65.4L303.983 63.86C303.223 64.64 302.283 65.02 301.083 65.02C299.223 65.02 297.923 64.02 297.623 62.46H306.003C306.023 62.22 306.043 61.92 306.043 61.72ZM300.643 58.2C302.283 58.2 303.463 59.26 303.663 60.8H297.603C297.843 59.24 299.023 58.2 300.643 58.2ZM51.069 88.64C50.689 88.94 50.189 89.08 49.669 89.08C48.709 89.08 48.189 88.52 48.189 87.48V82.4H51.049V80.4H48.189V77.96H45.689V80.4H43.929V82.4H45.689V87.54C45.689 89.9 47.029 91.14 49.369 91.14C50.269 91.14 51.169 90.9 51.769 90.42L51.069 88.64ZM58.274 91.14C61.594 91.14 63.974 88.86 63.974 85.66C63.974 82.46 61.594 80.2 58.274 80.2C54.994 80.2 52.594 82.46 52.594 85.66C52.594 88.86 54.994 91.14 58.274 91.14ZM58.274 89C56.474 89 55.114 87.7 55.114 85.66C55.114 83.62 56.474 82.32 58.274 82.32C60.094 82.32 61.454 83.62 61.454 85.66C61.454 87.7 60.094 89 58.274 89ZM85.372 80.2C83.672 80.2 82.232 80.88 81.372 81.98C80.632 80.78 79.332 80.2 77.772 80.2C76.312 80.2 75.072 80.72 74.272 81.68V80.32H71.892V91H74.392V85.58C74.392 83.46 75.512 82.38 77.172 82.38C78.692 82.38 79.572 83.3 79.572 85.2V91H82.072V85.58C82.072 83.46 83.212 82.38 84.852 82.38C86.372 82.38 87.252 83.3 87.252 85.2V91H89.752V84.88C89.752 81.66 87.952 80.2 85.372 80.2ZM97.0266 80.2C95.3066 80.2 93.6466 80.64 92.5066 81.52L93.4866 83.34C94.2866 82.68 95.5266 82.28 96.7266 82.28C98.5066 82.28 99.3866 83.14 99.3866 84.6V84.76H96.6266C93.3866 84.76 92.1866 86.16 92.1866 87.94C92.1866 89.8 93.7266 91.14 96.1666 91.14C97.7666 91.14 98.9266 90.62 99.5266 89.7V91H101.887V84.74C101.887 81.66 100.107 80.2 97.0266 80.2ZM96.6866 89.32C95.4066 89.32 94.6466 88.74 94.6466 87.84C94.6466 87.06 95.1066 86.42 96.8066 86.42H99.3866V87.66C98.9666 88.76 97.9066 89.32 96.6866 89.32ZM113.155 91H116.195L111.315 84.8L115.775 80.32H112.775L107.595 85.12V76.16H105.095V91H107.595V88.18L109.455 86.42L113.155 91ZM127.401 85.72C127.401 82.38 125.121 80.2 122.001 80.2C118.821 80.2 116.481 82.48 116.481 85.66C116.481 88.84 118.801 91.14 122.381 91.14C124.221 91.14 125.721 90.54 126.681 89.4L125.341 87.86C124.581 88.64 123.641 89.02 122.441 89.02C120.581 89.02 119.281 88.02 118.981 86.46H127.361C127.381 86.22 127.401 85.92 127.401 85.72ZM122.001 82.2C123.641 82.2 124.821 83.26 125.021 84.8H118.961C119.201 83.24 120.381 82.2 122.001 82.2ZM140.229 91.14C142.309 91.14 143.969 90.24 144.789 88.64L142.869 87.52C142.229 88.54 141.269 89 140.209 89C138.369 89 136.969 87.74 136.969 85.66C136.969 83.6 138.369 82.32 140.209 82.32C141.269 82.32 142.229 82.78 142.869 83.8L144.789 82.68C143.969 81.06 142.309 80.2 140.229 80.2C136.849 80.2 134.449 82.46 134.449 85.66C134.449 88.86 136.849 91.14 140.229 91.14ZM154.791 80.32V85.72C154.791 87.86 153.611 88.94 151.871 88.94C150.291 88.94 149.371 88.02 149.371 86.08V80.32H146.871V86.42C146.871 89.64 148.731 91.14 151.471 91.14C152.851 91.14 154.111 90.62 154.911 89.64V91H157.291V80.32H154.791ZM166.284 88.64C165.904 88.94 165.404 89.08 164.884 89.08C163.924 89.08 163.404 88.52 163.404 87.48V82.4H166.264V80.4H163.404V77.96H160.904V80.4H159.144V82.4H160.904V87.54C160.904 89.9 162.244 91.14 164.584 91.14C165.484 91.14 166.384 90.9 166.984 90.42L166.284 88.64ZM178.729 85.72C178.729 82.38 176.449 80.2 173.329 80.2C170.149 80.2 167.809 82.48 167.809 85.66C167.809 88.84 170.129 91.14 173.709 91.14C175.549 91.14 177.049 90.54 178.009 89.4L176.669 87.86C175.909 88.64 174.969 89.02 173.769 89.02C171.909 89.02 170.609 88.02 170.309 86.46H178.689C178.709 86.22 178.729 85.92 178.729 85.72ZM173.329 82.2C174.969 82.2 176.149 83.26 176.349 84.8H170.289C170.529 83.24 171.709 82.2 173.329 82.2ZM192.578 80.2C191.118 80.2 189.878 80.7 189.038 81.72V80.32H186.658V94.88H189.158V89.7C190.018 90.68 191.218 91.14 192.578 91.14C195.698 91.14 197.998 88.98 197.998 85.66C197.998 82.36 195.698 80.2 192.578 80.2ZM192.298 89C190.498 89 189.118 87.7 189.118 85.66C189.118 83.62 190.498 82.32 192.298 82.32C194.098 82.32 195.458 83.62 195.458 85.66C195.458 87.7 194.098 89 192.298 89ZM200.369 91H202.869V76.16H200.369V91ZM210.23 80.2C208.51 80.2 206.85 80.64 205.71 81.52L206.69 83.34C207.49 82.68 208.73 82.28 209.93 82.28C211.71 82.28 212.59 83.14 212.59 84.6V84.76H209.83C206.59 84.76 205.39 86.16 205.39 87.94C205.39 89.8 206.93 91.14 209.37 91.14C210.97 91.14 212.13 90.62 212.73 89.7V91H215.09V84.74C215.09 81.66 213.31 80.2 210.23 80.2ZM209.89 89.32C208.61 89.32 207.85 88.74 207.85 87.84C207.85 87.06 208.31 86.42 210.01 86.42H212.59V87.66C212.17 88.76 211.11 89.32 209.89 89.32ZM224.358 80.2C222.798 80.2 221.498 80.72 220.678 81.7V80.32H218.298V91H220.798V85.6C220.798 83.46 221.998 82.38 223.778 82.38C225.378 82.38 226.318 83.3 226.318 85.2V91H228.818V84.88C228.818 81.66 226.918 80.2 224.358 80.2ZM237.71 88.64C237.33 88.94 236.83 89.08 236.31 89.08C235.35 89.08 234.83 88.52 234.83 87.48V82.4H237.69V80.4H234.83V77.96H232.33V80.4H230.57V82.4H232.33V87.54C232.33 89.9 233.67 91.14 236.01 91.14C236.91 91.14 237.81 90.9 238.41 90.42L237.71 88.64ZM251.914 80.2C250.454 80.2 249.214 80.7 248.374 81.72V80.32H245.994V94.88H248.494V89.7C249.354 90.68 250.554 91.14 251.914 91.14C255.034 91.14 257.334 88.98 257.334 85.66C257.334 82.36 255.034 80.2 251.914 80.2ZM251.634 89C249.834 89 248.454 87.7 248.454 85.66C248.454 83.62 249.834 82.32 251.634 82.32C253.434 82.32 254.794 83.62 254.794 85.66C254.794 87.7 253.434 89 251.634 89ZM264.504 91.14C267.824 91.14 270.204 88.86 270.204 85.66C270.204 82.46 267.824 80.2 264.504 80.2C261.224 80.2 258.824 82.46 258.824 85.66C258.824 88.86 261.224 91.14 264.504 91.14ZM264.504 89C262.704 89 261.344 87.7 261.344 85.66C261.344 83.62 262.704 82.32 264.504 82.32C266.324 82.32 267.684 83.62 267.684 85.66C267.684 87.7 266.324 89 264.504 89ZM278.315 88.64C277.935 88.94 277.435 89.08 276.915 89.08C275.955 89.08 275.435 88.52 275.435 87.48V82.4H278.295V80.4H275.435V77.96H272.935V80.4H271.175V82.4H272.935V87.54C272.935 89.9 274.275 91.14 276.615 91.14C277.515 91.14 278.415 90.9 279.015 90.42L278.315 88.64ZM284.372 91.14C287.372 91.14 289.212 89.84 289.212 87.84C289.212 83.66 282.612 85.58 282.612 83.42C282.612 82.72 283.332 82.22 284.852 82.22C285.872 82.22 286.892 82.42 287.912 83.02L288.872 81.12C287.912 80.54 286.292 80.2 284.872 80.2C281.992 80.2 280.172 81.52 280.172 83.54C280.172 87.8 286.772 85.88 286.772 87.92C286.772 88.66 286.112 89.1 284.532 89.1C283.192 89.1 281.752 88.66 280.812 88.04L279.852 89.94C280.812 90.62 282.592 91.14 284.372 91.14ZM291.525 86.36H293.505L294.005 77H291.045L291.525 86.36ZM292.525 91.14C293.445 91.14 294.105 90.44 294.105 89.58C294.105 88.72 293.445 88.04 292.525 88.04C291.585 88.04 290.905 88.72 290.905 89.58C290.905 90.44 291.585 91.14 292.525 91.14Z" fill="#D9CEE0"/>
<path d="M11.136 10.688L13.952 0.511997H7.616L3.904 9.728C2.432 13.248 2.176 14.464 2.176 16.128C2.176 19.776 4.8 22.272 8.384 22.272C11.904 22.272 14.528 19.84 14.528 16.128C14.528 13.504 13.248 11.584 11.136 10.688ZM26.24 10.688L29.056 0.511997H22.72L19.008 9.728C17.536 13.248 17.28 14.464 17.28 16.128C17.28 19.776 19.904 22.272 23.488 22.272C27.008 22.272 29.632 19.84 29.632 16.128C29.632 13.504 28.352 11.584 26.24 10.688Z" fill="#C8703A"/>
<path d="M331.864 88.312L329.048 98.488L335.384 98.488L339.096 89.272C340.568 85.752 340.824 84.536 340.824 82.872C340.824 79.224 338.2 76.728 334.616 76.728C331.096 76.728 328.472 79.16 328.472 82.872C328.472 85.496 329.752 87.416 331.864 88.312ZM316.76 88.312L313.944 98.488L320.28 98.488L323.992 89.272C325.464 85.752 325.72 84.536 325.72 82.872C325.72 79.224 323.096 76.728 319.512 76.728C315.992 76.728 313.368 79.16 313.368 82.872C313.368 85.496 314.648 87.416 316.76 88.312Z" fill="#C8703A"/>
</svg>
