<?xml version="1.0" encoding="UTF-8"?>
<svg id="Layer_2" data-name="Layer 2" xmlns="http://www.w3.org/2000/svg" viewBox="0 0 222.59 41.49">
  <defs>
    <style>
      .cls-1 {
        fill: #fff;
      }

      .cls-2 {
        fill: #c87039;
      }
    </style>
  </defs>
  <g id="Layer_1-2" data-name="Layer 1">
    <g>
      <path class="cls-2" d="M20.75,0H202.29V41.49H20.75C9.3,41.49,0,32.2,0,20.75H0C0,9.3,9.3,0,20.75,0Z"/>
      <path class="cls-1" d="M202.55,.56c-.2-.75-1.21-.75-1.41,0-2.41,8.83-10.65,17.07-19.48,19.48-.75,.2-.75,1.21,0,1.41,8.83,2.41,17.07,10.65,19.48,19.48,.2,.75,1.21,.75,1.41,0,2.41-8.83,10.65-17.07,19.48-19.48,.75-.2,.75-1.21,0-1.41-8.83-2.41-17.07-10.65-19.48-19.48Z"/>
    </g>
  </g>
</svg>