<svg width="834" height="211" viewBox="0 0 834 211" fill="none" xmlns="http://www.w3.org/2000/svg">
<path d="M451.5 27.5C648 82.9999 761.401 47.8587 836 47.8587V207.843H-3V39.6967C99.5 15.4999 255 -28 451.5 27.5Z" fill="#385F3B"/>
<path d="M-3.88447 70.9191C-11.0404 70.9191 10.3998 71.9718 17.5556 72.0093C36.4682 72.1083 50.0597 71.1584 66.8557 60.8047C77.0652 54.5111 86.0301 46.3693 92.4142 36.1547C95.4443 31.3065 98.2716 19.6936 92.0508 16.4104C78.2212 9.11144 71.3208 17.311 67.0979 30.5827C63.3959 42.2177 67.2076 54.012 76.1827 61.9554C85.8344 70.4977 100.227 69.4051 112.037 67.0429C127.172 64.0159 139.316 55.1585 151.526 46.3296C166.456 35.5338 183.016 26.3578 200.826 21.2556C236.581 11.0124 283.316 13.1673 314.81 34.7011C327.638 43.4727 341.75 60.5497 326.559 72.9783C317.258 80.5886 297.569 73.4737 310.085 61.6526C324.262 48.2636 349.211 40.8411 367.986 47.1775C392.864 55.574 413.258 71.7596 435.153 85.7576C458.223 100.508 475.319 121.525 497.232 137.904C520.564 155.344 542.59 175.949 569.305 188.416C595.279 200.537 624.855 207.504 653.49 208.22C671.706 208.676 690.186 208.76 708.362 207.433C724.011 206.291 739.09 200.049 754.089 195.805C772.649 190.552 792.92 177.229 807.81 164.916C820.352 154.545 833.09 141.294 839.91 126.518" stroke="#D9CEE0" stroke-width="3" stroke-linecap="round"/>
<path d="M700.702 169.483H698.451C703.6 169.483 708.293 167.393 711.692 163.992C715.09 160.62 717.179 155.923 717.179 150.755C717.179 140.389 708.794 132.012 698.451 132.012H695.567C700.275 132.012 704.527 130.112 707.587 127.02C710.662 123.943 712.56 119.703 712.56 115.006C712.56 105.597 704.968 98 695.567 98H638.896C634.203 98 629.966 99.8994 626.876 102.977C623.802 106.054 621.904 110.324 621.904 115.006C621.904 124.385 629.525 132.012 638.896 132.012H636.013C630.849 132.012 626.17 134.102 622.772 137.504C619.373 140.875 617.284 145.572 617.284 150.755C617.284 161.106 625.67 169.469 636.013 169.469H633.791C628.23 169.469 623.213 171.721 619.594 175.358C615.975 178.995 613.709 184.016 613.709 189.567C613.709 200.639 622.713 209.65 633.791 209.65H700.717C706.248 209.65 711.265 207.397 714.899 203.76C718.533 200.123 720.784 195.103 720.784 189.567C720.784 178.465 711.81 169.469 700.717 169.469L700.702 169.483ZM686.461 154.509C678.045 156.806 670.189 164.669 667.894 173.091C667.703 173.798 666.746 173.798 666.54 173.091C664.245 164.669 656.389 156.806 647.974 154.509C647.267 154.318 647.267 153.361 647.974 153.155C656.389 150.858 664.245 142.996 666.54 134.574C666.732 133.867 667.688 133.867 667.894 134.574C670.189 142.996 678.045 150.858 686.461 153.155C687.167 153.346 687.167 154.303 686.461 154.509Z" fill="#C8703A"/>
<path d="M540.441 101.352L535.683 174.275L563.535 184.515L606.172 125.426C608.798 121.78 607.22 116.65 603.022 115.107L549.542 95.4428C545.289 93.8791 540.734 96.8475 540.45 101.371L540.441 101.352Z" fill="#A38FBF"/>
<path d="M567.374 57.9021C567.374 57.9021 556.775 76.626 575.335 88.8156C575.335 88.8156 589.234 67.7278 567.374 57.9021Z" fill="#A38FBF"/>
<path d="M582.713 85.8024C584.806 81.3478 586.96 76.5551 586.225 71.6887C585.635 67.8793 583.34 64.5724 581.085 61.4531C578.831 58.3338 576.482 55.0858 575.762 51.2911C575.041 47.4964 576.492 42.9944 580.03 41.4716C583.29 40.0661 587.23 41.6716 589.511 44.3772C591.793 47.0828 592.753 50.652 593.433 54.1333C593.759 49.7509 597.226 45.6921 601.574 45.0789C605.922 44.4657 610.556 47.7225 611.082 52.0889C611.609 56.4553 607.47 60.8477 603.126 60.2547C606.719 60.2892 610.445 61.5808 612.752 64.3431C615.06 67.1054 615.559 71.4616 613.362 74.3247C611.165 77.1877 606.209 77.5775 604.025 74.7352C607.067 78.2697 605.601 84.6017 601.332 86.4516C597.062 88.3015 591.438 85.01 590.967 80.3658C587.239 87.733 582.541 95.0103 579.656 102.687C577.826 102.077 576.009 101.519 574.303 100.703C575.502 95.4812 580.42 90.7166 582.722 85.8212L582.713 85.8024Z" fill="#A38FBF"/>
<path d="M799.434 166.757C799.714 167.973 799.859 169.207 799.86 170.432C799.892 174.395 797.342 177.921 793.62 179.307L767.451 189.05C764.666 190.087 761.515 189.846 759.032 188.194C759.026 188.18 758.994 188.176 758.97 188.154C755.919 186.116 753.64 183.115 752.118 179.786C747.491 169.678 747.365 158.46 747.29 147.506C747.17 132.342 745.129 114.123 730.366 106.517C728.64 105.635 728.701 103.099 730.474 102.297C741.617 97.2691 754.111 93.7643 765.737 89.7817C767.489 89.1763 769.182 90.7299 768.803 92.5364C768.803 92.5364 768.813 92.564 768.786 92.5743C764.666 112.207 767.199 119.01 778.88 134.362C783.335 140.214 797.774 159.599 799.42 166.762L799.434 166.757Z" fill="#DACFE2"/>
<path d="M743.144 90.8718C743.214 91.1442 743.27 91.4218 743.326 91.6993C741.863 91.2699 740.714 91.5564 739.252 90.7495C735.354 88.5871 731.532 86.4594 728.578 83.0347C727.418 81.6911 720.844 72.3397 724.304 71.3029C727.266 70.4043 732.765 74.6731 734.829 76.4654C735.991 77.4782 736.982 78.6645 737.832 79.935C740.149 83.377 742.193 86.8423 743.158 90.8666L743.144 90.8718Z" fill="#DACFE2"/>
<path d="M747.907 89.0353C748.02 85.5842 750.077 82.7603 751.75 79.7492C753.624 76.3493 755.977 73.0539 759.078 70.6738C759.908 70.035 761.653 68.1442 762.571 69.389C763.191 70.2108 762.624 73.03 762.494 73.9895C762.089 76.9056 761.07 79.7358 759.467 82.218C756.825 86.2966 752.667 89.3373 747.995 90.6208C747.916 90.0692 747.888 89.5298 747.902 89.0215L747.907 89.0353Z" fill="#DACFE2"/>
<path d="M739.765 77.1571C739.765 77.1571 739.7 77.1501 739.681 77.1414C739.474 77.0926 739.356 76.9011 739.242 76.7233C736.772 72.9139 734.293 69.375 732.883 64.998C731.474 60.621 730.91 56.1963 731.36 51.7553C731.427 51.0077 731.573 51.189 732.106 51.5246C732.93 52.0506 733.909 52.3616 734.667 53.0064C738.241 56.0277 739.993 60.4814 740.672 65.0047C740.788 65.7787 741.905 77.3816 739.793 77.1469L739.765 77.1571Z" fill="#DACFE2"/>
<path d="M757.038 57.9846C754.944 58.9371 752.907 60.5911 751.383 62.1483C749.864 63.7192 748.519 65.4612 747.421 67.3624C745.959 69.8863 743.198 75.0777 744.836 78.0027C745.442 78.0284 746.011 77.7852 746.503 77.4609C749.722 75.3981 752.688 72.7385 754.892 69.5927C756.205 67.7214 756.481 65.8905 757.162 63.7987C757.351 63.2099 758.338 57.4693 758.393 57.4488C757.941 57.5855 757.486 57.7549 757.042 57.9519L757.038 57.9846Z" fill="#DACFE2"/>
<path d="M751.138 39.6472C748.4 42.4573 746.279 46.2478 744.982 49.8887C743.906 52.9445 742.144 59.5549 744.799 62.2585C745.957 63.4298 751.049 54.7156 751.4 53.8464C752.401 51.3057 753.047 48.6141 753.058 45.8606C753.057 43.4104 752.026 41.4847 751.655 39.1402C751.484 39.3138 751.308 39.4736 751.138 39.6472Z" fill="#DACFE2"/>
</svg>
