<svg width="436" height="73" viewBox="0 0 436 73" fill="none" xmlns="http://www.w3.org/2000/svg">
<path d="M75.2787 19.7366C74.1854 19.7366 73.1787 19.5633 72.2587 19.2166C71.352 18.8566 70.5587 18.3566 69.8787 17.7166C69.1987 17.0633 68.672 16.2966 68.2987 15.4166C67.9254 14.5366 67.7387 13.5766 67.7387 12.5366C67.7387 11.4966 67.9254 10.5366 68.2987 9.65662C68.672 8.77662 69.1987 8.01662 69.8787 7.37662C70.572 6.72329 71.3787 6.22329 72.2987 5.87662C73.2187 5.51662 74.2254 5.33662 75.3187 5.33662C76.5054 5.33662 77.572 5.52995 78.5187 5.91662C79.4787 6.30329 80.2854 6.86995 80.9387 7.61662L79.2987 9.21662C78.752 8.66995 78.1587 8.26995 77.5187 8.01662C76.892 7.74995 76.1987 7.61662 75.4387 7.61662C74.7054 7.61662 74.0254 7.73662 73.3987 7.97662C72.772 8.21662 72.232 8.55662 71.7787 8.99662C71.3254 9.43662 70.972 9.95662 70.7187 10.5566C70.4787 11.1566 70.3587 11.8166 70.3587 12.5366C70.3587 13.2433 70.4787 13.8966 70.7187 14.4966C70.972 15.0966 71.3254 15.6233 71.7787 16.0766C72.232 16.5166 72.7654 16.8566 73.3787 17.0966C73.992 17.3366 74.672 17.4566 75.4187 17.4566C76.112 17.4566 76.7787 17.35 77.4187 17.1366C78.072 16.91 78.692 16.5366 79.2787 16.0166L80.7587 17.9566C80.0254 18.5433 79.172 18.99 78.1987 19.2966C77.2387 19.59 76.2654 19.7366 75.2787 19.7366ZM78.2987 17.6166V12.3766H80.7587V17.9566L78.2987 17.6166ZM88.7479 19.6766C87.6546 19.6766 86.6812 19.4433 85.8279 18.9766C84.9746 18.4966 84.3012 17.8433 83.8079 17.0166C83.3146 16.19 83.0679 15.25 83.0679 14.1966C83.0679 13.13 83.3146 12.19 83.8079 11.3766C84.3012 10.55 84.9746 9.90329 85.8279 9.43662C86.6812 8.96995 87.6546 8.73662 88.7479 8.73662C89.8546 8.73662 90.8346 8.96995 91.6879 9.43662C92.5546 9.90329 93.2279 10.5433 93.7079 11.3566C94.2012 12.17 94.4479 13.1166 94.4479 14.1966C94.4479 15.25 94.2012 16.19 93.7079 17.0166C93.2279 17.8433 92.5546 18.4966 91.6879 18.9766C90.8346 19.4433 89.8546 19.6766 88.7479 19.6766ZM88.7479 17.5366C89.3612 17.5366 89.9079 17.4033 90.3879 17.1366C90.8679 16.87 91.2412 16.4833 91.5079 15.9766C91.7879 15.47 91.9279 14.8766 91.9279 14.1966C91.9279 13.5033 91.7879 12.91 91.5079 12.4166C91.2412 11.91 90.8679 11.5233 90.3879 11.2566C89.9079 10.99 89.3679 10.8566 88.7679 10.8566C88.1546 10.8566 87.6079 10.99 87.1279 11.2566C86.6612 11.5233 86.2879 11.91 86.0079 12.4166C85.7279 12.91 85.5879 13.5033 85.5879 14.1966C85.5879 14.8766 85.7279 15.47 86.0079 15.9766C86.2879 16.4833 86.6612 16.87 87.1279 17.1366C87.6079 17.4033 88.1479 17.5366 88.7479 17.5366ZM101.639 19.6766C100.545 19.6766 99.5719 19.4433 98.7185 18.9766C97.8652 18.4966 97.1919 17.8433 96.6985 17.0166C96.2052 16.19 95.9585 15.25 95.9585 14.1966C95.9585 13.13 96.2052 12.19 96.6985 11.3766C97.1919 10.55 97.8652 9.90329 98.7185 9.43662C99.5719 8.96995 100.545 8.73662 101.639 8.73662C102.745 8.73662 103.725 8.96995 104.579 9.43662C105.445 9.90329 106.119 10.5433 106.599 11.3566C107.092 12.17 107.339 13.1166 107.339 14.1966C107.339 15.25 107.092 16.19 106.599 17.0166C106.119 17.8433 105.445 18.4966 104.579 18.9766C103.725 19.4433 102.745 19.6766 101.639 19.6766ZM101.639 17.5366C102.252 17.5366 102.799 17.4033 103.279 17.1366C103.759 16.87 104.132 16.4833 104.399 15.9766C104.679 15.47 104.819 14.8766 104.819 14.1966C104.819 13.5033 104.679 12.91 104.399 12.4166C104.132 11.91 103.759 11.5233 103.279 11.2566C102.799 10.99 102.259 10.8566 101.659 10.8566C101.045 10.8566 100.499 10.99 100.019 11.2566C99.5519 11.5233 99.1785 11.91 98.8985 12.4166C98.6185 12.91 98.4785 13.5033 98.4785 14.1966C98.4785 14.8766 98.6185 15.47 98.8985 15.9766C99.1785 16.4833 99.5519 16.87 100.019 17.1366C100.499 17.4033 101.039 17.5366 101.639 17.5366ZM114.249 19.6766C113.222 19.6766 112.296 19.45 111.469 18.9966C110.656 18.53 110.016 17.89 109.549 17.0766C109.082 16.2633 108.849 15.3033 108.849 14.1966C108.849 13.09 109.082 12.13 109.549 11.3166C110.016 10.5033 110.656 9.86995 111.469 9.41662C112.296 8.96329 113.222 8.73662 114.249 8.73662C115.142 8.73662 115.942 8.93662 116.649 9.33662C117.356 9.72329 117.916 10.3166 118.329 11.1166C118.742 11.9166 118.949 12.9433 118.949 14.1966C118.949 15.4366 118.749 16.4633 118.349 17.2766C117.949 18.0766 117.396 18.6766 116.689 19.0766C115.982 19.4766 115.169 19.6766 114.249 19.6766ZM114.549 17.5366C115.149 17.5366 115.682 17.4033 116.149 17.1366C116.629 16.87 117.009 16.4833 117.289 15.9766C117.582 15.47 117.729 14.8766 117.729 14.1966C117.729 13.5033 117.582 12.91 117.289 12.4166C117.009 11.91 116.629 11.5233 116.149 11.2566C115.682 10.99 115.149 10.8566 114.549 10.8566C113.949 10.8566 113.409 10.99 112.929 11.2566C112.462 11.5233 112.082 11.91 111.789 12.4166C111.509 12.91 111.369 13.5033 111.369 14.1966C111.369 14.8766 111.509 15.47 111.789 15.9766C112.082 16.4833 112.462 16.87 112.929 17.1366C113.409 17.4033 113.949 17.5366 114.549 17.5366ZM117.789 19.5366V17.0166L117.889 14.1766L117.689 11.3366V4.69662H120.169V19.5366H117.789ZM134.907 19.6766C134.04 19.6766 133.247 19.4766 132.527 19.0766C131.82 18.6766 131.254 18.0766 130.827 17.2766C130.414 16.4633 130.207 15.4366 130.207 14.1966C130.207 12.9433 130.407 11.9166 130.807 11.1166C131.22 10.3166 131.78 9.72329 132.487 9.33662C133.194 8.93662 134 8.73662 134.907 8.73662C135.96 8.73662 136.887 8.96329 137.687 9.41662C138.5 9.86995 139.14 10.5033 139.607 11.3166C140.087 12.13 140.327 13.09 140.327 14.1966C140.327 15.3033 140.087 16.27 139.607 17.0966C139.14 17.91 138.5 18.5433 137.687 18.9966C136.887 19.45 135.96 19.6766 134.907 19.6766ZM128.987 23.4166V8.85662H131.367V11.3766L131.287 14.2166L131.487 17.0566V23.4166H128.987ZM134.627 17.5366C135.227 17.5366 135.76 17.4033 136.227 17.1366C136.707 16.87 137.087 16.4833 137.367 15.9766C137.647 15.47 137.787 14.8766 137.787 14.1966C137.787 13.5033 137.647 12.91 137.367 12.4166C137.087 11.91 136.707 11.5233 136.227 11.2566C135.76 10.99 135.227 10.8566 134.627 10.8566C134.027 10.8566 133.487 10.99 133.007 11.2566C132.527 11.5233 132.147 11.91 131.867 12.4166C131.587 12.91 131.447 13.5033 131.447 14.1966C131.447 14.8766 131.587 15.47 131.867 15.9766C132.147 16.4833 132.527 16.87 133.007 17.1366C133.487 17.4033 134.027 17.5366 134.627 17.5366ZM147.498 19.6766C146.405 19.6766 145.431 19.4433 144.578 18.9766C143.725 18.4966 143.051 17.8433 142.558 17.0166C142.065 16.19 141.818 15.25 141.818 14.1966C141.818 13.13 142.065 12.19 142.558 11.3766C143.051 10.55 143.725 9.90329 144.578 9.43662C145.431 8.96995 146.405 8.73662 147.498 8.73662C148.605 8.73662 149.585 8.96995 150.438 9.43662C151.305 9.90329 151.978 10.5433 152.458 11.3566C152.951 12.17 153.198 13.1166 153.198 14.1966C153.198 15.25 152.951 16.19 152.458 17.0166C151.978 17.8433 151.305 18.4966 150.438 18.9766C149.585 19.4433 148.605 19.6766 147.498 19.6766ZM147.498 17.5366C148.111 17.5366 148.658 17.4033 149.138 17.1366C149.618 16.87 149.991 16.4833 150.258 15.9766C150.538 15.47 150.678 14.8766 150.678 14.1966C150.678 13.5033 150.538 12.91 150.258 12.4166C149.991 11.91 149.618 11.5233 149.138 11.2566C148.658 10.99 148.118 10.8566 147.518 10.8566C146.905 10.8566 146.358 10.99 145.878 11.2566C145.411 11.5233 145.038 11.91 144.758 12.4166C144.478 12.91 144.338 13.5033 144.338 14.1966C144.338 14.8766 144.478 15.47 144.758 15.9766C145.038 16.4833 145.411 16.87 145.878 17.1366C146.358 17.4033 146.898 17.5366 147.498 17.5366ZM159.609 19.6766C158.435 19.6766 157.529 19.3766 156.889 18.7766C156.249 18.1633 155.929 17.2633 155.929 16.0766V6.49662H158.429V16.0166C158.429 16.5233 158.555 16.9166 158.809 17.1966C159.075 17.4766 159.442 17.6166 159.909 17.6166C160.469 17.6166 160.935 17.47 161.309 17.1766L162.009 18.9566C161.715 19.1966 161.355 19.3766 160.929 19.4966C160.502 19.6166 160.062 19.6766 159.609 19.6766ZM154.169 10.9366V8.93662H161.289V10.9366H154.169ZM167.365 19.6766C166.472 19.6766 165.612 19.5633 164.785 19.3366C163.972 19.0966 163.325 18.81 162.845 18.4766L163.805 16.5766C164.285 16.8833 164.858 17.1366 165.525 17.3366C166.192 17.5366 166.858 17.6366 167.525 17.6366C168.312 17.6366 168.878 17.53 169.225 17.3166C169.585 17.1033 169.765 16.8166 169.765 16.4566C169.765 16.1633 169.645 15.9433 169.405 15.7966C169.165 15.6366 168.852 15.5166 168.465 15.4366C168.078 15.3566 167.645 15.2833 167.165 15.2166C166.698 15.15 166.225 15.0633 165.745 14.9566C165.278 14.8366 164.852 14.67 164.465 14.4566C164.078 14.23 163.765 13.93 163.525 13.5566C163.285 13.1833 163.165 12.69 163.165 12.0766C163.165 11.3966 163.358 10.81 163.745 10.3166C164.132 9.80995 164.672 9.42329 165.365 9.15662C166.072 8.87662 166.905 8.73662 167.865 8.73662C168.585 8.73662 169.312 8.81662 170.045 8.97662C170.778 9.13662 171.385 9.36329 171.865 9.65662L170.905 11.5566C170.398 11.25 169.885 11.0433 169.365 10.9366C168.858 10.8166 168.352 10.7566 167.845 10.7566C167.085 10.7566 166.518 10.87 166.145 11.0966C165.785 11.3233 165.605 11.61 165.605 11.9566C165.605 12.2766 165.725 12.5166 165.965 12.6766C166.205 12.8366 166.518 12.9633 166.905 13.0566C167.292 13.15 167.718 13.23 168.185 13.2966C168.665 13.35 169.138 13.4366 169.605 13.5566C170.072 13.6766 170.498 13.8433 170.885 14.0566C171.285 14.2566 171.605 14.5433 171.845 14.9166C172.085 15.29 172.205 15.7766 172.205 16.3766C172.205 17.0433 172.005 17.6233 171.605 18.1166C171.218 18.61 170.665 18.9966 169.945 19.2766C169.225 19.5433 168.365 19.6766 167.365 19.6766ZM179.885 19.5366V8.85662H182.265V11.7966L181.985 10.9366C182.305 10.2166 182.805 9.66995 183.485 9.29662C184.179 8.92329 185.039 8.73662 186.065 8.73662V11.1166C185.959 11.09 185.859 11.0766 185.765 11.0766C185.672 11.0633 185.579 11.0566 185.485 11.0566C184.539 11.0566 183.785 11.3366 183.225 11.8966C182.665 12.4433 182.385 13.2633 182.385 14.3566V19.5366H179.885ZM193.109 19.6766C191.922 19.6766 190.882 19.4433 189.989 18.9766C189.109 18.4966 188.422 17.8433 187.929 17.0166C187.449 16.19 187.209 15.25 187.209 14.1966C187.209 13.13 187.442 12.19 187.909 11.3766C188.389 10.55 189.042 9.90329 189.869 9.43662C190.709 8.96995 191.662 8.73662 192.729 8.73662C193.769 8.73662 194.695 8.96329 195.509 9.41662C196.322 9.86995 196.962 10.51 197.429 11.3366C197.895 12.1633 198.129 13.1366 198.129 14.2566C198.129 14.3633 198.122 14.4833 198.109 14.6166C198.109 14.75 198.102 14.8766 198.089 14.9966H189.189V13.3366H196.769L195.789 13.8566C195.802 13.2433 195.675 12.7033 195.409 12.2366C195.142 11.77 194.775 11.4033 194.309 11.1366C193.855 10.87 193.329 10.7366 192.729 10.7366C192.115 10.7366 191.575 10.87 191.109 11.1366C190.655 11.4033 190.295 11.7766 190.029 12.2566C189.775 12.7233 189.649 13.2766 189.649 13.9166V14.3166C189.649 14.9566 189.795 15.5233 190.089 16.0166C190.382 16.51 190.795 16.89 191.329 17.1566C191.862 17.4233 192.475 17.5566 193.169 17.5566C193.769 17.5566 194.309 17.4633 194.789 17.2766C195.269 17.09 195.695 16.7966 196.069 16.3966L197.409 17.9366C196.929 18.4966 196.322 18.93 195.589 19.2366C194.869 19.53 194.042 19.6766 193.109 19.6766ZM205.05 19.6766C204.023 19.6766 203.097 19.45 202.27 18.9966C201.457 18.5433 200.817 17.91 200.35 17.0966C199.883 16.27 199.65 15.3033 199.65 14.1966C199.65 13.09 199.883 12.13 200.35 11.3166C200.817 10.5033 201.457 9.86995 202.27 9.41662C203.097 8.96329 204.023 8.73662 205.05 8.73662C205.97 8.73662 206.777 8.93662 207.47 9.33662C208.177 9.72329 208.73 10.3166 209.13 11.1166C209.543 11.9166 209.75 12.9433 209.75 14.1966C209.75 15.4366 209.537 16.4633 209.11 17.2766C208.697 18.0766 208.137 18.6766 207.43 19.0766C206.723 19.4766 205.93 19.6766 205.05 19.6766ZM205.33 17.5366C205.93 17.5366 206.47 17.4033 206.95 17.1366C207.43 16.87 207.81 16.4833 208.09 15.9766C208.37 15.47 208.51 14.8766 208.51 14.1966C208.51 13.5033 208.37 12.91 208.09 12.4166C207.81 11.91 207.43 11.5233 206.95 11.2566C206.47 10.99 205.93 10.8566 205.33 10.8566C204.73 10.8566 204.19 10.99 203.71 11.2566C203.243 11.5233 202.87 11.91 202.59 12.4166C202.31 12.91 202.17 13.5033 202.17 14.1966C202.17 14.8766 202.31 15.47 202.59 15.9766C202.87 16.4833 203.243 16.87 203.71 17.1366C204.19 17.4033 204.73 17.5366 205.33 17.5366ZM208.47 23.4166V17.0566L208.67 14.2166L208.59 11.3766V8.85662H210.97V23.4166H208.47ZM218.761 19.6766C217.854 19.6766 217.054 19.51 216.361 19.1766C215.668 18.83 215.128 18.31 214.741 17.6166C214.354 16.91 214.161 16.0233 214.161 14.9566V8.85662H216.661V14.6166C216.661 15.5766 216.874 16.2966 217.301 16.7766C217.741 17.2433 218.361 17.4766 219.161 17.4766C219.748 17.4766 220.254 17.3566 220.681 17.1166C221.121 16.8766 221.461 16.5166 221.701 16.0366C221.954 15.5566 222.081 14.9633 222.081 14.2566V8.85662H224.581V19.5366H222.201V16.6566L222.621 17.5366C222.261 18.23 221.734 18.7633 221.041 19.1366C220.348 19.4966 219.588 19.6766 218.761 19.6766ZM227.854 19.5366V8.85662H230.354V19.5366H227.854ZM229.114 7.09662C228.647 7.09662 228.261 6.94995 227.954 6.65662C227.661 6.36329 227.514 6.00995 227.514 5.59662C227.514 5.16995 227.661 4.81662 227.954 4.53662C228.261 4.24329 228.647 4.09662 229.114 4.09662C229.581 4.09662 229.961 4.23662 230.254 4.51662C230.561 4.78329 230.714 5.12329 230.714 5.53662C230.714 5.97662 230.567 6.34995 230.274 6.65662C229.981 6.94995 229.594 7.09662 229.114 7.09662ZM233.635 19.5366V8.85662H236.015V11.7966L235.735 10.9366C236.055 10.2166 236.555 9.66995 237.235 9.29662C237.929 8.92329 238.789 8.73662 239.815 8.73662V11.1166C239.709 11.09 239.609 11.0766 239.515 11.0766C239.422 11.0633 239.329 11.0566 239.235 11.0566C238.289 11.0566 237.535 11.3366 236.975 11.8966C236.415 12.4433 236.135 13.2633 236.135 14.3566V19.5366H233.635ZM246.859 19.6766C245.672 19.6766 244.632 19.4433 243.739 18.9766C242.859 18.4966 242.172 17.8433 241.679 17.0166C241.199 16.19 240.959 15.25 240.959 14.1966C240.959 13.13 241.192 12.19 241.659 11.3766C242.139 10.55 242.792 9.90329 243.619 9.43662C244.459 8.96995 245.412 8.73662 246.479 8.73662C247.519 8.73662 248.445 8.96329 249.259 9.41662C250.072 9.86995 250.712 10.51 251.179 11.3366C251.645 12.1633 251.879 13.1366 251.879 14.2566C251.879 14.3633 251.872 14.4833 251.859 14.6166C251.859 14.75 251.852 14.8766 251.839 14.9966H242.939V13.3366H250.519L249.539 13.8566C249.552 13.2433 249.425 12.7033 249.159 12.2366C248.892 11.77 248.525 11.4033 248.059 11.1366C247.605 10.87 247.079 10.7366 246.479 10.7366C245.865 10.7366 245.325 10.87 244.859 11.1366C244.405 11.4033 244.045 11.7766 243.779 12.2566C243.525 12.7233 243.399 13.2766 243.399 13.9166V14.3166C243.399 14.9566 243.545 15.5233 243.839 16.0166C244.132 16.51 244.545 16.89 245.079 17.1566C245.612 17.4233 246.225 17.5566 246.919 17.5566C247.519 17.5566 248.059 17.4633 248.539 17.2766C249.019 17.09 249.445 16.7966 249.819 16.3966L251.159 17.9366C250.679 18.4966 250.072 18.93 249.339 19.2366C248.619 19.53 247.792 19.6766 246.859 19.6766ZM263.827 19.6766C262.654 19.6766 261.747 19.3766 261.107 18.7766C260.467 18.1633 260.147 17.2633 260.147 16.0766V6.49662H262.647V16.0166C262.647 16.5233 262.774 16.9166 263.027 17.1966C263.294 17.4766 263.661 17.6166 264.127 17.6166C264.687 17.6166 265.154 17.47 265.527 17.1766L266.227 18.9566C265.934 19.1966 265.574 19.3766 265.147 19.4966C264.721 19.6166 264.281 19.6766 263.827 19.6766ZM258.387 10.9366V8.93662H265.507V10.9366H258.387ZM274.344 8.73662C275.197 8.73662 275.957 8.90329 276.624 9.23662C277.304 9.56995 277.837 10.0833 278.224 10.7766C278.611 11.4566 278.804 12.3366 278.804 13.4166V19.5366H276.304V13.7366C276.304 12.79 276.077 12.0833 275.624 11.6166C275.184 11.15 274.564 10.9166 273.764 10.9166C273.177 10.9166 272.657 11.0366 272.204 11.2766C271.751 11.5166 271.397 11.8766 271.144 12.3566C270.904 12.8233 270.784 13.4166 270.784 14.1366V19.5366H268.284V4.69662H270.784V11.7366L270.244 10.8566C270.617 10.1766 271.157 9.65662 271.864 9.29662C272.584 8.92329 273.411 8.73662 274.344 8.73662ZM287.015 19.6766C285.828 19.6766 284.788 19.4433 283.895 18.9766C283.015 18.4966 282.328 17.8433 281.835 17.0166C281.355 16.19 281.115 15.25 281.115 14.1966C281.115 13.13 281.348 12.19 281.815 11.3766C282.295 10.55 282.948 9.90329 283.775 9.43662C284.615 8.96995 285.568 8.73662 286.635 8.73662C287.675 8.73662 288.601 8.96329 289.415 9.41662C290.228 9.86995 290.868 10.51 291.335 11.3366C291.801 12.1633 292.035 13.1366 292.035 14.2566C292.035 14.3633 292.028 14.4833 292.015 14.6166C292.015 14.75 292.008 14.8766 291.995 14.9966H283.095V13.3366H290.675L289.695 13.8566C289.708 13.2433 289.581 12.7033 289.315 12.2366C289.048 11.77 288.681 11.4033 288.215 11.1366C287.761 10.87 287.235 10.7366 286.635 10.7366C286.021 10.7366 285.481 10.87 285.015 11.1366C284.561 11.4033 284.201 11.7766 283.935 12.2566C283.681 12.7233 283.555 13.2766 283.555 13.9166V14.3166C283.555 14.9566 283.701 15.5233 283.995 16.0166C284.288 16.51 284.701 16.89 285.235 17.1566C285.768 17.4233 286.381 17.5566 287.075 17.5566C287.675 17.5566 288.215 17.4633 288.695 17.2766C289.175 17.09 289.601 16.7966 289.975 16.3966L291.315 17.9366C290.835 18.4966 290.228 18.93 289.495 19.2366C288.775 19.53 287.948 19.6766 287.015 19.6766ZM306.544 19.5366V17.3766L306.404 16.9166V13.1366C306.404 12.4033 306.184 11.8366 305.744 11.4366C305.304 11.0233 304.637 10.8166 303.744 10.8166C303.144 10.8166 302.55 10.91 301.964 11.0966C301.39 11.2833 300.904 11.5433 300.504 11.8766L299.524 10.0566C300.097 9.61662 300.777 9.28995 301.564 9.07662C302.364 8.84995 303.19 8.73662 304.044 8.73662C305.59 8.73662 306.784 9.10995 307.624 9.85662C308.477 10.59 308.904 11.73 308.904 13.2766V19.5366H306.544ZM303.184 19.6766C302.384 19.6766 301.684 19.5433 301.084 19.2766C300.484 18.9966 300.017 18.6166 299.684 18.1366C299.364 17.6433 299.204 17.09 299.204 16.4766C299.204 15.8766 299.344 15.3366 299.624 14.8566C299.917 14.3766 300.39 13.9966 301.044 13.7166C301.697 13.4366 302.564 13.2966 303.644 13.2966H306.744V14.9566H303.824C302.97 14.9566 302.397 15.0966 302.104 15.3766C301.81 15.6433 301.664 15.9766 301.664 16.3766C301.664 16.83 301.844 17.19 302.204 17.4566C302.564 17.7233 303.064 17.8566 303.704 17.8566C304.317 17.8566 304.864 17.7166 305.344 17.4366C305.837 17.1566 306.19 16.7433 306.404 16.1966L306.824 17.6966C306.584 18.3233 306.15 18.81 305.524 19.1566C304.91 19.5033 304.13 19.6766 303.184 19.6766ZM312.112 19.5366V8.85662H314.492V11.7966L314.212 10.9366C314.532 10.2166 315.032 9.66995 315.712 9.29662C316.405 8.92329 317.265 8.73662 318.292 8.73662V11.1166C318.185 11.09 318.085 11.0766 317.992 11.0766C317.899 11.0633 317.805 11.0566 317.712 11.0566C316.765 11.0566 316.012 11.3366 315.452 11.8966C314.892 12.4433 314.612 13.2633 314.612 14.3566V19.5366H312.112ZM324.835 19.6766C323.808 19.6766 322.882 19.45 322.055 18.9966C321.242 18.53 320.602 17.89 320.135 17.0766C319.668 16.2633 319.435 15.3033 319.435 14.1966C319.435 13.09 319.668 12.13 320.135 11.3166C320.602 10.5033 321.242 9.86995 322.055 9.41662C322.882 8.96329 323.808 8.73662 324.835 8.73662C325.728 8.73662 326.528 8.93662 327.235 9.33662C327.942 9.72329 328.502 10.3166 328.915 11.1166C329.328 11.9166 329.535 12.9433 329.535 14.1966C329.535 15.4366 329.335 16.4633 328.935 17.2766C328.535 18.0766 327.982 18.6766 327.275 19.0766C326.568 19.4766 325.755 19.6766 324.835 19.6766ZM325.135 17.5366C325.735 17.5366 326.268 17.4033 326.735 17.1366C327.215 16.87 327.595 16.4833 327.875 15.9766C328.168 15.47 328.315 14.8766 328.315 14.1966C328.315 13.5033 328.168 12.91 327.875 12.4166C327.595 11.91 327.215 11.5233 326.735 11.2566C326.268 10.99 325.735 10.8566 325.135 10.8566C324.535 10.8566 323.995 10.99 323.515 11.2566C323.048 11.5233 322.668 11.91 322.375 12.4166C322.095 12.91 321.955 13.5033 321.955 14.1966C321.955 14.8766 322.095 15.47 322.375 15.9766C322.668 16.4833 323.048 16.87 323.515 17.1366C323.995 17.4033 324.535 17.5366 325.135 17.5366ZM328.375 19.5366V17.0166L328.475 14.1766L328.275 11.3366V4.69662H330.755V19.5366H328.375ZM338.846 19.6766C337.752 19.6766 336.779 19.4433 335.926 18.9766C335.072 18.4966 334.399 17.8433 333.906 17.0166C333.412 16.19 333.166 15.25 333.166 14.1966C333.166 13.13 333.412 12.19 333.906 11.3766C334.399 10.55 335.072 9.90329 335.926 9.43662C336.779 8.96995 337.752 8.73662 338.846 8.73662C339.952 8.73662 340.932 8.96995 341.786 9.43662C342.652 9.90329 343.326 10.5433 343.806 11.3566C344.299 12.17 344.546 13.1166 344.546 14.1966C344.546 15.25 344.299 16.19 343.806 17.0166C343.326 17.8433 342.652 18.4966 341.786 18.9766C340.932 19.4433 339.952 19.6766 338.846 19.6766ZM338.846 17.5366C339.459 17.5366 340.006 17.4033 340.486 17.1366C340.966 16.87 341.339 16.4833 341.606 15.9766C341.886 15.47 342.026 14.8766 342.026 14.1966C342.026 13.5033 341.886 12.91 341.606 12.4166C341.339 11.91 340.966 11.5233 340.486 11.2566C340.006 10.99 339.466 10.8566 338.866 10.8566C338.252 10.8566 337.706 10.99 337.226 11.2566C336.759 11.5233 336.386 11.91 336.106 12.4166C335.826 12.91 335.686 13.5033 335.686 14.1966C335.686 14.8766 335.826 15.47 336.106 15.9766C336.386 16.4833 336.759 16.87 337.226 17.1366C337.706 17.4033 338.246 17.5366 338.846 17.5366ZM346.936 19.5366V8.85662H349.316V11.7966L349.036 10.9366C349.356 10.2166 349.856 9.66995 350.536 9.29662C351.23 8.92329 352.09 8.73662 353.116 8.73662V11.1166C353.01 11.09 352.91 11.0766 352.816 11.0766C352.723 11.0633 352.63 11.0566 352.536 11.0566C351.59 11.0566 350.836 11.3366 350.276 11.8966C349.716 12.4433 349.436 13.2633 349.436 14.3566V19.5366H346.936ZM365.662 19.6766C364.569 19.6766 363.595 19.4433 362.742 18.9766C361.889 18.4966 361.215 17.8433 360.722 17.0166C360.229 16.19 359.982 15.25 359.982 14.1966C359.982 13.13 360.229 12.19 360.722 11.3766C361.215 10.55 361.889 9.90329 362.742 9.43662C363.595 8.96995 364.569 8.73662 365.662 8.73662C366.769 8.73662 367.749 8.96995 368.602 9.43662C369.469 9.90329 370.142 10.5433 370.622 11.3566C371.115 12.17 371.362 13.1166 371.362 14.1966C371.362 15.25 371.115 16.19 370.622 17.0166C370.142 17.8433 369.469 18.4966 368.602 18.9766C367.749 19.4433 366.769 19.6766 365.662 19.6766ZM365.662 17.5366C366.275 17.5366 366.822 17.4033 367.302 17.1366C367.782 16.87 368.155 16.4833 368.422 15.9766C368.702 15.47 368.842 14.8766 368.842 14.1966C368.842 13.5033 368.702 12.91 368.422 12.4166C368.155 11.91 367.782 11.5233 367.302 11.2566C366.822 10.99 366.282 10.8566 365.682 10.8566C365.069 10.8566 364.522 10.99 364.042 11.2566C363.575 11.5233 363.202 11.91 362.922 12.4166C362.642 12.91 362.502 13.5033 362.502 14.1966C362.502 14.8766 362.642 15.47 362.922 15.9766C363.202 16.4833 363.575 16.87 364.042 17.1366C364.522 17.4033 365.062 17.5366 365.662 17.5366ZM374.093 19.5366V8.25662C374.093 7.13662 374.419 6.24329 375.073 5.57662C375.739 4.89662 376.686 4.55662 377.913 4.55662C378.353 4.55662 378.766 4.60329 379.153 4.69662C379.553 4.78995 379.886 4.93662 380.153 5.13662L379.473 7.01662C379.286 6.86995 379.073 6.76329 378.833 6.69662C378.593 6.61662 378.346 6.57662 378.093 6.57662C377.573 6.57662 377.179 6.72329 376.913 7.01662C376.646 7.29662 376.513 7.72329 376.513 8.29662V9.49662L376.593 10.6166V19.5366H374.093ZM372.333 10.9366V8.93662H379.453V10.9366H372.333ZM70.6453 43.5366L66.0653 32.8566H68.6653L72.6053 42.2766H71.3253L75.4053 32.8566H77.8053L73.2253 43.5366H70.6453ZM83.8749 43.6766C82.7815 43.6766 81.8082 43.4433 80.9549 42.9766C80.1015 42.4966 79.4282 41.8433 78.9349 41.0166C78.4415 40.19 78.1949 39.25 78.1949 38.1966C78.1949 37.13 78.4415 36.19 78.9349 35.3766C79.4282 34.55 80.1015 33.9033 80.9549 33.4366C81.8082 32.97 82.7815 32.7366 83.8749 32.7366C84.9815 32.7366 85.9615 32.97 86.8149 33.4366C87.6815 33.9033 88.3549 34.5433 88.8349 35.3566C89.3282 36.17 89.5749 37.1166 89.5749 38.1966C89.5749 39.25 89.3282 40.19 88.8349 41.0166C88.3549 41.8433 87.6815 42.4966 86.8149 42.9766C85.9615 43.4433 84.9815 43.6766 83.8749 43.6766ZM83.8749 41.5366C84.4882 41.5366 85.0349 41.4033 85.5149 41.1366C85.9949 40.87 86.3682 40.4833 86.6349 39.9766C86.9149 39.47 87.0549 38.8766 87.0549 38.1966C87.0549 37.5033 86.9149 36.91 86.6349 36.4166C86.3682 35.91 85.9949 35.5233 85.5149 35.2566C85.0349 34.99 84.4949 34.8566 83.8949 34.8566C83.2815 34.8566 82.7349 34.99 82.2549 35.2566C81.7882 35.5233 81.4149 35.91 81.1349 36.4166C80.8549 36.91 80.7149 37.5033 80.7149 38.1966C80.7149 38.8766 80.8549 39.47 81.1349 39.9766C81.4149 40.4833 81.7882 40.87 82.2549 41.1366C82.7349 41.4033 83.2749 41.5366 83.8749 41.5366ZM96.8655 43.6766C95.7455 43.6766 94.7455 43.4433 93.8655 42.9766C92.9988 42.4966 92.3188 41.8433 91.8255 41.0166C91.3322 40.19 91.0855 39.25 91.0855 38.1966C91.0855 37.13 91.3322 36.19 91.8255 35.3766C92.3188 34.55 92.9988 33.9033 93.8655 33.4366C94.7455 32.97 95.7455 32.7366 96.8655 32.7366C97.9055 32.7366 98.8188 32.95 99.6055 33.3766C100.405 33.79 101.012 34.4033 101.425 35.2166L99.5055 36.3366C99.1855 35.83 98.7922 35.4566 98.3255 35.2166C97.8722 34.9766 97.3788 34.8566 96.8455 34.8566C96.2322 34.8566 95.6788 34.99 95.1855 35.2566C94.6922 35.5233 94.3055 35.91 94.0255 36.4166C93.7455 36.91 93.6055 37.5033 93.6055 38.1966C93.6055 38.89 93.7455 39.49 94.0255 39.9966C94.3055 40.49 94.6922 40.87 95.1855 41.1366C95.6788 41.4033 96.2322 41.5366 96.8455 41.5366C97.3788 41.5366 97.8722 41.4166 98.3255 41.1766C98.7922 40.9366 99.1855 40.5633 99.5055 40.0566L101.425 41.1766C101.012 41.9766 100.405 42.5966 99.6055 43.0366C98.8188 43.4633 97.9055 43.6766 96.8655 43.6766ZM110.167 43.5366V41.3766L110.027 40.9166V37.1366C110.027 36.4033 109.807 35.8366 109.367 35.4366C108.927 35.0233 108.26 34.8166 107.367 34.8166C106.767 34.8166 106.173 34.91 105.587 35.0966C105.013 35.2833 104.527 35.5433 104.127 35.8766L103.147 34.0566C103.72 33.6166 104.4 33.29 105.187 33.0766C105.987 32.85 106.813 32.7366 107.667 32.7366C109.213 32.7366 110.407 33.11 111.247 33.8566C112.1 34.59 112.527 35.73 112.527 37.2766V43.5366H110.167ZM106.807 43.6766C106.007 43.6766 105.307 43.5433 104.707 43.2766C104.107 42.9966 103.64 42.6166 103.307 42.1366C102.987 41.6433 102.827 41.09 102.827 40.4766C102.827 39.8766 102.967 39.3366 103.247 38.8566C103.54 38.3766 104.013 37.9966 104.667 37.7166C105.32 37.4366 106.187 37.2966 107.267 37.2966H110.367V38.9566H107.447C106.593 38.9566 106.02 39.0966 105.727 39.3766C105.433 39.6433 105.287 39.9766 105.287 40.3766C105.287 40.83 105.467 41.19 105.827 41.4566C106.187 41.7233 106.687 41.8566 107.327 41.8566C107.94 41.8566 108.487 41.7166 108.967 41.4366C109.46 41.1566 109.813 40.7433 110.027 40.1966L110.447 41.6966C110.207 42.3233 109.773 42.81 109.147 43.1566C108.533 43.5033 107.753 43.6766 106.807 43.6766ZM119.755 43.6766C118.582 43.6766 117.675 43.3766 117.035 42.7766C116.395 42.1633 116.075 41.2633 116.075 40.0766V30.4966H118.575V40.0166C118.575 40.5233 118.702 40.9166 118.955 41.1966C119.222 41.4766 119.588 41.6166 120.055 41.6166C120.615 41.6166 121.082 41.47 121.455 41.1766L122.155 42.9566C121.862 43.1966 121.502 43.3766 121.075 43.4966C120.648 43.6166 120.208 43.6766 119.755 43.6766ZM114.315 34.9366V32.9366H121.435V34.9366H114.315ZM124.212 43.5366V32.8566H126.712V43.5366H124.212ZM125.472 31.0966C125.005 31.0966 124.618 30.95 124.312 30.6566C124.018 30.3633 123.872 30.01 123.872 29.5966C123.872 29.17 124.018 28.8166 124.312 28.5366C124.618 28.2433 125.005 28.0966 125.472 28.0966C125.938 28.0966 126.318 28.2366 126.612 28.5166C126.918 28.7833 127.072 29.1233 127.072 29.5366C127.072 29.9766 126.925 30.35 126.632 30.6566C126.338 30.95 125.952 31.0966 125.472 31.0966ZM134.793 43.6766C133.699 43.6766 132.726 43.4433 131.873 42.9766C131.019 42.4966 130.346 41.8433 129.853 41.0166C129.359 40.19 129.113 39.25 129.113 38.1966C129.113 37.13 129.359 36.19 129.853 35.3766C130.346 34.55 131.019 33.9033 131.873 33.4366C132.726 32.97 133.699 32.7366 134.793 32.7366C135.899 32.7366 136.879 32.97 137.733 33.4366C138.599 33.9033 139.273 34.5433 139.753 35.3566C140.246 36.17 140.493 37.1166 140.493 38.1966C140.493 39.25 140.246 40.19 139.753 41.0166C139.273 41.8433 138.599 42.4966 137.733 42.9766C136.879 43.4433 135.899 43.6766 134.793 43.6766ZM134.793 41.5366C135.406 41.5366 135.953 41.4033 136.433 41.1366C136.913 40.87 137.286 40.4833 137.553 39.9766C137.833 39.47 137.973 38.8766 137.973 38.1966C137.973 37.5033 137.833 36.91 137.553 36.4166C137.286 35.91 136.913 35.5233 136.433 35.2566C135.953 34.99 135.413 34.8566 134.813 34.8566C134.199 34.8566 133.653 34.99 133.173 35.2566C132.706 35.5233 132.333 35.91 132.053 36.4166C131.773 36.91 131.633 37.5033 131.633 38.1966C131.633 38.8766 131.773 39.47 132.053 39.9766C132.333 40.4833 132.706 40.87 133.173 41.1366C133.653 41.4033 134.193 41.5366 134.793 41.5366ZM148.943 32.7366C149.797 32.7366 150.557 32.9033 151.223 33.2366C151.903 33.57 152.437 34.0833 152.823 34.7766C153.21 35.4566 153.403 36.3366 153.403 37.4166V43.5366H150.903V37.7366C150.903 36.79 150.677 36.0833 150.223 35.6166C149.783 35.15 149.163 34.9166 148.363 34.9166C147.777 34.9166 147.257 35.0366 146.803 35.2766C146.35 35.5166 145.997 35.8766 145.743 36.3566C145.503 36.8233 145.383 37.4166 145.383 38.1366V43.5366H142.883V32.8566H145.263V35.7366L144.843 34.8566C145.217 34.1766 145.757 33.6566 146.463 33.2966C147.183 32.9233 148.01 32.7366 148.943 32.7366ZM168.682 43.5366V41.3766L168.542 40.9166V37.1366C168.542 36.4033 168.322 35.8366 167.882 35.4366C167.442 35.0233 166.776 34.8166 165.882 34.8166C165.282 34.8166 164.689 34.91 164.102 35.0966C163.529 35.2833 163.042 35.5433 162.642 35.8766L161.662 34.0566C162.236 33.6166 162.916 33.29 163.702 33.0766C164.502 32.85 165.329 32.7366 166.182 32.7366C167.729 32.7366 168.922 33.11 169.762 33.8566C170.616 34.59 171.042 35.73 171.042 37.2766V43.5366H168.682ZM165.322 43.6766C164.522 43.6766 163.822 43.5433 163.222 43.2766C162.622 42.9966 162.156 42.6166 161.822 42.1366C161.502 41.6433 161.342 41.09 161.342 40.4766C161.342 39.8766 161.482 39.3366 161.762 38.8566C162.056 38.3766 162.529 37.9966 163.182 37.7166C163.836 37.4366 164.702 37.2966 165.782 37.2966H168.882V38.9566H165.962C165.109 38.9566 164.536 39.0966 164.242 39.3766C163.949 39.6433 163.802 39.9766 163.802 40.3766C163.802 40.83 163.982 41.19 164.342 41.4566C164.702 41.7233 165.202 41.8566 165.842 41.8566C166.456 41.8566 167.002 41.7166 167.482 41.4366C167.976 41.1566 168.329 40.7433 168.542 40.1966L168.962 41.6966C168.722 42.3233 168.289 42.81 167.662 43.1566C167.049 43.5033 166.269 43.6766 165.322 43.6766ZM180.311 32.7366C181.164 32.7366 181.924 32.9033 182.591 33.2366C183.271 33.57 183.804 34.0833 184.191 34.7766C184.577 35.4566 184.771 36.3366 184.771 37.4166V43.5366H182.271V37.7366C182.271 36.79 182.044 36.0833 181.591 35.6166C181.151 35.15 180.531 34.9166 179.731 34.9166C179.144 34.9166 178.624 35.0366 178.171 35.2766C177.717 35.5166 177.364 35.8766 177.111 36.3566C176.871 36.8233 176.751 37.4166 176.751 38.1366V43.5366H174.251V32.8566H176.631V35.7366L176.211 34.8566C176.584 34.1766 177.124 33.6566 177.831 33.2966C178.551 32.9233 179.377 32.7366 180.311 32.7366ZM192.482 43.6766C191.455 43.6766 190.528 43.45 189.702 42.9966C188.888 42.53 188.248 41.89 187.782 41.0766C187.315 40.2633 187.082 39.3033 187.082 38.1966C187.082 37.09 187.315 36.13 187.782 35.3166C188.248 34.5033 188.888 33.87 189.702 33.4166C190.528 32.9633 191.455 32.7366 192.482 32.7366C193.375 32.7366 194.175 32.9366 194.882 33.3366C195.588 33.7233 196.148 34.3166 196.562 35.1166C196.975 35.9166 197.182 36.9433 197.182 38.1966C197.182 39.4366 196.982 40.4633 196.582 41.2766C196.182 42.0766 195.628 42.6766 194.922 43.0766C194.215 43.4766 193.402 43.6766 192.482 43.6766ZM192.782 41.5366C193.382 41.5366 193.915 41.4033 194.382 41.1366C194.862 40.87 195.242 40.4833 195.522 39.9766C195.815 39.47 195.962 38.8766 195.962 38.1966C195.962 37.5033 195.815 36.91 195.522 36.4166C195.242 35.91 194.862 35.5233 194.382 35.2566C193.915 34.99 193.382 34.8566 192.782 34.8566C192.182 34.8566 191.642 34.99 191.162 35.2566C190.695 35.5233 190.315 35.91 190.022 36.4166C189.742 36.91 189.602 37.5033 189.602 38.1966C189.602 38.8766 189.742 39.47 190.022 39.9766C190.315 40.4833 190.695 40.87 191.162 41.1366C191.642 41.4033 192.182 41.5366 192.782 41.5366ZM196.022 43.5366V41.0166L196.122 38.1766L195.922 35.3366V28.6966H198.402V43.5366H196.022ZM211.239 43.6766C210.066 43.6766 209.159 43.3766 208.519 42.7766C207.879 42.1633 207.559 41.2633 207.559 40.0766V30.4966H210.059V40.0166C210.059 40.5233 210.186 40.9166 210.439 41.1966C210.706 41.4766 211.073 41.6166 211.539 41.6166C212.099 41.6166 212.566 41.47 212.939 41.1766L213.639 42.9566C213.346 43.1966 212.986 43.3766 212.559 43.4966C212.133 43.6166 211.693 43.6766 211.239 43.6766ZM205.799 34.9366V32.9366H212.919V34.9366H205.799ZM221.756 32.7366C222.609 32.7366 223.369 32.9033 224.036 33.2366C224.716 33.57 225.249 34.0833 225.636 34.7766C226.023 35.4566 226.216 36.3366 226.216 37.4166V43.5366H223.716V37.7366C223.716 36.79 223.489 36.0833 223.036 35.6166C222.596 35.15 221.976 34.9166 221.176 34.9166C220.589 34.9166 220.069 35.0366 219.616 35.2766C219.163 35.5166 218.809 35.8766 218.556 36.3566C218.316 36.8233 218.196 37.4166 218.196 38.1366V43.5366H215.696V28.6966H218.196V35.7366L217.656 34.8566C218.029 34.1766 218.569 33.6566 219.276 33.2966C219.996 32.9233 220.823 32.7366 221.756 32.7366ZM234.427 43.6766C233.24 43.6766 232.2 43.4433 231.307 42.9766C230.427 42.4966 229.74 41.8433 229.247 41.0166C228.767 40.19 228.527 39.25 228.527 38.1966C228.527 37.13 228.76 36.19 229.227 35.3766C229.707 34.55 230.36 33.9033 231.187 33.4366C232.027 32.97 232.98 32.7366 234.047 32.7366C235.087 32.7366 236.014 32.9633 236.827 33.4166C237.64 33.87 238.28 34.51 238.747 35.3366C239.214 36.1633 239.447 37.1366 239.447 38.2566C239.447 38.3633 239.44 38.4833 239.427 38.6166C239.427 38.75 239.42 38.8766 239.407 38.9966H230.507V37.3366H238.087L237.107 37.8566C237.12 37.2433 236.994 36.7033 236.727 36.2366C236.46 35.77 236.094 35.4033 235.627 35.1366C235.174 34.87 234.647 34.7366 234.047 34.7366C233.434 34.7366 232.894 34.87 232.427 35.1366C231.974 35.4033 231.614 35.7766 231.347 36.2566C231.094 36.7233 230.967 37.2766 230.967 37.9166V38.3166C230.967 38.9566 231.114 39.5233 231.407 40.0166C231.7 40.51 232.114 40.89 232.647 41.1566C233.18 41.4233 233.794 41.5566 234.487 41.5566C235.087 41.5566 235.627 41.4633 236.107 41.2766C236.587 41.09 237.014 40.7966 237.387 40.3966L238.727 41.9366C238.247 42.4966 237.64 42.93 236.907 43.2366C236.187 43.53 235.36 43.6766 234.427 43.6766ZM251.896 43.6766C250.869 43.6766 249.942 43.45 249.116 42.9966C248.302 42.53 247.662 41.89 247.196 41.0766C246.729 40.2633 246.496 39.3033 246.496 38.1966C246.496 37.09 246.729 36.13 247.196 35.3166C247.662 34.5033 248.302 33.87 249.116 33.4166C249.942 32.9633 250.869 32.7366 251.896 32.7366C252.789 32.7366 253.589 32.9366 254.296 33.3366C255.002 33.7233 255.562 34.3166 255.976 35.1166C256.389 35.9166 256.596 36.9433 256.596 38.1966C256.596 39.4366 256.396 40.4633 255.996 41.2766C255.596 42.0766 255.042 42.6766 254.336 43.0766C253.629 43.4766 252.816 43.6766 251.896 43.6766ZM252.196 41.5366C252.796 41.5366 253.329 41.4033 253.796 41.1366C254.276 40.87 254.656 40.4833 254.936 39.9766C255.229 39.47 255.376 38.8766 255.376 38.1966C255.376 37.5033 255.229 36.91 254.936 36.4166C254.656 35.91 254.276 35.5233 253.796 35.2566C253.329 34.99 252.796 34.8566 252.196 34.8566C251.596 34.8566 251.056 34.99 250.576 35.2566C250.109 35.5233 249.729 35.91 249.436 36.4166C249.156 36.91 249.016 37.5033 249.016 38.1966C249.016 38.8766 249.156 39.47 249.436 39.9766C249.729 40.4833 250.109 40.87 250.576 41.1366C251.056 41.4033 251.596 41.5366 252.196 41.5366ZM255.436 43.5366V41.0166L255.536 38.1766L255.336 35.3366V28.6966H257.816V43.5366H255.436ZM266.126 43.6766C264.939 43.6766 263.899 43.4433 263.006 42.9766C262.126 42.4966 261.439 41.8433 260.946 41.0166C260.466 40.19 260.226 39.25 260.226 38.1966C260.226 37.13 260.459 36.19 260.926 35.3766C261.406 34.55 262.059 33.9033 262.886 33.4366C263.726 32.97 264.679 32.7366 265.746 32.7366C266.786 32.7366 267.713 32.9633 268.526 33.4166C269.339 33.87 269.979 34.51 270.446 35.3366C270.913 36.1633 271.146 37.1366 271.146 38.2566C271.146 38.3633 271.139 38.4833 271.126 38.6166C271.126 38.75 271.119 38.8766 271.106 38.9966H262.206V37.3366H269.786L268.806 37.8566C268.819 37.2433 268.693 36.7033 268.426 36.2366C268.159 35.77 267.793 35.4033 267.326 35.1366C266.873 34.87 266.346 34.7366 265.746 34.7366C265.133 34.7366 264.593 34.87 264.126 35.1366C263.673 35.4033 263.313 35.7766 263.046 36.2566C262.793 36.7233 262.666 37.2766 262.666 37.9166V38.3166C262.666 38.9566 262.813 39.5233 263.106 40.0166C263.399 40.51 263.813 40.89 264.346 41.1566C264.879 41.4233 265.493 41.5566 266.186 41.5566C266.786 41.5566 267.326 41.4633 267.806 41.2766C268.286 41.09 268.713 40.7966 269.086 40.3966L270.426 41.9366C269.946 42.4966 269.339 42.93 268.606 43.2366C267.886 43.53 267.059 43.6766 266.126 43.6766ZM276.192 43.5366L271.612 32.8566H274.212L278.152 42.2766H276.872L280.952 32.8566H283.352L278.772 43.5366H276.192ZM289.422 43.6766C288.328 43.6766 287.355 43.4433 286.502 42.9766C285.648 42.4966 284.975 41.8433 284.482 41.0166C283.988 40.19 283.742 39.25 283.742 38.1966C283.742 37.13 283.988 36.19 284.482 35.3766C284.975 34.55 285.648 33.9033 286.502 33.4366C287.355 32.97 288.328 32.7366 289.422 32.7366C290.528 32.7366 291.508 32.97 292.362 33.4366C293.228 33.9033 293.902 34.5433 294.382 35.3566C294.875 36.17 295.122 37.1166 295.122 38.1966C295.122 39.25 294.875 40.19 294.382 41.0166C293.902 41.8433 293.228 42.4966 292.362 42.9766C291.508 43.4433 290.528 43.6766 289.422 43.6766ZM289.422 41.5366C290.035 41.5366 290.582 41.4033 291.062 41.1366C291.542 40.87 291.915 40.4833 292.182 39.9766C292.462 39.47 292.602 38.8766 292.602 38.1966C292.602 37.5033 292.462 36.91 292.182 36.4166C291.915 35.91 291.542 35.5233 291.062 35.2566C290.582 34.99 290.042 34.8566 289.442 34.8566C288.828 34.8566 288.282 34.99 287.802 35.2566C287.335 35.5233 286.962 35.91 286.682 36.4166C286.402 36.91 286.262 37.5033 286.262 38.1966C286.262 38.8766 286.402 39.47 286.682 39.9766C286.962 40.4833 287.335 40.87 287.802 41.1366C288.282 41.4033 288.822 41.5366 289.422 41.5366ZM301.532 43.6766C300.359 43.6766 299.452 43.3766 298.812 42.7766C298.172 42.1633 297.852 41.2633 297.852 40.0766V30.4966H300.352V40.0166C300.352 40.5233 300.479 40.9166 300.732 41.1966C300.999 41.4766 301.366 41.6166 301.832 41.6166C302.392 41.6166 302.859 41.47 303.232 41.1766L303.932 42.9566C303.639 43.1966 303.279 43.3766 302.852 43.4966C302.426 43.6166 301.986 43.6766 301.532 43.6766ZM296.092 34.9366V32.9366H303.212V34.9366H296.092ZM305.989 43.5366V32.8566H308.489V43.5366H305.989ZM307.249 31.0966C306.782 31.0966 306.396 30.95 306.089 30.6566C305.796 30.3633 305.649 30.01 305.649 29.5966C305.649 29.17 305.796 28.8166 306.089 28.5366C306.396 28.2433 306.782 28.0966 307.249 28.0966C307.716 28.0966 308.096 28.2366 308.389 28.5166C308.696 28.7833 308.849 29.1233 308.849 29.5366C308.849 29.9766 308.702 30.35 308.409 30.6566C308.116 30.95 307.729 31.0966 307.249 31.0966ZM316.57 43.6766C315.477 43.6766 314.504 43.4433 313.65 42.9766C312.797 42.4966 312.124 41.8433 311.63 41.0166C311.137 40.19 310.89 39.25 310.89 38.1966C310.89 37.13 311.137 36.19 311.63 35.3766C312.124 34.55 312.797 33.9033 313.65 33.4366C314.504 32.97 315.477 32.7366 316.57 32.7366C317.677 32.7366 318.657 32.97 319.51 33.4366C320.377 33.9033 321.05 34.5433 321.53 35.3566C322.024 36.17 322.27 37.1166 322.27 38.1966C322.27 39.25 322.024 40.19 321.53 41.0166C321.05 41.8433 320.377 42.4966 319.51 42.9766C318.657 43.4433 317.677 43.6766 316.57 43.6766ZM316.57 41.5366C317.184 41.5366 317.73 41.4033 318.21 41.1366C318.69 40.87 319.064 40.4833 319.33 39.9766C319.61 39.47 319.75 38.8766 319.75 38.1966C319.75 37.5033 319.61 36.91 319.33 36.4166C319.064 35.91 318.69 35.5233 318.21 35.2566C317.73 34.99 317.19 34.8566 316.59 34.8566C315.977 34.8566 315.43 34.99 314.95 35.2566C314.484 35.5233 314.11 35.91 313.83 36.4166C313.55 36.91 313.41 37.5033 313.41 38.1966C313.41 38.8766 313.55 39.47 313.83 39.9766C314.11 40.4833 314.484 40.87 314.95 41.1366C315.43 41.4033 315.97 41.5366 316.57 41.5366ZM330.721 32.7366C331.574 32.7366 332.334 32.9033 333.001 33.2366C333.681 33.57 334.214 34.0833 334.601 34.7766C334.987 35.4566 335.181 36.3366 335.181 37.4166V43.5366H332.681V37.7366C332.681 36.79 332.454 36.0833 332.001 35.6166C331.561 35.15 330.941 34.9166 330.141 34.9166C329.554 34.9166 329.034 35.0366 328.581 35.2766C328.127 35.5166 327.774 35.8766 327.521 36.3566C327.281 36.8233 327.161 37.4166 327.161 38.1366V43.5366H324.661V32.8566H327.041V35.7366L326.621 34.8566C326.994 34.1766 327.534 33.6566 328.241 33.2966C328.961 32.9233 329.787 32.7366 330.721 32.7366ZM348.68 43.6766C347.586 43.6766 346.613 43.4433 345.76 42.9766C344.906 42.4966 344.233 41.8433 343.74 41.0166C343.246 40.19 343 39.25 343 38.1966C343 37.13 343.246 36.19 343.74 35.3766C344.233 34.55 344.906 33.9033 345.76 33.4366C346.613 32.97 347.586 32.7366 348.68 32.7366C349.786 32.7366 350.766 32.97 351.62 33.4366C352.486 33.9033 353.16 34.5433 353.64 35.3566C354.133 36.17 354.38 37.1166 354.38 38.1966C354.38 39.25 354.133 40.19 353.64 41.0166C353.16 41.8433 352.486 42.4966 351.62 42.9766C350.766 43.4433 349.786 43.6766 348.68 43.6766ZM348.68 41.5366C349.293 41.5366 349.84 41.4033 350.32 41.1366C350.8 40.87 351.173 40.4833 351.44 39.9766C351.72 39.47 351.86 38.8766 351.86 38.1966C351.86 37.5033 351.72 36.91 351.44 36.4166C351.173 35.91 350.8 35.5233 350.32 35.2566C349.84 34.99 349.3 34.8566 348.7 34.8566C348.086 34.8566 347.54 34.99 347.06 35.2566C346.593 35.5233 346.22 35.91 345.94 36.4166C345.66 36.91 345.52 37.5033 345.52 38.1966C345.52 38.8766 345.66 39.47 345.94 39.9766C346.22 40.4833 346.593 40.87 347.06 41.1366C347.54 41.4033 348.08 41.5366 348.68 41.5366ZM357.11 43.5366V32.2566C357.11 31.1366 357.437 30.2433 358.09 29.5766C358.757 28.8966 359.704 28.5566 360.93 28.5566C361.37 28.5566 361.784 28.6033 362.17 28.6966C362.57 28.79 362.904 28.9366 363.17 29.1366L362.49 31.0166C362.304 30.87 362.09 30.7633 361.85 30.6966C361.61 30.6166 361.364 30.5766 361.11 30.5766C360.59 30.5766 360.197 30.7233 359.93 31.0166C359.664 31.2966 359.53 31.7233 359.53 32.2966V33.4966L359.61 34.6166V43.5366H357.11ZM355.35 34.9366V32.9366H362.47V34.9366H355.35ZM376.26 43.5366V41.3766L376.12 40.9166V37.1366C376.12 36.4033 375.9 35.8366 375.46 35.4366C375.02 35.0233 374.354 34.8166 373.46 34.8166C372.86 34.8166 372.267 34.91 371.68 35.0966C371.107 35.2833 370.62 35.5433 370.22 35.8766L369.24 34.0566C369.814 33.6166 370.494 33.29 371.28 33.0766C372.08 32.85 372.907 32.7366 373.76 32.7366C375.307 32.7366 376.5 33.11 377.34 33.8566C378.194 34.59 378.62 35.73 378.62 37.2766V43.5366H376.26ZM372.9 43.6766C372.1 43.6766 371.4 43.5433 370.8 43.2766C370.2 42.9966 369.734 42.6166 369.4 42.1366C369.08 41.6433 368.92 41.09 368.92 40.4766C368.92 39.8766 369.06 39.3366 369.34 38.8566C369.634 38.3766 370.107 37.9966 370.76 37.7166C371.414 37.4366 372.28 37.2966 373.36 37.2966H376.46V38.9566H373.54C372.687 38.9566 372.114 39.0966 371.82 39.3766C371.527 39.6433 371.38 39.9766 371.38 40.3766C371.38 40.83 371.56 41.19 371.92 41.4566C372.28 41.7233 372.78 41.8566 373.42 41.8566C374.034 41.8566 374.58 41.7166 375.06 41.4366C375.554 41.1566 375.907 40.7433 376.12 40.1966L376.54 41.6966C376.3 42.3233 375.867 42.81 375.24 43.1566C374.627 43.5033 373.847 43.6766 372.9 43.6766ZM185.315 67.5366V52.6966H187.815V67.5366H185.315ZM191.096 67.5366V56.8566H193.596V67.5366H191.096ZM192.356 55.0966C191.89 55.0966 191.503 54.95 191.196 54.6566C190.903 54.3633 190.756 54.01 190.756 53.5966C190.756 53.17 190.903 52.8166 191.196 52.5366C191.503 52.2433 191.89 52.0966 192.356 52.0966C192.823 52.0966 193.203 52.2366 193.496 52.5166C193.803 52.7833 193.956 53.1233 193.956 53.5366C193.956 53.9766 193.81 54.35 193.516 54.6566C193.223 54.95 192.836 55.0966 192.356 55.0966ZM197.218 67.5366V56.2566C197.218 55.1366 197.544 54.2433 198.198 53.5766C198.864 52.8966 199.811 52.5566 201.038 52.5566C201.478 52.5566 201.891 52.6033 202.278 52.6966C202.678 52.79 203.011 52.9366 203.278 53.1366L202.598 55.0166C202.411 54.87 202.198 54.7633 201.958 54.6966C201.718 54.6166 201.471 54.5766 201.218 54.5766C200.698 54.5766 200.304 54.7233 200.038 55.0166C199.771 55.2966 199.638 55.7233 199.638 56.2966V57.4966L199.718 58.6166V67.5366H197.218ZM195.458 58.9366V56.9366H202.578V58.9366H195.458ZM209.124 67.6766C207.937 67.6766 206.897 67.4433 206.004 66.9766C205.124 66.4966 204.437 65.8433 203.944 65.0166C203.464 64.19 203.224 63.25 203.224 62.1966C203.224 61.13 203.457 60.19 203.924 59.3766C204.404 58.55 205.057 57.9033 205.884 57.4366C206.724 56.97 207.677 56.7366 208.744 56.7366C209.784 56.7366 210.711 56.9633 211.524 57.4166C212.337 57.87 212.977 58.51 213.444 59.3366C213.911 60.1633 214.144 61.1366 214.144 62.2566C214.144 62.3633 214.137 62.4833 214.124 62.6166C214.124 62.75 214.117 62.8766 214.104 62.9966H205.204V61.3366H212.784L211.804 61.8566C211.817 61.2433 211.691 60.7033 211.424 60.2366C211.157 59.77 210.791 59.4033 210.324 59.1366C209.871 58.87 209.344 58.7366 208.744 58.7366C208.131 58.7366 207.591 58.87 207.124 59.1366C206.671 59.4033 206.311 59.7766 206.044 60.2566C205.791 60.7233 205.664 61.2766 205.664 61.9166V62.3166C205.664 62.9566 205.811 63.5233 206.104 64.0166C206.397 64.51 206.811 64.89 207.344 65.1566C207.877 65.4233 208.491 65.5566 209.184 65.5566C209.784 65.5566 210.324 65.4633 210.804 65.2766C211.284 65.09 211.711 64.7966 212.084 64.3966L213.424 65.9366C212.944 66.4966 212.337 66.93 211.604 67.2366C210.884 67.53 210.057 67.6766 209.124 67.6766ZM220.566 67.6766C219.392 67.6766 218.486 67.3766 217.846 66.7766C217.206 66.1633 216.886 65.2633 216.886 64.0766V54.4966H219.386V64.0166C219.386 64.5233 219.512 64.9166 219.766 65.1966C220.032 65.4766 220.399 65.6166 220.866 65.6166C221.426 65.6166 221.892 65.47 222.266 65.1766L222.966 66.9566C222.672 67.1966 222.312 67.3766 221.886 67.4966C221.459 67.6166 221.019 67.6766 220.566 67.6766ZM215.126 58.9366V56.9366H222.246V58.9366H215.126ZM225.022 67.5366V56.8566H227.522V67.5366H225.022ZM226.282 55.0966C225.815 55.0966 225.429 54.95 225.122 54.6566C224.829 54.3633 224.682 54.01 224.682 53.5966C224.682 53.17 224.829 52.8166 225.122 52.5366C225.429 52.2433 225.815 52.0966 226.282 52.0966C226.749 52.0966 227.129 52.2366 227.422 52.5166C227.729 52.7833 227.882 53.1233 227.882 53.5366C227.882 53.9766 227.735 54.35 227.442 54.6566C227.149 54.95 226.762 55.0966 226.282 55.0966ZM244.283 56.7366C245.137 56.7366 245.89 56.9033 246.543 57.2366C247.21 57.57 247.73 58.0833 248.103 58.7766C248.477 59.4566 248.663 60.3366 248.663 61.4166V67.5366H246.163V61.7366C246.163 60.79 245.957 60.0833 245.543 59.6166C245.13 59.15 244.537 58.9166 243.763 58.9166C243.217 58.9166 242.73 59.0366 242.303 59.2766C241.89 59.5166 241.563 59.87 241.323 60.3366C241.097 60.8033 240.983 61.3966 240.983 62.1166V67.5366H238.483V61.7366C238.483 60.79 238.277 60.0833 237.863 59.6166C237.45 59.15 236.857 58.9166 236.083 58.9166C235.537 58.9166 235.05 59.0366 234.623 59.2766C234.21 59.5166 233.883 59.87 233.643 60.3366C233.417 60.8033 233.303 61.3966 233.303 62.1166V67.5366H230.803V56.8566H233.183V59.6966L232.763 58.8566C233.123 58.1633 233.643 57.6366 234.323 57.2766C235.017 56.9166 235.803 56.7366 236.683 56.7366C237.683 56.7366 238.55 56.9833 239.283 57.4766C240.03 57.97 240.523 58.7166 240.763 59.7166L239.783 59.3766C240.13 58.5766 240.703 57.9366 241.503 57.4566C242.303 56.9766 243.23 56.7366 244.283 56.7366ZM256.898 67.6766C255.711 67.6766 254.671 67.4433 253.778 66.9766C252.898 66.4966 252.211 65.8433 251.718 65.0166C251.238 64.19 250.998 63.25 250.998 62.1966C250.998 61.13 251.231 60.19 251.698 59.3766C252.178 58.55 252.831 57.9033 253.658 57.4366C254.498 56.97 255.451 56.7366 256.518 56.7366C257.558 56.7366 258.484 56.9633 259.298 57.4166C260.111 57.87 260.751 58.51 261.218 59.3366C261.684 60.1633 261.918 61.1366 261.918 62.2566C261.918 62.3633 261.911 62.4833 261.898 62.6166C261.898 62.75 261.891 62.8766 261.878 62.9966H252.978V61.3366H260.558L259.578 61.8566C259.591 61.2433 259.464 60.7033 259.198 60.2366C258.931 59.77 258.564 59.4033 258.098 59.1366C257.644 58.87 257.118 58.7366 256.518 58.7366C255.904 58.7366 255.364 58.87 254.898 59.1366C254.444 59.4033 254.084 59.7766 253.818 60.2566C253.564 60.7233 253.438 61.2766 253.438 61.9166V62.3166C253.438 62.9566 253.584 63.5233 253.878 64.0166C254.171 64.51 254.584 64.89 255.118 65.1566C255.651 65.4233 256.264 65.5566 256.958 65.5566C257.558 65.5566 258.098 65.4633 258.578 65.2766C259.058 65.09 259.484 64.7966 259.858 64.3966L261.198 65.9366C260.718 66.4966 260.111 66.93 259.378 67.2366C258.658 67.53 257.831 67.6766 256.898 67.6766Z" fill="#D9CEE0"/>
<path d="M11.634 19.3621L14.45 9.18607H8.11405L4.40205 18.4021C2.93005 21.9221 2.67405 23.1381 2.67405 24.8021C2.67405 28.4501 5.29805 30.9461 8.88205 30.9461C12.402 30.9461 15.026 28.5141 15.026 24.8021C15.026 22.1781 13.746 20.2581 11.634 19.3621ZM26.738 19.3621L29.554 9.18607H23.218L19.506 18.4021C18.034 21.9221 17.778 23.1381 17.778 24.8021C17.778 28.4501 20.402 30.9461 23.986 30.9461C27.506 30.9461 30.13 28.5141 30.13 24.8021C30.13 22.1781 28.85 20.2581 26.738 19.3621Z" fill="#C8703A"/>
<path d="M424.212 46.0847L421.396 56.2607L427.732 56.2607L431.444 47.0447C432.916 43.5247 433.172 42.3087 433.172 40.6447C433.172 36.9967 430.548 34.5007 426.964 34.5007C423.444 34.5007 420.82 36.9327 420.82 40.6447C420.82 43.2687 422.1 45.1887 424.212 46.0847ZM409.108 46.0847L406.292 56.2607L412.628 56.2607L416.34 47.0447C417.812 43.5247 418.068 42.3087 418.068 40.6447C418.068 36.9967 415.444 34.5007 411.86 34.5007C408.34 34.5007 405.716 36.9327 405.716 40.6447C405.716 43.2687 406.996 45.1887 409.108 46.0847Z" fill="#C8703A"/>
</svg>
