<svg width="436" height="73" viewBox="0 0 436 73" fill="none" xmlns="http://www.w3.org/2000/svg">
<path d="M73.038 19.6095L79.338 5.6095H81.898L88.218 19.6095H85.498L80.078 6.9895H81.118L75.718 19.6095H73.038ZM75.938 16.3695L76.638 14.3295H84.198L84.898 16.3695H75.938ZM95.6258 19.6095V8.3295C95.6258 7.2095 95.9525 6.31616 96.6058 5.6495C97.2725 4.9695 98.2191 4.6295 99.4458 4.6295C99.8858 4.6295 100.299 4.67616 100.686 4.7695C101.086 4.86283 101.419 5.0095 101.686 5.2095L101.006 7.0895C100.819 6.94283 100.606 6.83616 100.366 6.7695C100.126 6.6895 99.8791 6.6495 99.6258 6.6495C99.1058 6.6495 98.7125 6.79616 98.4458 7.0895C98.1791 7.3695 98.0458 7.79616 98.0458 8.3695V9.5695L98.1258 10.6895V19.6095H95.6258ZM93.8658 11.0095V9.0095H100.986V11.0095H93.8658ZM102.746 19.6095V8.9295H105.246V19.6095H102.746ZM104.006 7.1695C103.539 7.1695 103.152 7.02283 102.846 6.7295C102.552 6.43616 102.406 6.08283 102.406 5.6695C102.406 5.24283 102.552 4.8895 102.846 4.6095C103.152 4.31616 103.539 4.1695 104.006 4.1695C104.472 4.1695 104.852 4.3095 105.146 4.5895C105.452 4.85616 105.606 5.19616 105.606 5.6095C105.606 6.0495 105.459 6.42283 105.166 6.7295C104.872 7.02283 104.486 7.1695 104.006 7.1695ZM113.548 19.7495C112.361 19.7495 111.321 19.5162 110.428 19.0495C109.548 18.5695 108.861 17.9162 108.368 17.0895C107.888 16.2628 107.648 15.3228 107.648 14.2695C107.648 13.2028 107.881 12.2628 108.348 11.4495C108.828 10.6228 109.481 9.97616 110.308 9.5095C111.148 9.04283 112.101 8.8095 113.168 8.8095C114.208 8.8095 115.135 9.03616 115.948 9.4895C116.761 9.94283 117.401 10.5828 117.868 11.4095C118.335 12.2362 118.568 13.2095 118.568 14.3295C118.568 14.4362 118.561 14.5562 118.548 14.6895C118.548 14.8228 118.541 14.9495 118.528 15.0695H109.628V13.4095H117.208L116.228 13.9295C116.241 13.3162 116.115 12.7762 115.848 12.3095C115.581 11.8428 115.215 11.4762 114.748 11.2095C114.295 10.9428 113.768 10.8095 113.168 10.8095C112.555 10.8095 112.015 10.9428 111.548 11.2095C111.095 11.4762 110.735 11.8495 110.468 12.3295C110.215 12.7962 110.088 13.3495 110.088 13.9895V14.3895C110.088 15.0295 110.235 15.5962 110.528 16.0895C110.821 16.5828 111.235 16.9628 111.768 17.2295C112.301 17.4962 112.915 17.6295 113.608 17.6295C114.208 17.6295 114.748 17.5362 115.228 17.3495C115.708 17.1628 116.135 16.8695 116.508 16.4695L117.848 18.0095C117.368 18.5695 116.761 19.0028 116.028 19.3095C115.308 19.6028 114.481 19.7495 113.548 19.7495ZM120.969 19.6095V4.7695H123.469V19.6095H120.969ZM131.271 19.7495C130.244 19.7495 129.317 19.5228 128.491 19.0695C127.677 18.6028 127.037 17.9628 126.571 17.1495C126.104 16.3362 125.871 15.3762 125.871 14.2695C125.871 13.1628 126.104 12.2028 126.571 11.3895C127.037 10.5762 127.677 9.94283 128.491 9.4895C129.317 9.03616 130.244 8.8095 131.271 8.8095C132.164 8.8095 132.964 9.0095 133.671 9.4095C134.377 9.79616 134.937 10.3895 135.351 11.1895C135.764 11.9895 135.971 13.0162 135.971 14.2695C135.971 15.5095 135.771 16.5362 135.371 17.3495C134.971 18.1495 134.417 18.7495 133.711 19.1495C133.004 19.5495 132.191 19.7495 131.271 19.7495ZM131.571 17.6095C132.171 17.6095 132.704 17.4762 133.171 17.2095C133.651 16.9428 134.031 16.5562 134.311 16.0495C134.604 15.5428 134.751 14.9495 134.751 14.2695C134.751 13.5762 134.604 12.9828 134.311 12.4895C134.031 11.9828 133.651 11.5962 133.171 11.3295C132.704 11.0628 132.171 10.9295 131.571 10.9295C130.971 10.9295 130.431 11.0628 129.951 11.3295C129.484 11.5962 129.104 11.9828 128.811 12.4895C128.531 12.9828 128.391 13.5762 128.391 14.2695C128.391 14.9495 128.531 15.5428 128.811 16.0495C129.104 16.5562 129.484 16.9428 129.951 17.2095C130.431 17.4762 130.971 17.6095 131.571 17.6095ZM134.811 19.6095V17.0895L134.911 14.2495L134.711 11.4095V4.7695H137.191V19.6095H134.811ZM150.808 19.7495C149.715 19.7495 148.742 19.5162 147.888 19.0495C147.035 18.5695 146.362 17.9162 145.868 17.0895C145.375 16.2628 145.128 15.3228 145.128 14.2695C145.128 13.2028 145.375 12.2628 145.868 11.4495C146.362 10.6228 147.035 9.97616 147.888 9.5095C148.742 9.04283 149.715 8.8095 150.808 8.8095C151.915 8.8095 152.895 9.04283 153.748 9.5095C154.615 9.97616 155.288 10.6162 155.768 11.4295C156.262 12.2428 156.508 13.1895 156.508 14.2695C156.508 15.3228 156.262 16.2628 155.768 17.0895C155.288 17.9162 154.615 18.5695 153.748 19.0495C152.895 19.5162 151.915 19.7495 150.808 19.7495ZM150.808 17.6095C151.422 17.6095 151.968 17.4762 152.448 17.2095C152.928 16.9428 153.302 16.5562 153.568 16.0495C153.848 15.5428 153.988 14.9495 153.988 14.2695C153.988 13.5762 153.848 12.9828 153.568 12.4895C153.302 11.9828 152.928 11.5962 152.448 11.3295C151.968 11.0628 151.428 10.9295 150.828 10.9295C150.215 10.9295 149.668 11.0628 149.188 11.3295C148.722 11.5962 148.348 11.9828 148.068 12.4895C147.788 12.9828 147.648 13.5762 147.648 14.2695C147.648 14.9495 147.788 15.5428 148.068 16.0495C148.348 16.5562 148.722 16.9428 149.188 17.2095C149.668 17.4762 150.208 17.6095 150.808 17.6095ZM159.239 19.6095V8.3295C159.239 7.2095 159.566 6.31616 160.219 5.6495C160.886 4.9695 161.832 4.6295 163.059 4.6295C163.499 4.6295 163.912 4.67616 164.299 4.7695C164.699 4.86283 165.032 5.0095 165.299 5.2095L164.619 7.0895C164.432 6.94283 164.219 6.83616 163.979 6.7695C163.739 6.6895 163.492 6.6495 163.239 6.6495C162.719 6.6495 162.326 6.79616 162.059 7.0895C161.792 7.3695 161.659 7.79616 161.659 8.3695V9.5695L161.739 10.6895V19.6095H159.239ZM157.479 11.0095V9.0095H164.599V11.0095H157.479ZM176.709 19.7495C175.589 19.7495 174.589 19.5162 173.709 19.0495C172.843 18.5695 172.163 17.9162 171.669 17.0895C171.176 16.2628 170.929 15.3228 170.929 14.2695C170.929 13.2028 171.176 12.2628 171.669 11.4495C172.163 10.6228 172.843 9.97616 173.709 9.5095C174.589 9.04283 175.589 8.8095 176.709 8.8095C177.749 8.8095 178.663 9.02283 179.449 9.4495C180.249 9.86283 180.856 10.4762 181.269 11.2895L179.349 12.4095C179.029 11.9028 178.636 11.5295 178.169 11.2895C177.716 11.0495 177.223 10.9295 176.689 10.9295C176.076 10.9295 175.523 11.0628 175.029 11.3295C174.536 11.5962 174.149 11.9828 173.869 12.4895C173.589 12.9828 173.449 13.5762 173.449 14.2695C173.449 14.9628 173.589 15.5628 173.869 16.0695C174.149 16.5628 174.536 16.9428 175.029 17.2095C175.523 17.4762 176.076 17.6095 176.689 17.6095C177.223 17.6095 177.716 17.4895 178.169 17.2495C178.636 17.0095 179.029 16.6362 179.349 16.1295L181.269 17.2495C180.856 18.0495 180.249 18.6695 179.449 19.1095C178.663 19.5362 177.749 19.7495 176.709 19.7495ZM183.333 19.6095V4.7695H185.833V19.6095H183.333ZM195.694 19.6095V17.4495L195.554 16.9895V13.2095C195.554 12.4762 195.334 11.9095 194.894 11.5095C194.454 11.0962 193.787 10.8895 192.894 10.8895C192.294 10.8895 191.701 10.9828 191.114 11.1695C190.541 11.3562 190.054 11.6162 189.654 11.9495L188.674 10.1295C189.247 9.6895 189.927 9.36283 190.714 9.1495C191.514 8.92283 192.341 8.8095 193.194 8.8095C194.741 8.8095 195.934 9.18283 196.774 9.9295C197.627 10.6628 198.054 11.8028 198.054 13.3495V19.6095H195.694ZM192.334 19.7495C191.534 19.7495 190.834 19.6162 190.234 19.3495C189.634 19.0695 189.167 18.6895 188.834 18.2095C188.514 17.7162 188.354 17.1628 188.354 16.5495C188.354 15.9495 188.494 15.4095 188.774 14.9295C189.067 14.4495 189.541 14.0695 190.194 13.7895C190.847 13.5095 191.714 13.3695 192.794 13.3695H195.894V15.0295H192.974C192.121 15.0295 191.547 15.1695 191.254 15.4495C190.961 15.7162 190.814 16.0495 190.814 16.4495C190.814 16.9028 190.994 17.2628 191.354 17.5295C191.714 17.7962 192.214 17.9295 192.854 17.9295C193.467 17.9295 194.014 17.7895 194.494 17.5095C194.987 17.2295 195.341 16.8162 195.554 16.2695L195.974 17.7695C195.734 18.3962 195.301 18.8828 194.674 19.2295C194.061 19.5762 193.281 19.7495 192.334 19.7495ZM201.947 23.6295C201.427 23.6295 200.907 23.5428 200.387 23.3695C199.867 23.1962 199.434 22.9562 199.087 22.6495L200.087 20.8095C200.34 21.0362 200.627 21.2162 200.947 21.3495C201.267 21.4828 201.594 21.5495 201.927 21.5495C202.38 21.5495 202.747 21.4362 203.027 21.2095C203.307 20.9828 203.567 20.6028 203.807 20.0695L204.427 18.6695L204.627 18.3695L208.667 8.9295H211.067L206.067 20.4695C205.734 21.2695 205.36 21.9028 204.947 22.3695C204.547 22.8362 204.094 23.1628 203.587 23.3495C203.094 23.5362 202.547 23.6295 201.947 23.6295ZM204.147 19.9895L199.327 8.9295H201.927L205.847 18.1495L204.147 19.9895ZM222.177 19.7495C221.004 19.7495 220.097 19.4495 219.457 18.8495C218.817 18.2362 218.497 17.3362 218.497 16.1495V6.5695H220.997V16.0895C220.997 16.5962 221.124 16.9895 221.377 17.2695C221.644 17.5495 222.01 17.6895 222.477 17.6895C223.037 17.6895 223.504 17.5428 223.877 17.2495L224.577 19.0295C224.284 19.2695 223.924 19.4495 223.497 19.5695C223.07 19.6895 222.63 19.7495 222.177 19.7495ZM216.737 11.0095V9.0095H223.857V11.0095H216.737ZM231.082 19.7495C229.989 19.7495 229.015 19.5162 228.162 19.0495C227.309 18.5695 226.635 17.9162 226.142 17.0895C225.649 16.2628 225.402 15.3228 225.402 14.2695C225.402 13.2028 225.649 12.2628 226.142 11.4495C226.635 10.6228 227.309 9.97616 228.162 9.5095C229.015 9.04283 229.989 8.8095 231.082 8.8095C232.189 8.8095 233.169 9.04283 234.022 9.5095C234.889 9.97616 235.562 10.6162 236.042 11.4295C236.535 12.2428 236.782 13.1895 236.782 14.2695C236.782 15.3228 236.535 16.2628 236.042 17.0895C235.562 17.9162 234.889 18.5695 234.022 19.0495C233.169 19.5162 232.189 19.7495 231.082 19.7495ZM231.082 17.6095C231.695 17.6095 232.242 17.4762 232.722 17.2095C233.202 16.9428 233.575 16.5562 233.842 16.0495C234.122 15.5428 234.262 14.9495 234.262 14.2695C234.262 13.5762 234.122 12.9828 233.842 12.4895C233.575 11.9828 233.202 11.5962 232.722 11.3295C232.242 11.0628 231.702 10.9295 231.102 10.9295C230.489 10.9295 229.942 11.0628 229.462 11.3295C228.995 11.5962 228.622 11.9828 228.342 12.4895C228.062 12.9828 227.922 13.5762 227.922 14.2695C227.922 14.9495 228.062 15.5428 228.342 16.0495C228.622 16.5562 228.995 16.9428 229.462 17.2095C229.942 17.4762 230.482 17.6095 231.082 17.6095ZM243.693 19.7495C242.786 19.7495 241.986 19.5828 241.293 19.2495C240.599 18.9028 240.059 18.3828 239.673 17.6895C239.286 16.9828 239.093 16.0962 239.093 15.0295V8.9295H241.593V14.6895C241.593 15.6495 241.806 16.3695 242.233 16.8495C242.673 17.3162 243.293 17.5495 244.093 17.5495C244.679 17.5495 245.186 17.4295 245.613 17.1895C246.053 16.9495 246.393 16.5895 246.633 16.1095C246.886 15.6295 247.013 15.0362 247.013 14.3295V8.9295H249.513V19.6095H247.133V16.7295L247.553 17.6095C247.193 18.3028 246.666 18.8362 245.973 19.2095C245.279 19.5695 244.519 19.7495 243.693 19.7495ZM257.686 19.7495C256.566 19.7495 255.566 19.5162 254.686 19.0495C253.819 18.5695 253.139 17.9162 252.646 17.0895C252.152 16.2628 251.906 15.3228 251.906 14.2695C251.906 13.2028 252.152 12.2628 252.646 11.4495C253.139 10.6228 253.819 9.97616 254.686 9.5095C255.566 9.04283 256.566 8.8095 257.686 8.8095C258.726 8.8095 259.639 9.02283 260.426 9.4495C261.226 9.86283 261.832 10.4762 262.246 11.2895L260.326 12.4095C260.006 11.9028 259.612 11.5295 259.146 11.2895C258.692 11.0495 258.199 10.9295 257.666 10.9295C257.052 10.9295 256.499 11.0628 256.006 11.3295C255.512 11.5962 255.126 11.9828 254.846 12.4895C254.566 12.9828 254.426 13.5762 254.426 14.2695C254.426 14.9628 254.566 15.5628 254.846 16.0695C255.126 16.5628 255.512 16.9428 256.006 17.2095C256.499 17.4762 257.052 17.6095 257.666 17.6095C258.199 17.6095 258.692 17.4895 259.146 17.2495C259.612 17.0095 260.006 16.6362 260.326 16.1295L262.246 17.2495C261.832 18.0495 261.226 18.6695 260.426 19.1095C259.639 19.5362 258.726 19.7495 257.686 19.7495ZM270.369 8.8095C271.223 8.8095 271.983 8.97616 272.649 9.3095C273.329 9.64283 273.863 10.1562 274.249 10.8495C274.636 11.5295 274.829 12.4095 274.829 13.4895V19.6095H272.329V13.8095C272.329 12.8628 272.103 12.1562 271.649 11.6895C271.209 11.2228 270.589 10.9895 269.789 10.9895C269.203 10.9895 268.683 11.1095 268.229 11.3495C267.776 11.5895 267.423 11.9495 267.169 12.4295C266.929 12.8962 266.809 13.4895 266.809 14.2095V19.6095H264.309V4.7695H266.809V11.8095L266.269 10.9295C266.643 10.2495 267.183 9.7295 267.889 9.3695C268.609 8.99616 269.436 8.8095 270.369 8.8095ZM283.04 19.7495C281.854 19.7495 280.814 19.5162 279.92 19.0495C279.04 18.5695 278.354 17.9162 277.86 17.0895C277.38 16.2628 277.14 15.3228 277.14 14.2695C277.14 13.2028 277.374 12.2628 277.84 11.4495C278.32 10.6228 278.974 9.97616 279.8 9.5095C280.64 9.04283 281.594 8.8095 282.66 8.8095C283.7 8.8095 284.627 9.03616 285.44 9.4895C286.254 9.94283 286.894 10.5828 287.36 11.4095C287.827 12.2362 288.06 13.2095 288.06 14.3295C288.06 14.4362 288.054 14.5562 288.04 14.6895C288.04 14.8228 288.034 14.9495 288.02 15.0695H279.12V13.4095H286.7L285.72 13.9295C285.734 13.3162 285.607 12.7762 285.34 12.3095C285.074 11.8428 284.707 11.4762 284.24 11.2095C283.787 10.9428 283.26 10.8095 282.66 10.8095C282.047 10.8095 281.507 10.9428 281.04 11.2095C280.587 11.4762 280.227 11.8495 279.96 12.3295C279.707 12.7962 279.58 13.3495 279.58 13.9895V14.3895C279.58 15.0295 279.727 15.5962 280.02 16.0895C280.314 16.5828 280.727 16.9628 281.26 17.2295C281.794 17.4962 282.407 17.6295 283.1 17.6295C283.7 17.6295 284.24 17.5362 284.72 17.3495C285.2 17.1628 285.627 16.8695 286 16.4695L287.34 18.0095C286.86 18.5695 286.254 19.0028 285.52 19.3095C284.8 19.6028 283.974 19.7495 283.04 19.7495ZM294.982 19.7495C293.955 19.7495 293.028 19.5228 292.202 19.0695C291.388 18.6028 290.748 17.9628 290.282 17.1495C289.815 16.3362 289.582 15.3762 289.582 14.2695C289.582 13.1628 289.815 12.2028 290.282 11.3895C290.748 10.5762 291.388 9.94283 292.202 9.4895C293.028 9.03616 293.955 8.8095 294.982 8.8095C295.875 8.8095 296.675 9.0095 297.382 9.4095C298.088 9.79616 298.648 10.3895 299.062 11.1895C299.475 11.9895 299.682 13.0162 299.682 14.2695C299.682 15.5095 299.482 16.5362 299.082 17.3495C298.682 18.1495 298.128 18.7495 297.422 19.1495C296.715 19.5495 295.902 19.7495 294.982 19.7495ZM295.282 17.6095C295.882 17.6095 296.415 17.4762 296.882 17.2095C297.362 16.9428 297.742 16.5562 298.022 16.0495C298.315 15.5428 298.462 14.9495 298.462 14.2695C298.462 13.5762 298.315 12.9828 298.022 12.4895C297.742 11.9828 297.362 11.5962 296.882 11.3295C296.415 11.0628 295.882 10.9295 295.282 10.9295C294.682 10.9295 294.142 11.0628 293.662 11.3295C293.195 11.5962 292.815 11.9828 292.522 12.4895C292.242 12.9828 292.102 13.5762 292.102 14.2695C292.102 14.9495 292.242 15.5428 292.522 16.0495C292.815 16.5562 293.195 16.9428 293.662 17.2095C294.142 17.4762 294.682 17.6095 295.282 17.6095ZM298.522 19.6095V17.0895L298.622 14.2495L298.422 11.4095V4.7695H300.902V19.6095H298.522ZM315.639 19.7495C314.733 19.7495 313.926 19.5495 313.219 19.1495C312.513 18.7495 311.953 18.1495 311.539 17.3495C311.139 16.5362 310.939 15.5095 310.939 14.2695C310.939 13.0162 311.146 11.9895 311.559 11.1895C311.986 10.3895 312.553 9.79616 313.259 9.4095C313.979 9.0095 314.773 8.8095 315.639 8.8095C316.693 8.8095 317.619 9.03616 318.419 9.4895C319.233 9.94283 319.873 10.5762 320.339 11.3895C320.819 12.2028 321.059 13.1628 321.059 14.2695C321.059 15.3762 320.819 16.3362 320.339 17.1495C319.873 17.9628 319.233 18.6028 318.419 19.0695C317.619 19.5228 316.693 19.7495 315.639 19.7495ZM309.719 19.6095V4.7695H312.219V11.4095L312.019 14.2495L312.099 17.0895V19.6095H309.719ZM315.359 17.6095C315.959 17.6095 316.493 17.4762 316.959 17.2095C317.439 16.9428 317.819 16.5562 318.099 16.0495C318.379 15.5428 318.519 14.9495 318.519 14.2695C318.519 13.5762 318.379 12.9828 318.099 12.4895C317.819 11.9828 317.439 11.5962 316.959 11.3295C316.493 11.0628 315.959 10.9295 315.359 10.9295C314.759 10.9295 314.219 11.0628 313.739 11.3295C313.259 11.5962 312.879 11.9828 312.599 12.4895C312.319 12.9828 312.179 13.5762 312.179 14.2695C312.179 14.9495 312.319 15.5428 312.599 16.0495C312.879 16.5562 313.259 16.9428 313.739 17.2095C314.219 17.4762 314.759 17.6095 315.359 17.6095ZM324.017 23.6295C323.497 23.6295 322.977 23.5428 322.457 23.3695C321.937 23.1962 321.504 22.9562 321.157 22.6495L322.157 20.8095C322.411 21.0362 322.697 21.2162 323.017 21.3495C323.337 21.4828 323.664 21.5495 323.997 21.5495C324.451 21.5495 324.817 21.4362 325.097 21.2095C325.377 20.9828 325.637 20.6028 325.877 20.0695L326.497 18.6695L326.697 18.3695L330.737 8.9295H333.137L328.137 20.4695C327.804 21.2695 327.431 21.9028 327.017 22.3695C326.617 22.8362 326.164 23.1628 325.657 23.3495C325.164 23.5362 324.617 23.6295 324.017 23.6295ZM326.217 19.9895L321.397 8.9295H323.997L327.917 18.1495L326.217 19.9895ZM344.247 19.7495C343.074 19.7495 342.167 19.4495 341.527 18.8495C340.887 18.2362 340.567 17.3362 340.567 16.1495V6.5695H343.067V16.0895C343.067 16.5962 343.194 16.9895 343.447 17.2695C343.714 17.5495 344.081 17.6895 344.547 17.6895C345.107 17.6895 345.574 17.5428 345.947 17.2495L346.647 19.0295C346.354 19.2695 345.994 19.4495 345.567 19.5695C345.141 19.6895 344.701 19.7495 344.247 19.7495ZM338.807 11.0095V9.0095H345.927V11.0095H338.807ZM354.764 8.8095C355.617 8.8095 356.377 8.97616 357.044 9.3095C357.724 9.64283 358.257 10.1562 358.644 10.8495C359.03 11.5295 359.224 12.4095 359.224 13.4895V19.6095H356.724V13.8095C356.724 12.8628 356.497 12.1562 356.044 11.6895C355.604 11.2228 354.984 10.9895 354.184 10.9895C353.597 10.9895 353.077 11.1095 352.624 11.3495C352.17 11.5895 351.817 11.9495 351.564 12.4295C351.324 12.8962 351.204 13.4895 351.204 14.2095V19.6095H348.704V4.7695H351.204V11.8095L350.664 10.9295C351.037 10.2495 351.577 9.7295 352.284 9.3695C353.004 8.99616 353.83 8.8095 354.764 8.8095ZM367.435 19.7495C366.248 19.7495 365.208 19.5162 364.315 19.0495C363.435 18.5695 362.748 17.9162 362.255 17.0895C361.775 16.2628 361.535 15.3228 361.535 14.2695C361.535 13.2028 361.768 12.2628 362.235 11.4495C362.715 10.6228 363.368 9.97616 364.195 9.5095C365.035 9.04283 365.988 8.8095 367.055 8.8095C368.095 8.8095 369.021 9.03616 369.835 9.4895C370.648 9.94283 371.288 10.5828 371.755 11.4095C372.221 12.2362 372.455 13.2095 372.455 14.3295C372.455 14.4362 372.448 14.5562 372.435 14.6895C372.435 14.8228 372.428 14.9495 372.415 15.0695H363.515V13.4095H371.095L370.115 13.9295C370.128 13.3162 370.001 12.7762 369.735 12.3095C369.468 11.8428 369.101 11.4762 368.635 11.2095C368.181 10.9428 367.655 10.8095 367.055 10.8095C366.441 10.8095 365.901 10.9428 365.435 11.2095C364.981 11.4762 364.621 11.8495 364.355 12.3295C364.101 12.7962 363.975 13.3495 363.975 13.9895V14.3895C363.975 15.0295 364.121 15.5962 364.415 16.0895C364.708 16.5828 365.121 16.9628 365.655 17.2295C366.188 17.4962 366.801 17.6295 367.495 17.6295C368.095 17.6295 368.635 17.5362 369.115 17.3495C369.595 17.1628 370.021 16.8695 370.395 16.4695L371.735 18.0095C371.255 18.5695 370.648 19.0028 369.915 19.3095C369.195 19.6028 368.368 19.7495 367.435 19.7495ZM63.7879 47.6295C62.8012 47.6295 61.8346 47.4962 60.8879 47.2295C59.9546 46.9762 59.1879 46.6028 58.5879 46.1095L59.7079 44.2295C60.1746 44.6162 60.7612 44.9228 61.4679 45.1495C62.1879 45.3895 62.9146 45.5095 63.6479 45.5095C64.8212 45.5095 65.6812 45.2362 66.2279 44.6895C66.7746 44.1562 67.0479 43.3495 67.0479 42.2695V40.3695L67.2479 37.9495L67.1679 35.5295V32.9295H69.5479V41.9895C69.5479 43.9228 69.0546 45.3428 68.0679 46.2495C67.0812 47.1695 65.6546 47.6295 63.7879 47.6295ZM63.4679 43.1295C62.4546 43.1295 61.5346 42.9162 60.7079 42.4895C59.8946 42.0495 59.2479 41.4428 58.7679 40.6695C58.3012 39.8962 58.0679 38.9895 58.0679 37.9495C58.0679 36.9228 58.3012 36.0228 58.7679 35.2495C59.2479 34.4762 59.8946 33.8762 60.7079 33.4495C61.5346 33.0228 62.4546 32.8095 63.4679 32.8095C64.3746 32.8095 65.1879 32.9895 65.9079 33.3495C66.6279 33.7095 67.2012 34.2695 67.6279 35.0295C68.0679 35.7895 68.2879 36.7628 68.2879 37.9495C68.2879 39.1362 68.0679 40.1162 67.6279 40.8895C67.2012 41.6495 66.6279 42.2162 65.9079 42.5895C65.1879 42.9495 64.3746 43.1295 63.4679 43.1295ZM63.8479 41.0095C64.4746 41.0095 65.0346 40.8828 65.5279 40.6295C66.0212 40.3628 66.4012 40.0028 66.6679 39.5495C66.9479 39.0828 67.0879 38.5495 67.0879 37.9495C67.0879 37.3495 66.9479 36.8228 66.6679 36.3695C66.4012 35.9028 66.0212 35.5495 65.5279 35.3095C65.0346 35.0562 64.4746 34.9295 63.8479 34.9295C63.2212 34.9295 62.6546 35.0562 62.1479 35.3095C61.6546 35.5495 61.2679 35.9028 60.9879 36.3695C60.7212 36.8228 60.5879 37.3495 60.5879 37.9495C60.5879 38.5495 60.7212 39.0828 60.9879 39.5495C61.2679 40.0028 61.6546 40.3628 62.1479 40.6295C62.6546 40.8828 63.2212 41.0095 63.8479 41.0095ZM77.8546 43.7495C76.668 43.7495 75.628 43.5162 74.7346 43.0495C73.8546 42.5695 73.168 41.9162 72.6746 41.0895C72.1946 40.2628 71.9546 39.3228 71.9546 38.2695C71.9546 37.2028 72.188 36.2628 72.6546 35.4495C73.1346 34.6228 73.788 33.9762 74.6146 33.5095C75.4546 33.0428 76.408 32.8095 77.4746 32.8095C78.5146 32.8095 79.4413 33.0362 80.2546 33.4895C81.068 33.9428 81.708 34.5828 82.1746 35.4095C82.6413 36.2362 82.8746 37.2095 82.8746 38.3295C82.8746 38.4362 82.868 38.5562 82.8546 38.6895C82.8546 38.8228 82.848 38.9495 82.8346 39.0695H73.9346V37.4095H81.5146L80.5346 37.9295C80.548 37.3162 80.4213 36.7762 80.1546 36.3095C79.888 35.8428 79.5213 35.4762 79.0546 35.2095C78.6013 34.9428 78.0746 34.8095 77.4746 34.8095C76.8613 34.8095 76.3213 34.9428 75.8546 35.2095C75.4013 35.4762 75.0413 35.8495 74.7746 36.3295C74.5213 36.7962 74.3946 37.3495 74.3946 37.9895V38.3895C74.3946 39.0295 74.5413 39.5962 74.8346 40.0895C75.128 40.5828 75.5413 40.9628 76.0746 41.2295C76.608 41.4962 77.2213 41.6295 77.9146 41.6295C78.5146 41.6295 79.0546 41.5362 79.5346 41.3495C80.0146 41.1628 80.4413 40.8695 80.8146 40.4695L82.1546 42.0095C81.6746 42.5695 81.068 43.0028 80.3346 43.3095C79.6146 43.6028 78.788 43.7495 77.8546 43.7495ZM91.336 32.8095C92.1894 32.8095 92.9494 32.9762 93.616 33.3095C94.296 33.6428 94.8294 34.1562 95.216 34.8495C95.6027 35.5295 95.796 36.4095 95.796 37.4895V43.6095H93.296V37.8095C93.296 36.8628 93.0694 36.1562 92.616 35.6895C92.176 35.2228 91.556 34.9895 90.756 34.9895C90.1694 34.9895 89.6494 35.1095 89.196 35.3495C88.7427 35.5895 88.3894 35.9495 88.136 36.4295C87.896 36.8962 87.776 37.4895 87.776 38.2095V43.6095H85.276V32.9295H87.656V35.8095L87.236 34.9295C87.6094 34.2495 88.1494 33.7295 88.856 33.3695C89.576 32.9962 90.4027 32.8095 91.336 32.8095ZM98.9674 43.6095V32.9295H101.467V43.6095H98.9674ZM100.227 31.1695C99.7608 31.1695 99.3741 31.0228 99.0674 30.7295C98.7741 30.4362 98.6274 30.0828 98.6274 29.6695C98.6274 29.2428 98.7741 28.8895 99.0674 28.6095C99.3741 28.3162 99.7608 28.1695 100.227 28.1695C100.694 28.1695 101.074 28.3095 101.367 28.5895C101.674 28.8562 101.827 29.1962 101.827 29.6095C101.827 30.0495 101.681 30.4228 101.387 30.7295C101.094 31.0228 100.707 31.1695 100.227 31.1695ZM109.269 43.7495C108.362 43.7495 107.562 43.5828 106.869 43.2495C106.175 42.9028 105.635 42.3828 105.249 41.6895C104.862 40.9828 104.669 40.0962 104.669 39.0295V32.9295H107.169V38.6895C107.169 39.6495 107.382 40.3695 107.809 40.8495C108.249 41.3162 108.869 41.5495 109.669 41.5495C110.255 41.5495 110.762 41.4295 111.189 41.1895C111.629 40.9495 111.969 40.5895 112.209 40.1095C112.462 39.6295 112.589 39.0362 112.589 38.3295V32.9295H115.089V43.6095H112.709V40.7295L113.129 41.6095C112.769 42.3028 112.242 42.8362 111.549 43.2095C110.855 43.5695 110.095 43.7495 109.269 43.7495ZM121.662 43.7495C120.769 43.7495 119.909 43.6362 119.082 43.4095C118.269 43.1695 117.622 42.8828 117.142 42.5495L118.102 40.6495C118.582 40.9562 119.155 41.2095 119.822 41.4095C120.489 41.6095 121.155 41.7095 121.822 41.7095C122.609 41.7095 123.175 41.6028 123.522 41.3895C123.882 41.1762 124.062 40.8895 124.062 40.5295C124.062 40.2362 123.942 40.0162 123.702 39.8695C123.462 39.7095 123.149 39.5895 122.762 39.5095C122.375 39.4295 121.942 39.3562 121.462 39.2895C120.995 39.2228 120.522 39.1362 120.042 39.0295C119.575 38.9095 119.149 38.7428 118.762 38.5295C118.375 38.3028 118.062 38.0028 117.822 37.6295C117.582 37.2562 117.462 36.7628 117.462 36.1495C117.462 35.4695 117.655 34.8828 118.042 34.3895C118.429 33.8828 118.969 33.4962 119.662 33.2295C120.369 32.9495 121.202 32.8095 122.162 32.8095C122.882 32.8095 123.609 32.8895 124.342 33.0495C125.075 33.2095 125.682 33.4362 126.162 33.7295L125.202 35.6295C124.695 35.3228 124.182 35.1162 123.662 35.0095C123.155 34.8895 122.649 34.8295 122.142 34.8295C121.382 34.8295 120.815 34.9428 120.442 35.1695C120.082 35.3962 119.902 35.6828 119.902 36.0295C119.902 36.3495 120.022 36.5895 120.262 36.7495C120.502 36.9095 120.815 37.0362 121.202 37.1295C121.589 37.2228 122.015 37.3028 122.482 37.3695C122.962 37.4228 123.435 37.5095 123.902 37.6295C124.369 37.7495 124.795 37.9162 125.182 38.1295C125.582 38.3295 125.902 38.6162 126.142 38.9895C126.382 39.3628 126.502 39.8495 126.502 40.4495C126.502 41.1162 126.302 41.6962 125.902 42.1895C125.515 42.6828 124.962 43.0695 124.242 43.3495C123.522 43.6162 122.662 43.7495 121.662 43.7495ZM138.982 43.7495C137.889 43.7495 136.916 43.5162 136.062 43.0495C135.209 42.5695 134.536 41.9162 134.042 41.0895C133.549 40.2628 133.302 39.3228 133.302 38.2695C133.302 37.2028 133.549 36.2628 134.042 35.4495C134.536 34.6228 135.209 33.9762 136.062 33.5095C136.916 33.0428 137.889 32.8095 138.982 32.8095C140.089 32.8095 141.069 33.0428 141.922 33.5095C142.789 33.9762 143.462 34.6162 143.942 35.4295C144.436 36.2428 144.682 37.1895 144.682 38.2695C144.682 39.3228 144.436 40.2628 143.942 41.0895C143.462 41.9162 142.789 42.5695 141.922 43.0495C141.069 43.5162 140.089 43.7495 138.982 43.7495ZM138.982 41.6095C139.596 41.6095 140.142 41.4762 140.622 41.2095C141.102 40.9428 141.476 40.5562 141.742 40.0495C142.022 39.5428 142.162 38.9495 142.162 38.2695C142.162 37.5762 142.022 36.9828 141.742 36.4895C141.476 35.9828 141.102 35.5962 140.622 35.3295C140.142 35.0628 139.602 34.9295 139.002 34.9295C138.389 34.9295 137.842 35.0628 137.362 35.3295C136.896 35.5962 136.522 35.9828 136.242 36.4895C135.962 36.9828 135.822 37.5762 135.822 38.2695C135.822 38.9495 135.962 39.5428 136.242 40.0495C136.522 40.5562 136.896 40.9428 137.362 41.2095C137.842 41.4762 138.382 41.6095 138.982 41.6095ZM147.413 43.6095V32.3295C147.413 31.2095 147.74 30.3162 148.393 29.6495C149.06 28.9695 150.006 28.6295 151.233 28.6295C151.673 28.6295 152.086 28.6762 152.473 28.7695C152.873 28.8628 153.206 29.0095 153.473 29.2095L152.793 31.0895C152.606 30.9428 152.393 30.8362 152.153 30.7695C151.913 30.6895 151.666 30.6495 151.413 30.6495C150.893 30.6495 150.5 30.7962 150.233 31.0895C149.966 31.3695 149.833 31.7962 149.833 32.3695V33.5695L149.913 34.6895V43.6095H147.413ZM145.653 35.0095V33.0095H152.773V35.0095H145.653ZM173.463 32.8095C174.316 32.8095 175.07 32.9762 175.723 33.3095C176.39 33.6428 176.91 34.1562 177.283 34.8495C177.656 35.5295 177.843 36.4095 177.843 37.4895V43.6095H175.343V37.8095C175.343 36.8628 175.136 36.1562 174.723 35.6895C174.31 35.2228 173.716 34.9895 172.943 34.9895C172.396 34.9895 171.91 35.1095 171.483 35.3495C171.07 35.5895 170.743 35.9428 170.503 36.4095C170.276 36.8762 170.163 37.4695 170.163 38.1895V43.6095H167.663V37.8095C167.663 36.8628 167.456 36.1562 167.043 35.6895C166.63 35.2228 166.036 34.9895 165.263 34.9895C164.716 34.9895 164.23 35.1095 163.803 35.3495C163.39 35.5895 163.063 35.9428 162.823 36.4095C162.596 36.8762 162.483 37.4695 162.483 38.1895V43.6095H159.983V32.9295H162.363V35.7695L161.943 34.9295C162.303 34.2362 162.823 33.7095 163.503 33.3495C164.196 32.9895 164.983 32.8095 165.863 32.8095C166.863 32.8095 167.73 33.0562 168.463 33.5495C169.21 34.0428 169.703 34.7895 169.943 35.7895L168.963 35.4495C169.31 34.6495 169.883 34.0095 170.683 33.5295C171.483 33.0495 172.41 32.8095 173.463 32.8095ZM187.618 43.6095V41.4495L187.478 40.9895V37.2095C187.478 36.4762 187.258 35.9095 186.818 35.5095C186.378 35.0962 185.711 34.8895 184.818 34.8895C184.218 34.8895 183.624 34.9828 183.038 35.1695C182.464 35.3562 181.978 35.6162 181.578 35.9495L180.598 34.1295C181.171 33.6895 181.851 33.3628 182.638 33.1495C183.438 32.9228 184.264 32.8095 185.118 32.8095C186.664 32.8095 187.858 33.1828 188.698 33.9295C189.551 34.6628 189.978 35.8028 189.978 37.3495V43.6095H187.618ZM184.258 43.7495C183.458 43.7495 182.758 43.6162 182.158 43.3495C181.558 43.0695 181.091 42.6895 180.758 42.2095C180.438 41.7162 180.278 41.1628 180.278 40.5495C180.278 39.9495 180.418 39.4095 180.698 38.9295C180.991 38.4495 181.464 38.0695 182.118 37.7895C182.771 37.5095 183.638 37.3695 184.718 37.3695H187.818V39.0295H184.898C184.044 39.0295 183.471 39.1695 183.178 39.4495C182.884 39.7162 182.738 40.0495 182.738 40.4495C182.738 40.9028 182.918 41.2628 183.278 41.5295C183.638 41.7962 184.138 41.9295 184.778 41.9295C185.391 41.9295 185.938 41.7895 186.418 41.5095C186.911 41.2295 187.264 40.8162 187.478 40.2695L187.898 41.7695C187.658 42.3962 187.224 42.8828 186.598 43.2295C185.984 43.5762 185.204 43.7495 184.258 43.7495ZM199.246 32.8095C200.1 32.8095 200.86 32.9762 201.526 33.3095C202.206 33.6428 202.74 34.1562 203.126 34.8495C203.513 35.5295 203.706 36.4095 203.706 37.4895V43.6095H201.206V37.8095C201.206 36.8628 200.98 36.1562 200.526 35.6895C200.086 35.2228 199.466 34.9895 198.666 34.9895C198.08 34.9895 197.56 35.1095 197.106 35.3495C196.653 35.5895 196.3 35.9495 196.046 36.4295C195.806 36.8962 195.686 37.4895 195.686 38.2095V43.6095H193.186V32.9295H195.566V35.8095L195.146 34.9295C195.52 34.2495 196.06 33.7295 196.766 33.3695C197.486 32.9962 198.313 32.8095 199.246 32.8095ZM218.325 43.7495C217.418 43.7495 216.612 43.5495 215.905 43.1495C215.198 42.7495 214.638 42.1495 214.225 41.3495C213.825 40.5362 213.625 39.5095 213.625 38.2695C213.625 37.0162 213.832 35.9895 214.245 35.1895C214.672 34.3895 215.238 33.7962 215.945 33.4095C216.665 33.0095 217.458 32.8095 218.325 32.8095C219.378 32.8095 220.305 33.0362 221.105 33.4895C221.918 33.9428 222.558 34.5762 223.025 35.3895C223.505 36.2028 223.745 37.1628 223.745 38.2695C223.745 39.3762 223.505 40.3362 223.025 41.1495C222.558 41.9628 221.918 42.6028 221.105 43.0695C220.305 43.5228 219.378 43.7495 218.325 43.7495ZM212.405 43.6095V28.7695H214.905V35.4095L214.705 38.2495L214.785 41.0895V43.6095H212.405ZM218.045 41.6095C218.645 41.6095 219.178 41.4762 219.645 41.2095C220.125 40.9428 220.505 40.5562 220.785 40.0495C221.065 39.5428 221.205 38.9495 221.205 38.2695C221.205 37.5762 221.065 36.9828 220.785 36.4895C220.505 35.9828 220.125 35.5962 219.645 35.3295C219.178 35.0628 218.645 34.9295 218.045 34.9295C217.445 34.9295 216.905 35.0628 216.425 35.3295C215.945 35.5962 215.565 35.9828 215.285 36.4895C215.005 36.9828 214.865 37.5762 214.865 38.2695C214.865 38.9495 215.005 39.5428 215.285 40.0495C215.565 40.5562 215.945 40.9428 216.425 41.2095C216.905 41.4762 217.445 41.6095 218.045 41.6095ZM231.136 43.7495C229.949 43.7495 228.909 43.5162 228.016 43.0495C227.136 42.5695 226.449 41.9162 225.956 41.0895C225.476 40.2628 225.236 39.3228 225.236 38.2695C225.236 37.2028 225.469 36.2628 225.936 35.4495C226.416 34.6228 227.069 33.9762 227.896 33.5095C228.736 33.0428 229.689 32.8095 230.756 32.8095C231.796 32.8095 232.723 33.0362 233.536 33.4895C234.349 33.9428 234.989 34.5828 235.456 35.4095C235.923 36.2362 236.156 37.2095 236.156 38.3295C236.156 38.4362 236.149 38.5562 236.136 38.6895C236.136 38.8228 236.129 38.9495 236.116 39.0695H227.216V37.4095H234.796L233.816 37.9295C233.829 37.3162 233.703 36.7762 233.436 36.3095C233.169 35.8428 232.803 35.4762 232.336 35.2095C231.883 34.9428 231.356 34.8095 230.756 34.8095C230.143 34.8095 229.603 34.9428 229.136 35.2095C228.683 35.4762 228.323 35.8495 228.056 36.3295C227.803 36.7962 227.676 37.3495 227.676 37.9895V38.3895C227.676 39.0295 227.823 39.5962 228.116 40.0895C228.409 40.5828 228.823 40.9628 229.356 41.2295C229.889 41.4962 230.503 41.6295 231.196 41.6295C231.796 41.6295 232.336 41.5362 232.816 41.3495C233.296 41.1628 233.723 40.8695 234.096 40.4695L235.436 42.0095C234.956 42.5695 234.349 43.0028 233.616 43.3095C232.896 43.6028 232.069 43.7495 231.136 43.7495ZM243.457 43.7495C242.337 43.7495 241.337 43.5162 240.457 43.0495C239.591 42.5695 238.911 41.9162 238.417 41.0895C237.924 40.2628 237.677 39.3228 237.677 38.2695C237.677 37.2028 237.924 36.2628 238.417 35.4495C238.911 34.6228 239.591 33.9762 240.457 33.5095C241.337 33.0428 242.337 32.8095 243.457 32.8095C244.497 32.8095 245.411 33.0228 246.197 33.4495C246.997 33.8628 247.604 34.4762 248.017 35.2895L246.097 36.4095C245.777 35.9028 245.384 35.5295 244.917 35.2895C244.464 35.0495 243.971 34.9295 243.437 34.9295C242.824 34.9295 242.271 35.0628 241.777 35.3295C241.284 35.5962 240.897 35.9828 240.617 36.4895C240.337 36.9828 240.197 37.5762 240.197 38.2695C240.197 38.9628 240.337 39.5628 240.617 40.0695C240.897 40.5628 241.284 40.9428 241.777 41.2095C242.271 41.4762 242.824 41.6095 243.437 41.6095C243.971 41.6095 244.464 41.4895 244.917 41.2495C245.384 41.0095 245.777 40.6362 246.097 40.1295L248.017 41.2495C247.604 42.0495 246.997 42.6695 246.197 43.1095C245.411 43.5362 244.497 43.7495 243.457 43.7495ZM254.822 43.7495C253.729 43.7495 252.755 43.5162 251.902 43.0495C251.049 42.5695 250.375 41.9162 249.882 41.0895C249.389 40.2628 249.142 39.3228 249.142 38.2695C249.142 37.2028 249.389 36.2628 249.882 35.4495C250.375 34.6228 251.049 33.9762 251.902 33.5095C252.755 33.0428 253.729 32.8095 254.822 32.8095C255.929 32.8095 256.909 33.0428 257.762 33.5095C258.629 33.9762 259.302 34.6162 259.782 35.4295C260.275 36.2428 260.522 37.1895 260.522 38.2695C260.522 39.3228 260.275 40.2628 259.782 41.0895C259.302 41.9162 258.629 42.5695 257.762 43.0495C256.909 43.5162 255.929 43.7495 254.822 43.7495ZM254.822 41.6095C255.435 41.6095 255.982 41.4762 256.462 41.2095C256.942 40.9428 257.315 40.5562 257.582 40.0495C257.862 39.5428 258.002 38.9495 258.002 38.2695C258.002 37.5762 257.862 36.9828 257.582 36.4895C257.315 35.9828 256.942 35.5962 256.462 35.3295C255.982 35.0628 255.442 34.9295 254.842 34.9295C254.229 34.9295 253.682 35.0628 253.202 35.3295C252.735 35.5962 252.362 35.9828 252.082 36.4895C251.802 36.9828 251.662 37.5762 251.662 38.2695C251.662 38.9495 251.802 39.5428 252.082 40.0495C252.362 40.5562 252.735 40.9428 253.202 41.2095C253.682 41.4762 254.222 41.6095 254.822 41.6095ZM276.393 32.8095C277.246 32.8095 277.999 32.9762 278.653 33.3095C279.319 33.6428 279.839 34.1562 280.213 34.8495C280.586 35.5295 280.773 36.4095 280.773 37.4895V43.6095H278.273V37.8095C278.273 36.8628 278.066 36.1562 277.653 35.6895C277.239 35.2228 276.646 34.9895 275.873 34.9895C275.326 34.9895 274.839 35.1095 274.413 35.3495C273.999 35.5895 273.673 35.9428 273.433 36.4095C273.206 36.8762 273.093 37.4695 273.093 38.1895V43.6095H270.593V37.8095C270.593 36.8628 270.386 36.1562 269.973 35.6895C269.559 35.2228 268.966 34.9895 268.193 34.9895C267.646 34.9895 267.159 35.1095 266.733 35.3495C266.319 35.5895 265.993 35.9428 265.753 36.4095C265.526 36.8762 265.413 37.4695 265.413 38.1895V43.6095H262.913V32.9295H265.293V35.7695L264.873 34.9295C265.233 34.2362 265.753 33.7095 266.433 33.3495C267.126 32.9895 267.913 32.8095 268.793 32.8095C269.793 32.8095 270.659 33.0562 271.393 33.5495C272.139 34.0428 272.633 34.7895 272.873 35.7895L271.893 35.4495C272.239 34.6495 272.813 34.0095 273.613 33.5295C274.413 33.0495 275.339 32.8095 276.393 32.8095ZM289.007 43.7495C287.82 43.7495 286.78 43.5162 285.887 43.0495C285.007 42.5695 284.32 41.9162 283.827 41.0895C283.347 40.2628 283.107 39.3228 283.107 38.2695C283.107 37.2028 283.34 36.2628 283.807 35.4495C284.287 34.6228 284.94 33.9762 285.767 33.5095C286.607 33.0428 287.56 32.8095 288.627 32.8095C289.667 32.8095 290.594 33.0362 291.407 33.4895C292.22 33.9428 292.86 34.5828 293.327 35.4095C293.794 36.2362 294.027 37.2095 294.027 38.3295C294.027 38.4362 294.02 38.5562 294.007 38.6895C294.007 38.8228 294 38.9495 293.987 39.0695H285.087V37.4095H292.667L291.687 37.9295C291.7 37.3162 291.574 36.7762 291.307 36.3095C291.04 35.8428 290.674 35.4762 290.207 35.2095C289.754 34.9428 289.227 34.8095 288.627 34.8095C288.014 34.8095 287.474 34.9428 287.007 35.2095C286.554 35.4762 286.194 35.8495 285.927 36.3295C285.674 36.7962 285.547 37.3495 285.547 37.9895V38.3895C285.547 39.0295 285.694 39.5962 285.987 40.0895C286.28 40.5828 286.694 40.9628 287.227 41.2295C287.76 41.4962 288.374 41.6295 289.067 41.6295C289.667 41.6295 290.207 41.5362 290.687 41.3495C291.167 41.1628 291.594 40.8695 291.967 40.4695L293.307 42.0095C292.827 42.5695 292.22 43.0028 291.487 43.3095C290.767 43.6028 289.94 43.7495 289.007 43.7495ZM299.728 43.7495C298.835 43.7495 297.975 43.6362 297.148 43.4095C296.335 43.1695 295.688 42.8828 295.208 42.5495L296.168 40.6495C296.648 40.9562 297.222 41.2095 297.888 41.4095C298.555 41.6095 299.222 41.7095 299.888 41.7095C300.675 41.7095 301.242 41.6028 301.588 41.3895C301.948 41.1762 302.128 40.8895 302.128 40.5295C302.128 40.2362 302.008 40.0162 301.768 39.8695C301.528 39.7095 301.215 39.5895 300.828 39.5095C300.442 39.4295 300.008 39.3562 299.528 39.2895C299.062 39.2228 298.588 39.1362 298.108 39.0295C297.642 38.9095 297.215 38.7428 296.828 38.5295C296.442 38.3028 296.128 38.0028 295.888 37.6295C295.648 37.2562 295.528 36.7628 295.528 36.1495C295.528 35.4695 295.722 34.8828 296.108 34.3895C296.495 33.8828 297.035 33.4962 297.728 33.2295C298.435 32.9495 299.268 32.8095 300.228 32.8095C300.948 32.8095 301.675 32.8895 302.408 33.0495C303.142 33.2095 303.748 33.4362 304.228 33.7295L303.268 35.6295C302.762 35.3228 302.248 35.1162 301.728 35.0095C301.222 34.8895 300.715 34.8295 300.208 34.8295C299.448 34.8295 298.882 34.9428 298.508 35.1695C298.148 35.3962 297.968 35.6828 297.968 36.0295C297.968 36.3495 298.088 36.5895 298.328 36.7495C298.568 36.9095 298.882 37.0362 299.268 37.1295C299.655 37.2228 300.082 37.3028 300.548 37.3695C301.028 37.4228 301.502 37.5095 301.968 37.6295C302.435 37.7495 302.862 37.9162 303.248 38.1295C303.648 38.3295 303.968 38.6162 304.208 38.9895C304.448 39.3628 304.568 39.8495 304.568 40.4495C304.568 41.1162 304.368 41.6962 303.968 42.1895C303.582 42.6828 303.028 43.0695 302.308 43.3495C301.588 43.6162 300.728 43.7495 299.728 43.7495ZM318.829 43.6095V41.4495L318.689 40.9895V37.2095C318.689 36.4762 318.469 35.9095 318.029 35.5095C317.589 35.0962 316.922 34.8895 316.029 34.8895C315.429 34.8895 314.835 34.9828 314.249 35.1695C313.675 35.3562 313.189 35.6162 312.789 35.9495L311.809 34.1295C312.382 33.6895 313.062 33.3628 313.849 33.1495C314.649 32.9228 315.475 32.8095 316.329 32.8095C317.875 32.8095 319.069 33.1828 319.909 33.9295C320.762 34.6628 321.189 35.8028 321.189 37.3495V43.6095H318.829ZM315.469 43.7495C314.669 43.7495 313.969 43.6162 313.369 43.3495C312.769 43.0695 312.302 42.6895 311.969 42.2095C311.649 41.7162 311.489 41.1628 311.489 40.5495C311.489 39.9495 311.629 39.4095 311.909 38.9295C312.202 38.4495 312.675 38.0695 313.329 37.7895C313.982 37.5095 314.849 37.3695 315.929 37.3695H319.029V39.0295H316.109C315.255 39.0295 314.682 39.1695 314.389 39.4495C314.095 39.7162 313.949 40.0495 313.949 40.4495C313.949 40.9028 314.129 41.2628 314.489 41.5295C314.849 41.7962 315.349 41.9295 315.989 41.9295C316.602 41.9295 317.149 41.7895 317.629 41.5095C318.122 41.2295 318.475 40.8162 318.689 40.2695L319.109 41.7695C318.869 42.3962 318.435 42.8828 317.809 43.2295C317.195 43.5762 316.415 43.7495 315.469 43.7495ZM334.824 43.7495C333.704 43.7495 332.704 43.5162 331.824 43.0495C330.958 42.5695 330.278 41.9162 329.784 41.0895C329.291 40.2628 329.044 39.3228 329.044 38.2695C329.044 37.2028 329.291 36.2628 329.784 35.4495C330.278 34.6228 330.958 33.9762 331.824 33.5095C332.704 33.0428 333.704 32.8095 334.824 32.8095C335.864 32.8095 336.778 33.0228 337.564 33.4495C338.364 33.8628 338.971 34.4762 339.384 35.2895L337.464 36.4095C337.144 35.9028 336.751 35.5295 336.284 35.2895C335.831 35.0495 335.338 34.9295 334.804 34.9295C334.191 34.9295 333.638 35.0628 333.144 35.3295C332.651 35.5962 332.264 35.9828 331.984 36.4895C331.704 36.9828 331.564 37.5762 331.564 38.2695C331.564 38.9628 331.704 39.5628 331.984 40.0695C332.264 40.5628 332.651 40.9428 333.144 41.2095C333.638 41.4762 334.191 41.6095 334.804 41.6095C335.338 41.6095 335.831 41.4895 336.284 41.2495C336.751 41.0095 337.144 40.6362 337.464 40.1295L339.384 41.2495C338.971 42.0495 338.364 42.6695 337.564 43.1095C336.778 43.5362 335.864 43.7495 334.824 43.7495ZM348.126 43.6095V41.4495L347.986 40.9895V37.2095C347.986 36.4762 347.766 35.9095 347.326 35.5095C346.886 35.0962 346.219 34.8895 345.326 34.8895C344.726 34.8895 344.132 34.9828 343.546 35.1695C342.972 35.3562 342.486 35.6162 342.086 35.9495L341.106 34.1295C341.679 33.6895 342.359 33.3628 343.146 33.1495C343.946 32.9228 344.772 32.8095 345.626 32.8095C347.172 32.8095 348.366 33.1828 349.206 33.9295C350.059 34.6628 350.486 35.8028 350.486 37.3495V43.6095H348.126ZM344.766 43.7495C343.966 43.7495 343.266 43.6162 342.666 43.3495C342.066 43.0695 341.599 42.6895 341.266 42.2095C340.946 41.7162 340.786 41.1628 340.786 40.5495C340.786 39.9495 340.926 39.4095 341.206 38.9295C341.499 38.4495 341.972 38.0695 342.626 37.7895C343.279 37.5095 344.146 37.3695 345.226 37.3695H348.326V39.0295H345.406C344.552 39.0295 343.979 39.1695 343.686 39.4495C343.392 39.7162 343.246 40.0495 343.246 40.4495C343.246 40.9028 343.426 41.2628 343.786 41.5295C344.146 41.7962 344.646 41.9295 345.286 41.9295C345.899 41.9295 346.446 41.7895 346.926 41.5095C347.419 41.2295 347.772 40.8162 347.986 40.2695L348.406 41.7695C348.166 42.3962 347.732 42.8828 347.106 43.2295C346.492 43.5762 345.712 43.7495 344.766 43.7495ZM356.994 43.7495C356.101 43.7495 355.241 43.6362 354.414 43.4095C353.601 43.1695 352.954 42.8828 352.474 42.5495L353.434 40.6495C353.914 40.9562 354.487 41.2095 355.154 41.4095C355.821 41.6095 356.487 41.7095 357.154 41.7095C357.941 41.7095 358.507 41.6028 358.854 41.3895C359.214 41.1762 359.394 40.8895 359.394 40.5295C359.394 40.2362 359.274 40.0162 359.034 39.8695C358.794 39.7095 358.481 39.5895 358.094 39.5095C357.707 39.4295 357.274 39.3562 356.794 39.2895C356.327 39.2228 355.854 39.1362 355.374 39.0295C354.907 38.9095 354.481 38.7428 354.094 38.5295C353.707 38.3028 353.394 38.0028 353.154 37.6295C352.914 37.2562 352.794 36.7628 352.794 36.1495C352.794 35.4695 352.987 34.8828 353.374 34.3895C353.761 33.8828 354.301 33.4962 354.994 33.2295C355.701 32.9495 356.534 32.8095 357.494 32.8095C358.214 32.8095 358.941 32.8895 359.674 33.0495C360.407 33.2095 361.014 33.4362 361.494 33.7295L360.534 35.6295C360.027 35.3228 359.514 35.1162 358.994 35.0095C358.487 34.8895 357.981 34.8295 357.474 34.8295C356.714 34.8295 356.147 34.9428 355.774 35.1695C355.414 35.3962 355.234 35.6828 355.234 36.0295C355.234 36.3495 355.354 36.5895 355.594 36.7495C355.834 36.9095 356.147 37.0362 356.534 37.1295C356.921 37.2228 357.347 37.3028 357.814 37.3695C358.294 37.4228 358.767 37.5095 359.234 37.6295C359.701 37.7495 360.127 37.9162 360.514 38.1295C360.914 38.3295 361.234 38.6162 361.474 38.9895C361.714 39.3628 361.834 39.8495 361.834 40.4495C361.834 41.1162 361.634 41.6962 361.234 42.1895C360.847 42.6828 360.294 43.0695 359.574 43.3495C358.854 43.6162 357.994 43.7495 356.994 43.7495ZM368.007 43.7495C366.834 43.7495 365.927 43.4495 365.287 42.8495C364.647 42.2362 364.327 41.3362 364.327 40.1495V30.5695H366.827V40.0895C366.827 40.5962 366.954 40.9895 367.207 41.2695C367.474 41.5495 367.84 41.6895 368.307 41.6895C368.867 41.6895 369.334 41.5428 369.707 41.2495L370.407 43.0295C370.114 43.2695 369.754 43.4495 369.327 43.5695C368.9 43.6895 368.46 43.7495 368.007 43.7495ZM362.567 35.0095V33.0095H369.687V35.0095H362.567ZM372.464 43.6095V28.7695H374.964V43.6095H372.464ZM383.265 43.7495C382.078 43.7495 381.038 43.5162 380.145 43.0495C379.265 42.5695 378.578 41.9162 378.085 41.0895C377.605 40.2628 377.365 39.3228 377.365 38.2695C377.365 37.2028 377.598 36.2628 378.065 35.4495C378.545 34.6228 379.198 33.9762 380.025 33.5095C380.865 33.0428 381.818 32.8095 382.885 32.8095C383.925 32.8095 384.851 33.0362 385.665 33.4895C386.478 33.9428 387.118 34.5828 387.585 35.4095C388.051 36.2362 388.285 37.2095 388.285 38.3295C388.285 38.4362 388.278 38.5562 388.265 38.6895C388.265 38.8228 388.258 38.9495 388.245 39.0695H379.345V37.4095H386.925L385.945 37.9295C385.958 37.3162 385.831 36.7762 385.565 36.3095C385.298 35.8428 384.931 35.4762 384.465 35.2095C384.011 34.9428 383.485 34.8095 382.885 34.8095C382.271 34.8095 381.731 34.9428 381.265 35.2095C380.811 35.4762 380.451 35.8495 380.185 36.3295C379.931 36.7962 379.805 37.3495 379.805 37.9895V38.3895C379.805 39.0295 379.951 39.5962 380.245 40.0895C380.538 40.5828 380.951 40.9628 381.485 41.2295C382.018 41.4962 382.631 41.6295 383.325 41.6295C383.925 41.6295 384.465 41.5362 384.945 41.3495C385.425 41.1628 385.851 40.8695 386.225 40.4695L387.565 42.0095C387.085 42.5695 386.478 43.0028 385.745 43.3095C385.025 43.6028 384.198 43.7495 383.265 43.7495Z" fill="#D9CEE0"/>
<path d="M11.634 19.4351L14.45 9.25907H8.11405L4.40205 18.4751C2.93005 21.9951 2.67405 23.2111 2.67405 24.8751C2.67405 28.5231 5.29805 31.0191 8.88205 31.0191C12.402 31.0191 15.026 28.5871 15.026 24.8751C15.026 22.2511 13.746 20.3311 11.634 19.4351ZM26.738 19.4351L29.554 9.25907H23.218L19.506 18.4751C18.034 21.9951 17.778 23.2111 17.778 24.8751C17.778 28.5231 20.402 31.0191 23.986 31.0191C27.506 31.0191 30.13 28.5871 30.13 24.8751C30.13 22.2511 28.85 20.3311 26.738 19.4351Z" fill="#C8703A"/>
<path d="M424.212 46.1576L421.396 56.3336L427.732 56.3336L431.444 47.1176C432.916 43.5976 433.172 42.3816 433.172 40.7176C433.172 37.0696 430.548 34.5736 426.964 34.5736C423.444 34.5736 420.82 37.0056 420.82 40.7176C420.82 43.3416 422.1 45.2616 424.212 46.1576ZM409.108 46.1576L406.292 56.3336L412.628 56.3336L416.34 47.1176C417.812 43.5976 418.068 42.3816 418.068 40.7176C418.068 37.0696 415.444 34.5736 411.86 34.5736C408.34 34.5736 405.716 37.0056 405.716 40.7176C405.716 43.3416 406.996 45.2616 409.108 46.1576Z" fill="#C8703A"/>
</svg>
