<svg width="342" height="120" viewBox="0 0 342 120" fill="none" xmlns="http://www.w3.org/2000/svg">
<path d="M42.8995 21H45.4995V7H42.8995V21ZM64.6136 15.72C64.6136 12.38 62.3336 10.2 59.2136 10.2C56.0336 10.2 53.6936 12.48 53.6936 15.66C53.6936 18.84 56.0136 21.14 59.5936 21.14C61.4336 21.14 62.9336 20.54 63.8936 19.4L62.5536 17.86C61.7936 18.64 60.8536 19.02 59.6536 19.02C57.7936 19.02 56.4936 18.02 56.1936 16.46H64.5736C64.5936 16.22 64.6136 15.92 64.6136 15.72ZM59.2136 12.2C60.8536 12.2 62.0336 13.26 62.2336 14.8H56.1736C56.4136 13.24 57.5936 12.2 59.2136 12.2ZM73.075 10.2C71.515 10.2 70.215 10.72 69.395 11.7V10.32H67.015V21H69.515V15.6C69.515 13.46 70.715 12.38 72.495 12.38C74.095 12.38 75.035 13.3 75.035 15.2V21H77.535V14.88C77.535 11.66 75.635 10.2 73.075 10.2ZM82.0664 8.56C83.0064 8.56 83.6664 7.88 83.6664 7C83.6664 6.18 82.9864 5.56 82.0664 5.56C81.1464 5.56 80.4664 6.22 80.4664 7.06C80.4664 7.9 81.1464 8.56 82.0664 8.56ZM79.6064 25.02C81.9864 25.02 83.3264 23.54 83.3264 21.2V10.32H80.8264V21.26C80.8264 22.4 80.3064 22.96 79.3864 22.96C78.8264 22.96 78.3064 22.82 77.9264 22.54L77.2064 24.4C77.7864 24.84 78.6864 25.02 79.6064 25.02ZM91.4048 21.14C94.7248 21.14 97.1048 18.86 97.1048 15.66C97.1048 12.46 94.7248 10.2 91.4048 10.2C88.1248 10.2 85.7248 12.46 85.7248 15.66C85.7248 18.86 88.1248 21.14 91.4048 21.14ZM91.4048 19C89.6048 19 88.2448 17.7 88.2448 15.66C88.2448 13.62 89.6048 12.32 91.4048 12.32C93.2248 12.32 94.5848 13.62 94.5848 15.66C94.5848 17.7 93.2248 19 91.4048 19ZM106.803 10.32L103.423 18.22L100.062 10.32H97.4625L102.123 21.04L101.943 21.46C101.463 22.52 100.943 22.94 100.062 22.94C99.3825 22.94 98.7025 22.66 98.2225 22.2L97.2225 24.04C97.9025 24.66 99.0225 25.02 100.083 25.02C101.863 25.02 103.223 24.28 104.203 21.86L109.203 10.32H106.803ZM121.192 21.14C123.272 21.14 124.932 20.24 125.752 18.64L123.832 17.52C123.192 18.54 122.232 19 121.172 19C119.332 19 117.932 17.74 117.932 15.66C117.932 13.6 119.332 12.32 121.172 12.32C122.232 12.32 123.192 12.78 123.832 13.8L125.752 12.68C124.932 11.06 123.272 10.2 121.192 10.2C117.812 10.2 115.412 12.46 115.412 15.66C115.412 18.86 117.812 21.14 121.192 21.14ZM132.557 21.14C135.877 21.14 138.257 18.86 138.257 15.66C138.257 12.46 135.877 10.2 132.557 10.2C129.277 10.2 126.877 12.46 126.877 15.66C126.877 18.86 129.277 21.14 132.557 21.14ZM132.557 19C130.757 19 129.397 17.7 129.397 15.66C129.397 13.62 130.757 12.32 132.557 12.32C134.377 12.32 135.737 13.62 135.737 15.66C135.737 17.7 134.377 19 132.557 19ZM154.128 10.2C152.428 10.2 150.988 10.88 150.128 11.98C149.388 10.78 148.088 10.2 146.528 10.2C145.068 10.2 143.828 10.72 143.028 11.68V10.32H140.648V21H143.148V15.58C143.148 13.46 144.268 12.38 145.928 12.38C147.448 12.38 148.328 13.3 148.328 15.2V21H150.828V15.58C150.828 13.46 151.968 12.38 153.608 12.38C155.128 12.38 156.008 13.3 156.008 15.2V21H158.508V14.88C158.508 11.66 156.708 10.2 154.128 10.2ZM162.963 8.56C163.903 8.56 164.563 7.88 164.563 7C164.563 6.18 163.883 5.56 162.963 5.56C162.043 5.56 161.363 6.22 161.363 7.06C161.363 7.9 162.043 8.56 162.963 8.56ZM161.703 21H164.203V10.32H161.703V21ZM173.544 10.2C171.984 10.2 170.684 10.72 169.864 11.7V10.32H167.484V21H169.984V15.6C169.984 13.46 171.184 12.38 172.964 12.38C174.564 12.38 175.504 13.3 175.504 15.2V21H178.004V14.88C178.004 11.66 176.104 10.2 173.544 10.2ZM189.493 10.32V11.74C188.613 10.68 187.293 10.2 185.793 10.2C182.733 10.2 180.393 12.24 180.393 15.34C180.393 18.44 182.733 20.52 185.793 20.52C187.233 20.52 188.493 20.06 189.373 19.1V19.66C189.373 21.82 188.333 22.9 185.973 22.9C184.493 22.9 182.973 22.4 182.033 21.62L180.913 23.5C182.133 24.5 184.113 25.02 186.113 25.02C189.853 25.02 191.873 23.26 191.873 19.38V10.32H189.493ZM186.173 18.4C184.273 18.4 182.913 17.16 182.913 15.34C182.913 13.54 184.273 12.32 186.173 12.32C188.053 12.32 189.413 13.54 189.413 15.34C189.413 17.16 188.053 18.4 186.173 18.4ZM206.747 10.2C205.267 10.2 204.007 10.68 203.187 11.56V6.16H200.687V21H203.187V15.6C203.187 13.46 204.387 12.38 206.167 12.38C207.767 12.38 208.707 13.3 208.707 15.2V21H211.207V14.88C211.207 11.66 209.307 10.2 206.747 10.2ZM224.516 15.72C224.516 12.38 222.236 10.2 219.116 10.2C215.936 10.2 213.596 12.48 213.596 15.66C213.596 18.84 215.916 21.14 219.496 21.14C221.336 21.14 222.836 20.54 223.796 19.4L222.456 17.86C221.696 18.64 220.756 19.02 219.556 19.02C217.696 19.02 216.396 18.02 216.096 16.46H224.476C224.496 16.22 224.516 15.92 224.516 15.72ZM219.116 12.2C220.756 12.2 221.936 13.26 222.136 14.8H216.076C216.316 13.24 217.496 12.2 219.116 12.2ZM229.297 11.88V10.32H226.917V21H229.417V15.82C229.417 13.64 230.617 12.52 232.517 12.52C232.697 12.52 232.877 12.54 233.097 12.58V10.2C231.317 10.2 230.017 10.76 229.297 11.88ZM245.16 15.72C245.16 12.38 242.88 10.2 239.76 10.2C236.58 10.2 234.24 12.48 234.24 15.66C234.24 18.84 236.56 21.14 240.14 21.14C241.98 21.14 243.48 20.54 244.44 19.4L243.1 17.86C242.34 18.64 241.4 19.02 240.2 19.02C238.34 19.02 237.04 18.02 236.74 16.46H245.12C245.14 16.22 245.16 15.92 245.16 15.72ZM239.76 12.2C241.4 12.2 242.58 13.26 242.78 14.8H236.72C236.96 13.24 238.14 12.2 239.76 12.2ZM257.889 21.14C261.209 21.14 263.589 18.86 263.589 15.66C263.589 12.46 261.209 10.2 257.889 10.2C254.609 10.2 252.209 12.46 252.209 15.66C252.209 18.86 254.609 21.14 257.889 21.14ZM257.889 19C256.089 19 254.729 17.7 254.729 15.66C254.729 13.62 256.089 12.32 257.889 12.32C259.709 12.32 261.069 13.62 261.069 15.66C261.069 17.7 259.709 19 257.889 19ZM270.32 8.04C270.84 8.04 271.32 8.22 271.7 8.48L272.4 6.6C271.84 6.2 271 6.02 270.14 6.02C267.66 6.02 266.32 7.48 266.32 9.72V10.4H264.56V12.4H266.32V21H268.82V12.4H271.68V10.4H268.74V9.76C268.74 8.62 269.28 8.04 270.32 8.04ZM279.083 18.64C278.703 18.94 278.203 19.08 277.683 19.08C276.723 19.08 276.203 18.52 276.203 17.48V12.4H279.063V10.4H276.203V7.96H273.703V10.4H271.943V12.4H273.703V17.54C273.703 19.9 275.043 21.14 277.383 21.14C278.283 21.14 279.183 20.9 279.783 20.42L279.083 18.64ZM291.528 15.72C291.528 12.38 289.248 10.2 286.128 10.2C282.948 10.2 280.608 12.48 280.608 15.66C280.608 18.84 282.928 21.14 286.508 21.14C288.348 21.14 289.848 20.54 290.808 19.4L289.468 17.86C288.708 18.64 287.768 19.02 286.568 19.02C284.708 19.02 283.408 18.02 283.108 16.46H291.488C291.508 16.22 291.528 15.92 291.528 15.72ZM286.128 12.2C287.768 12.2 288.948 13.26 289.148 14.8H283.088C283.328 13.24 284.508 12.2 286.128 12.2ZM299.989 10.2C298.429 10.2 297.129 10.72 296.309 11.7V10.32H293.929V21H296.429V15.6C296.429 13.46 297.629 12.38 299.409 12.38C301.009 12.38 301.949 13.3 301.949 15.2V21H304.449V14.88C304.449 11.66 302.549 10.2 299.989 10.2ZM45.3815 42.64C45.0015 42.94 44.5015 43.08 43.9815 43.08C43.0215 43.08 42.5015 42.52 42.5015 41.48V36.4H45.3615V34.4H42.5015V31.96H40.0015V34.4H38.2415V36.4H40.0015V41.54C40.0015 43.9 41.3415 45.14 43.6815 45.14C44.5815 45.14 45.4815 44.9 46.0815 44.42L45.3815 42.64ZM52.5865 45.14C55.9065 45.14 58.2865 42.86 58.2865 39.66C58.2865 36.46 55.9065 34.2 52.5865 34.2C49.3065 34.2 46.9065 36.46 46.9065 39.66C46.9065 42.86 49.3065 45.14 52.5865 45.14ZM52.5865 43C50.7865 43 49.4265 41.7 49.4265 39.66C49.4265 37.62 50.7865 36.32 52.5865 36.32C54.4065 36.32 55.7665 37.62 55.7665 39.66C55.7665 41.7 54.4065 43 52.5865 43ZM74.1645 30.16V35.64C73.3245 34.66 72.1045 34.2 70.7245 34.2C67.6245 34.2 65.3245 36.34 65.3245 39.66C65.3245 42.98 67.6245 45.14 70.7245 45.14C72.1845 45.14 73.4245 44.64 74.2645 43.62V45H76.6645V30.16H74.1645ZM71.0245 43C69.2245 43 67.8445 41.7 67.8445 39.66C67.8445 37.62 69.2245 36.32 71.0245 36.32C72.8245 36.32 74.2045 37.62 74.2045 39.66C74.2045 41.7 72.8245 43 71.0245 43ZM81.1949 32.56C82.1349 32.56 82.7949 31.88 82.7949 31C82.7949 30.18 82.1149 29.56 81.1949 29.56C80.2749 29.56 79.5949 30.22 79.5949 31.06C79.5949 31.9 80.2749 32.56 81.1949 32.56ZM79.9349 45H82.4349V34.32H79.9349V45ZM89.0162 45.14C92.0162 45.14 93.8562 43.84 93.8562 41.84C93.8562 37.66 87.2562 39.58 87.2562 37.42C87.2562 36.72 87.9762 36.22 89.4962 36.22C90.5162 36.22 91.5362 36.42 92.5562 37.02L93.5162 35.12C92.5562 34.54 90.9362 34.2 89.5162 34.2C86.6362 34.2 84.8162 35.52 84.8162 37.54C84.8162 41.8 91.4162 39.88 91.4162 41.92C91.4162 42.66 90.7562 43.1 89.1762 43.1C87.8362 43.1 86.3962 42.66 85.4562 42.04L84.4962 43.94C85.4562 44.62 87.2362 45.14 89.0162 45.14ZM101.729 42.64C101.349 42.94 100.849 43.08 100.329 43.08C99.3691 43.08 98.8491 42.52 98.8491 41.48V36.4H101.709V34.4H98.8491V31.96H96.3491V34.4H94.5891V36.4H96.3491V41.54C96.3491 43.9 97.6891 45.14 100.029 45.14C100.929 45.14 101.829 44.9 102.429 44.42L101.729 42.64ZM106.866 35.88V34.32H104.486V45H106.986V39.82C106.986 37.64 108.186 36.52 110.086 36.52C110.266 36.52 110.446 36.54 110.666 36.58V34.2C108.886 34.2 107.586 34.76 106.866 35.88ZM122.729 39.72C122.729 36.38 120.449 34.2 117.329 34.2C114.149 34.2 111.809 36.48 111.809 39.66C111.809 42.84 114.129 45.14 117.709 45.14C119.549 45.14 121.049 44.54 122.009 43.4L120.669 41.86C119.909 42.64 118.969 43.02 117.769 43.02C115.909 43.02 114.609 42.02 114.309 40.46H122.689C122.709 40.22 122.729 39.92 122.729 39.72ZM117.329 36.2C118.969 36.2 120.149 37.26 120.349 38.8H114.289C114.529 37.24 115.709 36.2 117.329 36.2ZM128.43 45.14C131.43 45.14 133.27 43.84 133.27 41.84C133.27 37.66 126.67 39.58 126.67 37.42C126.67 36.72 127.39 36.22 128.91 36.22C129.93 36.22 130.95 36.42 131.97 37.02L132.93 35.12C131.97 34.54 130.35 34.2 128.93 34.2C126.05 34.2 124.23 35.52 124.23 37.54C124.23 41.8 130.83 39.88 130.83 41.92C130.83 42.66 130.17 43.1 128.59 43.1C127.25 43.1 125.81 42.66 124.87 42.04L123.91 43.94C124.87 44.62 126.65 45.14 128.43 45.14ZM138.723 45.14C141.723 45.14 143.563 43.84 143.563 41.84C143.563 37.66 136.963 39.58 136.963 37.42C136.963 36.72 137.683 36.22 139.203 36.22C140.223 36.22 141.243 36.42 142.263 37.02L143.223 35.12C142.263 34.54 140.643 34.2 139.223 34.2C136.343 34.2 134.523 35.52 134.523 37.54C134.523 41.8 141.123 39.88 141.123 41.92C141.123 42.66 140.463 43.1 138.883 43.1C137.543 43.1 136.103 42.66 135.163 42.04L134.203 43.94C135.163 44.62 136.943 45.14 138.723 45.14ZM146.536 41.82C145.616 41.82 144.916 42.48 144.916 43.48C144.916 44.2 145.296 44.72 145.856 44.96L145.056 48.02H146.676L147.696 45.2C148.056 44.28 148.156 43.92 148.156 43.48C148.156 42.5 147.476 41.82 146.536 41.82ZM162.046 34.2C160.586 34.2 159.346 34.7 158.506 35.72V34.32H156.126V48.88H158.626V43.7C159.486 44.68 160.686 45.14 162.046 45.14C165.166 45.14 167.466 42.98 167.466 39.66C167.466 36.36 165.166 34.2 162.046 34.2ZM161.766 43C159.966 43 158.586 41.7 158.586 39.66C158.586 37.62 159.966 36.32 161.766 36.32C163.566 36.32 164.926 37.62 164.926 39.66C164.926 41.7 163.566 43 161.766 43ZM169.837 45H172.337V30.16H169.837V45ZM183.459 34.32V39.72C183.459 41.86 182.279 42.94 180.539 42.94C178.959 42.94 178.039 42.02 178.039 40.08V34.32H175.539V40.42C175.539 43.64 177.399 45.14 180.139 45.14C181.519 45.14 182.779 44.62 183.579 43.64V45H185.959V34.32H183.459ZM192.532 45.14C195.532 45.14 197.372 43.84 197.372 41.84C197.372 37.66 190.772 39.58 190.772 37.42C190.772 36.72 191.492 36.22 193.012 36.22C194.032 36.22 195.052 36.42 196.072 37.02L197.032 35.12C196.072 34.54 194.452 34.2 193.032 34.2C190.152 34.2 188.332 35.52 188.332 37.54C188.332 41.8 194.932 39.88 194.932 41.92C194.932 42.66 194.272 43.1 192.692 43.1C191.352 43.1 189.912 42.66 188.972 42.04L188.012 43.94C188.972 44.62 190.752 45.14 192.532 45.14ZM205.292 45H207.892V31H205.292V45ZM225.186 34.32V35.74C224.306 34.68 222.986 34.2 221.486 34.2C218.426 34.2 216.086 36.24 216.086 39.34C216.086 42.44 218.426 44.52 221.486 44.52C222.926 44.52 224.186 44.06 225.066 43.1V43.66C225.066 45.82 224.026 46.9 221.666 46.9C220.186 46.9 218.666 46.4 217.726 45.62L216.606 47.5C217.826 48.5 219.806 49.02 221.806 49.02C225.546 49.02 227.566 47.26 227.566 43.38V34.32H225.186ZM221.866 42.4C219.966 42.4 218.606 41.16 218.606 39.34C218.606 37.54 219.966 36.32 221.866 36.32C223.746 36.32 225.106 37.54 225.106 39.34C225.106 41.16 223.746 42.4 221.866 42.4ZM240.893 39.72C240.893 36.38 238.613 34.2 235.493 34.2C232.313 34.2 229.973 36.48 229.973 39.66C229.973 42.84 232.293 45.14 235.873 45.14C237.713 45.14 239.213 44.54 240.173 43.4L238.833 41.86C238.073 42.64 237.133 43.02 235.933 43.02C234.073 43.02 232.773 42.02 232.473 40.46H240.853C240.873 40.22 240.893 39.92 240.893 39.72ZM235.493 36.2C237.133 36.2 238.313 37.26 238.513 38.8H232.453C232.693 37.24 233.873 36.2 235.493 36.2ZM249.014 42.64C248.634 42.94 248.134 43.08 247.614 43.08C246.654 43.08 246.134 42.52 246.134 41.48V36.4H248.994V34.4H246.134V31.96H243.634V34.4H241.874V36.4H243.634V41.54C243.634 43.9 244.974 45.14 247.314 45.14C248.214 45.14 249.114 44.9 249.714 44.42L249.014 42.64ZM263.018 42.64C262.638 42.94 262.138 43.08 261.618 43.08C260.658 43.08 260.138 42.52 260.138 41.48V36.4H262.998V34.4H260.138V31.96H257.638V34.4H255.878V36.4H257.638V41.54C257.638 43.9 258.978 45.14 261.318 45.14C262.218 45.14 263.118 44.9 263.718 44.42L263.018 42.64ZM270.223 45.14C273.543 45.14 275.923 42.86 275.923 39.66C275.923 36.46 273.543 34.2 270.223 34.2C266.943 34.2 264.543 36.46 264.543 39.66C264.543 42.86 266.943 45.14 270.223 45.14ZM270.223 43C268.423 43 267.063 41.7 267.063 39.66C267.063 37.62 268.423 36.32 270.223 36.32C272.043 36.32 273.403 37.62 273.403 39.66C273.403 41.7 272.043 43 270.223 43ZM292.061 34.32V35.74C291.181 34.68 289.861 34.2 288.361 34.2C285.301 34.2 282.961 36.24 282.961 39.34C282.961 42.44 285.301 44.52 288.361 44.52C289.801 44.52 291.061 44.06 291.941 43.1V43.66C291.941 45.82 290.901 46.9 288.541 46.9C287.061 46.9 285.541 46.4 284.601 45.62L283.481 47.5C284.701 48.5 286.681 49.02 288.681 49.02C292.421 49.02 294.441 47.26 294.441 43.38V34.32H292.061ZM288.741 42.4C286.841 42.4 285.481 41.16 285.481 39.34C285.481 37.54 286.841 36.32 288.741 36.32C290.621 36.32 291.981 37.54 291.981 39.34C291.981 41.16 290.621 42.4 288.741 42.4ZM302.528 45.14C305.848 45.14 308.228 42.86 308.228 39.66C308.228 36.46 305.848 34.2 302.528 34.2C299.248 34.2 296.848 36.46 296.848 39.66C296.848 42.86 299.248 45.14 302.528 45.14ZM302.528 43C300.728 43 299.368 41.7 299.368 39.66C299.368 37.62 300.728 36.32 302.528 36.32C304.348 36.32 305.708 37.62 305.708 39.66C305.708 41.7 304.348 43 302.528 43ZM59.1004 58.2C57.6204 58.2 56.3604 58.68 55.5404 59.56V54.16H53.0404V69H55.5404V63.6C55.5404 61.46 56.7404 60.38 58.5204 60.38C60.1204 60.38 61.0604 61.3 61.0604 63.2V69H63.5604V62.88C63.5604 59.66 61.6604 58.2 59.1004 58.2ZM71.6295 69.14C74.9495 69.14 77.3295 66.86 77.3295 63.66C77.3295 60.46 74.9495 58.2 71.6295 58.2C68.3495 58.2 65.9495 60.46 65.9495 63.66C65.9495 66.86 68.3495 69.14 71.6295 69.14ZM71.6295 67C69.8295 67 68.4695 65.7 68.4695 63.66C68.4695 61.62 69.8295 60.32 71.6295 60.32C73.4495 60.32 74.8095 61.62 74.8095 63.66C74.8095 65.7 73.4495 67 71.6295 67ZM93.2001 58.2C91.5001 58.2 90.0601 58.88 89.2001 59.98C88.4601 58.78 87.1601 58.2 85.6001 58.2C84.1401 58.2 82.9001 58.72 82.1001 59.68V58.32H79.7201V69H82.2201V63.58C82.2201 61.46 83.3401 60.38 85.0001 60.38C86.5201 60.38 87.4001 61.3 87.4001 63.2V69H89.9001V63.58C89.9001 61.46 91.0401 60.38 92.6801 60.38C94.2001 60.38 95.0801 61.3 95.0801 63.2V69H97.5801V62.88C97.5801 59.66 95.7801 58.2 93.2001 58.2ZM110.912 63.72C110.912 60.38 108.632 58.2 105.512 58.2C102.332 58.2 99.9924 60.48 99.9924 63.66C99.9924 66.84 102.312 69.14 105.892 69.14C107.732 69.14 109.232 68.54 110.192 67.4L108.852 65.86C108.092 66.64 107.152 67.02 105.952 67.02C104.092 67.02 102.792 66.02 102.492 64.46H110.872C110.892 64.22 110.912 63.92 110.912 63.72ZM105.512 60.2C107.152 60.2 108.332 61.26 108.532 62.8H102.472C102.712 61.24 103.892 60.2 105.512 60.2ZM133.281 58.32L130.381 66.24L127.501 58.32H125.401L122.461 66.2L119.641 58.32H117.281L121.201 69H123.601L126.401 61.64L129.161 69H131.561L135.501 58.32H133.281ZM138.48 56.56C139.42 56.56 140.08 55.88 140.08 55C140.08 54.18 139.4 53.56 138.48 53.56C137.56 53.56 136.88 54.22 136.88 55.06C136.88 55.9 137.56 56.56 138.48 56.56ZM137.22 69H139.72V58.32H137.22V69ZM148.721 66.64C148.341 66.94 147.841 67.08 147.321 67.08C146.361 67.08 145.841 66.52 145.841 65.48V60.4H148.701V58.4H145.841V55.96H143.341V58.4H141.581V60.4H143.341V65.54C143.341 67.9 144.681 69.14 147.021 69.14C147.921 69.14 148.821 68.9 149.421 68.42L148.721 66.64ZM157.538 58.2C156.058 58.2 154.798 58.68 153.978 59.56V54.16H151.478V69H153.978V63.6C153.978 61.46 155.178 60.38 156.958 60.38C158.558 60.38 159.498 61.3 159.498 63.2V69H161.998V62.88C161.998 59.66 160.098 58.2 157.538 58.2ZM174.777 58.2C173.057 58.2 171.397 58.64 170.257 59.52L171.237 61.34C172.037 60.68 173.277 60.28 174.477 60.28C176.257 60.28 177.137 61.14 177.137 62.6V62.76H174.377C171.137 62.76 169.937 64.16 169.937 65.94C169.937 67.8 171.477 69.14 173.917 69.14C175.517 69.14 176.677 68.62 177.277 67.7V69H179.637V62.74C179.637 59.66 177.857 58.2 174.777 58.2ZM174.437 67.32C173.157 67.32 172.397 66.74 172.397 65.84C172.397 65.06 172.857 64.42 174.557 64.42H177.137V65.66C176.717 66.76 175.657 67.32 174.437 67.32ZM194.432 58.2C192.872 58.2 191.572 58.72 190.752 59.7V58.32H188.372V69H190.872V63.6C190.872 61.46 192.072 60.38 193.852 60.38C195.452 60.38 196.392 61.3 196.392 63.2V69H198.892V62.88C198.892 59.66 196.992 58.2 194.432 58.2ZM212.201 63.72C212.201 60.38 209.921 58.2 206.801 58.2C203.621 58.2 201.281 60.48 201.281 63.66C201.281 66.84 203.601 69.14 207.181 69.14C209.021 69.14 210.521 68.54 211.481 67.4L210.141 65.86C209.381 66.64 208.441 67.02 207.241 67.02C205.381 67.02 204.081 66.02 203.781 64.46H212.161C212.181 64.22 212.201 63.92 212.201 63.72ZM206.801 60.2C208.441 60.2 209.621 61.26 209.821 62.8H203.761C204.001 61.24 205.181 60.2 206.801 60.2ZM228.848 58.32L225.948 66.24L223.068 58.32H220.968L218.028 66.2L215.208 58.32H212.848L216.768 69H219.168L221.968 61.64L224.728 69H227.128L231.068 58.32H228.848ZM246.274 54.16V59.64C245.434 58.66 244.214 58.2 242.834 58.2C239.734 58.2 237.434 60.34 237.434 63.66C237.434 66.98 239.734 69.14 242.834 69.14C244.294 69.14 245.534 68.64 246.374 67.62V69H248.774V54.16H246.274ZM243.134 67C241.334 67 239.954 65.7 239.954 63.66C239.954 61.62 241.334 60.32 243.134 60.32C244.934 60.32 246.314 61.62 246.314 63.66C246.314 65.7 244.934 67 243.134 67ZM262.084 63.72C262.084 60.38 259.804 58.2 256.684 58.2C253.504 58.2 251.164 60.48 251.164 63.66C251.164 66.84 253.484 69.14 257.064 69.14C258.904 69.14 260.404 68.54 261.364 67.4L260.024 65.86C259.264 66.64 258.324 67.02 257.124 67.02C255.264 67.02 253.964 66.02 253.664 64.46H262.044C262.064 64.22 262.084 63.92 262.084 63.72ZM256.684 60.2C258.324 60.2 259.504 61.26 259.704 62.8H253.644C253.884 61.24 255.064 60.2 256.684 60.2ZM269.386 69.14C271.466 69.14 273.126 68.24 273.946 66.64L272.026 65.52C271.386 66.54 270.426 67 269.366 67C267.526 67 266.126 65.74 266.126 63.66C266.126 61.6 267.526 60.32 269.366 60.32C270.426 60.32 271.386 60.78 272.026 61.8L273.946 60.68C273.126 59.06 271.466 58.2 269.386 58.2C266.006 58.2 263.606 60.46 263.606 63.66C263.606 66.86 266.006 69.14 269.386 69.14ZM280.751 69.14C284.071 69.14 286.451 66.86 286.451 63.66C286.451 60.46 284.071 58.2 280.751 58.2C277.471 58.2 275.071 60.46 275.071 63.66C275.071 66.86 277.471 69.14 280.751 69.14ZM280.751 67C278.951 67 277.591 65.7 277.591 63.66C277.591 61.62 278.951 60.32 280.751 60.32C282.571 60.32 283.931 61.62 283.931 63.66C283.931 65.7 282.571 67 280.751 67ZM291.221 59.88V58.32H288.841V69H291.341V63.82C291.341 61.64 292.541 60.52 294.441 60.52C294.621 60.52 294.801 60.54 295.021 60.58V58.2C293.241 58.2 291.941 58.76 291.221 59.88ZM96.0991 82.2C94.6391 82.2 93.3991 82.7 92.5591 83.72V82.32H90.1791V96.88H92.6791V91.7C93.5391 92.68 94.7391 93.14 96.0991 93.14C99.2191 93.14 101.519 90.98 101.519 87.66C101.519 84.36 99.2191 82.2 96.0991 82.2ZM95.8191 91C94.0191 91 92.6391 89.7 92.6391 87.66C92.6391 85.62 94.0191 84.32 95.8191 84.32C97.6191 84.32 98.9791 85.62 98.9791 87.66C98.9791 89.7 97.6191 91 95.8191 91ZM105.15 80.56C106.09 80.56 106.75 79.88 106.75 79C106.75 78.18 106.07 77.56 105.15 77.56C104.23 77.56 103.55 78.22 103.55 79.06C103.55 79.9 104.23 80.56 105.15 80.56ZM103.89 93H106.39V82.32H103.89V93ZM119.711 87.72C119.711 84.38 117.431 82.2 114.311 82.2C111.131 82.2 108.791 84.48 108.791 87.66C108.791 90.84 111.111 93.14 114.691 93.14C116.531 93.14 118.031 92.54 118.991 91.4L117.651 89.86C116.891 90.64 115.951 91.02 114.751 91.02C112.891 91.02 111.591 90.02 111.291 88.46H119.671C119.691 88.22 119.711 87.92 119.711 87.72ZM114.311 84.2C115.951 84.2 117.131 85.26 117.331 86.8H111.271C111.511 85.24 112.691 84.2 114.311 84.2ZM127.013 93.14C129.093 93.14 130.753 92.24 131.573 90.64L129.653 89.52C129.013 90.54 128.053 91 126.993 91C125.153 91 123.753 89.74 123.753 87.66C123.753 85.6 125.153 84.32 126.993 84.32C128.053 84.32 129.013 84.78 129.653 85.8L131.573 84.68C130.753 83.06 129.093 82.2 127.013 82.2C123.633 82.2 121.233 84.46 121.233 87.66C121.233 90.86 123.633 93.14 127.013 93.14ZM143.618 87.72C143.618 84.38 141.338 82.2 138.218 82.2C135.038 82.2 132.698 84.48 132.698 87.66C132.698 90.84 135.018 93.14 138.598 93.14C140.438 93.14 141.938 92.54 142.898 91.4L141.558 89.86C140.798 90.64 139.858 91.02 138.658 91.02C136.798 91.02 135.498 90.02 135.198 88.46H143.578C143.598 88.22 143.618 87.92 143.618 87.72ZM138.218 84.2C139.858 84.2 141.038 85.26 141.238 86.8H135.178C135.418 85.24 136.598 84.2 138.218 84.2ZM161.586 87.72C161.586 84.38 159.306 82.2 156.186 82.2C153.006 82.2 150.666 84.48 150.666 87.66C150.666 90.84 152.986 93.14 156.566 93.14C158.406 93.14 159.906 92.54 160.866 91.4L159.526 89.86C158.766 90.64 157.826 91.02 156.626 91.02C154.766 91.02 153.466 90.02 153.166 88.46H161.546C161.566 88.22 161.586 87.92 161.586 87.72ZM156.186 84.2C157.826 84.2 159.006 85.26 159.206 86.8H153.146C153.386 85.24 154.566 84.2 156.186 84.2ZM167.775 82.2C166.055 82.2 164.395 82.64 163.255 83.52L164.235 85.34C165.035 84.68 166.275 84.28 167.475 84.28C169.255 84.28 170.135 85.14 170.135 86.6V86.76H167.375C164.135 86.76 162.935 88.16 162.935 89.94C162.935 91.8 164.475 93.14 166.915 93.14C168.515 93.14 169.675 92.62 170.275 91.7V93H172.635V86.74C172.635 83.66 170.855 82.2 167.775 82.2ZM167.435 91.32C166.155 91.32 165.395 90.74 165.395 89.84C165.395 89.06 165.855 88.42 167.555 88.42H170.135V89.66C169.715 90.76 168.655 91.32 167.435 91.32ZM180.841 93.14C182.921 93.14 184.581 92.24 185.401 90.64L183.481 89.52C182.841 90.54 181.881 91 180.821 91C178.981 91 177.581 89.74 177.581 87.66C177.581 85.6 178.981 84.32 180.821 84.32C181.881 84.32 182.841 84.78 183.481 85.8L185.401 84.68C184.581 83.06 182.921 82.2 180.841 82.2C177.461 82.2 175.061 84.46 175.061 87.66C175.061 90.86 177.461 93.14 180.841 93.14ZM193.524 82.2C192.044 82.2 190.784 82.68 189.964 83.56V78.16H187.464V93H189.964V87.6C189.964 85.46 191.164 84.38 192.944 84.38C194.544 84.38 195.484 85.3 195.484 87.2V93H197.984V86.88C197.984 83.66 196.084 82.2 193.524 82.2ZM212.403 90.64C212.023 90.94 211.523 91.08 211.003 91.08C210.043 91.08 209.523 90.52 209.523 89.48V84.4H212.383V82.4H209.523V79.96H207.023V82.4H205.263V84.4H207.023V89.54C207.023 91.9 208.363 93.14 210.703 93.14C211.603 93.14 212.503 92.9 213.103 92.42L212.403 90.64ZM216.42 80.56C217.36 80.56 218.02 79.88 218.02 79C218.02 78.18 217.34 77.56 216.42 77.56C215.5 77.56 214.82 78.22 214.82 79.06C214.82 79.9 215.5 80.56 216.42 80.56ZM215.16 93H217.66V82.32H215.16V93ZM234.421 82.2C232.721 82.2 231.281 82.88 230.421 83.98C229.681 82.78 228.381 82.2 226.821 82.2C225.361 82.2 224.121 82.72 223.321 83.68V82.32H220.941V93H223.441V87.58C223.441 85.46 224.561 84.38 226.221 84.38C227.741 84.38 228.621 85.3 228.621 87.2V93H231.121V87.58C231.121 85.46 232.261 84.38 233.901 84.38C235.421 84.38 236.301 85.3 236.301 87.2V93H238.801V86.88C238.801 83.66 237.001 82.2 234.421 82.2ZM252.133 87.72C252.133 84.38 249.853 82.2 246.733 82.2C243.553 82.2 241.213 84.48 241.213 87.66C241.213 90.84 243.533 93.14 247.113 93.14C248.953 93.14 250.453 92.54 251.413 91.4L250.073 89.86C249.313 90.64 248.373 91.02 247.173 91.02C245.313 91.02 244.013 90.02 243.713 88.46H252.093C252.113 88.22 252.133 87.92 252.133 87.72ZM246.733 84.2C248.373 84.2 249.553 85.26 249.753 86.8H243.693C243.933 85.24 245.113 84.2 246.733 84.2ZM254.695 88.36H256.675L257.175 79H254.215L254.695 88.36ZM255.695 93.14C256.615 93.14 257.275 92.44 257.275 91.58C257.275 90.72 256.615 90.04 255.695 90.04C254.755 90.04 254.075 90.72 254.075 91.58C254.075 92.44 254.755 93.14 255.695 93.14Z" fill="#D9CEE0"/>
<path d="M11.136 10.688L13.952 0.511997H7.616L3.904 9.728C2.432 13.248 2.176 14.464 2.176 16.128C2.176 19.776 4.8 22.272 8.384 22.272C11.904 22.272 14.528 19.84 14.528 16.128C14.528 13.504 13.248 11.584 11.136 10.688ZM26.24 10.688L29.056 0.511997H22.72L19.008 9.728C17.536 13.248 17.28 14.464 17.28 16.128C17.28 19.776 19.904 22.272 23.488 22.272C27.008 22.272 29.632 19.84 29.632 16.128C29.632 13.504 28.352 11.584 26.24 10.688Z" fill="#C8703A"/>
<path d="M330.864 88.312L328.048 98.488L334.384 98.488L338.096 89.272C339.568 85.752 339.824 84.536 339.824 82.872C339.824 79.224 337.2 76.728 333.616 76.728C330.096 76.728 327.472 79.16 327.472 82.872C327.472 85.496 328.752 87.416 330.864 88.312ZM315.76 88.312L312.944 98.488L319.28 98.488L322.992 89.272C324.464 85.752 324.72 84.536 324.72 82.872C324.72 79.224 322.096 76.728 318.512 76.728C314.992 76.728 312.368 79.16 312.368 82.872C312.368 85.496 313.648 87.416 315.76 88.312Z" fill="#C8703A"/>
</svg>
