<svg width="1275" height="298" viewBox="0 0 1275 298" fill="none" xmlns="http://www.w3.org/2000/svg">
<path d="M-0.823547 88.3722C-11.6264 88.3722 20.7405 89.9606 31.5432 90.0171C60.0943 90.1665 80.6126 88.7332 105.968 73.1107C121.381 63.6144 134.915 51.3292 144.553 35.9165C149.127 28.6012 153.395 11.0786 144.004 6.1246C123.126 -4.88874 112.709 7.48345 106.334 27.509C100.745 45.065 106.5 62.8612 120.049 74.847C134.619 87.7364 156.346 86.0877 174.176 82.5235C197.025 77.956 215.357 64.5912 233.79 51.2694C256.329 34.9796 281.329 21.1342 308.215 13.4355C362.192 -2.02043 432.746 1.23115 480.289 33.7232C499.655 46.9587 520.959 72.726 498.027 91.4793C483.985 102.962 454.262 92.2268 473.157 74.3901C494.559 54.1876 532.223 42.9878 560.566 52.5488C598.123 65.2181 628.911 89.6404 661.963 110.762C696.792 133.018 722.6 164.73 755.681 189.445C790.904 215.761 824.154 246.85 864.484 265.661C903.696 283.951 948.345 294.465 991.574 295.545C1019.07 296.232 1046.97 296.359 1074.41 294.357C1098.04 292.633 1120.8 283.216 1143.44 276.811C1171.46 268.885 1202.06 248.783 1224.54 230.204C1243.47 214.555 1262.7 194.561 1273 172.265" stroke="#D9CEE0" stroke-width="3" stroke-linecap="round"/>
<path d="M1062.8 237.202H1059.42C1067.16 237.202 1074.22 234.037 1079.33 228.889C1084.44 223.785 1087.58 216.676 1087.58 208.853C1087.58 193.163 1074.97 180.482 1059.42 180.482H1055.08C1062.16 180.482 1068.56 177.607 1073.16 172.927C1077.78 168.269 1080.63 161.851 1080.63 154.741C1080.63 140.5 1069.22 129 1055.08 129H969.872C962.815 129 956.444 131.875 951.799 136.533C947.175 141.191 944.322 147.654 944.322 154.741C944.322 168.938 955.781 180.482 969.872 180.482H965.536C957.772 180.482 950.737 183.647 945.627 188.795C940.517 193.899 937.376 201.008 937.376 208.853C937.376 224.521 949.985 237.18 965.536 237.18H962.196C953.834 237.18 946.29 240.589 940.849 246.094C935.407 251.599 932 259.199 932 267.601C932 284.361 945.538 298 962.196 298H1062.83C1071.14 298 1078.69 294.59 1084.15 289.085C1089.62 283.581 1093 275.981 1093 267.601C1093 250.797 1079.51 237.18 1062.83 237.18L1062.8 237.202ZM1041.39 214.536C1028.74 218.013 1016.92 229.914 1013.47 242.662C1013.19 243.732 1011.75 243.732 1011.44 242.662C1007.99 229.914 996.174 218.013 983.521 214.536C982.459 214.247 982.459 212.798 983.521 212.486C996.174 209.009 1007.99 197.108 1011.44 184.36C1011.73 183.29 1013.16 183.29 1013.47 184.36C1016.92 197.108 1028.74 209.009 1041.39 212.486C1042.45 212.776 1042.45 214.224 1041.39 214.536V214.536Z" fill="#C8703A"/>
<path d="M821.064 134.417L813.88 244.524L855.933 259.987L920.312 170.767C924.277 165.261 921.894 157.516 915.556 155.185L834.806 125.495C828.384 123.133 821.506 127.615 821.077 134.445L821.064 134.417Z" fill="#A38FBF"/>
<path d="M861.731 68.8111C861.731 68.8111 845.727 97.0827 873.752 115.488C873.752 115.488 894.737 83.6472 861.731 68.8111V68.8111Z" fill="#A38FBF"/>
<path d="M884.89 110.938C888.049 104.212 891.302 96.9757 890.193 89.6278C889.302 83.8759 885.836 78.8828 882.432 74.1729C879.028 69.4629 875.482 64.5588 874.394 58.8291C873.305 53.0994 875.497 46.3018 880.839 44.0025C885.761 41.8804 891.71 44.3045 895.155 48.3898C898.599 52.475 900.05 57.864 901.075 63.1207C901.568 56.5036 906.803 50.3751 913.368 49.4492C919.934 48.5233 926.93 53.4408 927.725 60.0337C928.519 66.6266 922.27 73.2587 915.712 72.3633C921.137 72.4155 926.763 74.3657 930.247 78.5365C933.731 82.7074 934.484 89.2849 931.167 93.6079C927.849 97.9308 920.367 98.5194 917.069 94.2277C921.663 99.5645 919.449 109.125 913.002 111.919C906.555 114.712 898.063 109.742 897.352 102.729C891.723 113.853 884.63 124.841 880.273 136.433C877.511 135.512 874.768 134.669 872.191 133.438C874.002 125.553 881.428 118.358 884.903 110.967L884.89 110.938Z" fill="#A38FBF"/>
<path d="M1212.12 233.174C1212.54 235.009 1212.76 236.872 1212.76 238.722C1212.81 244.706 1208.96 250.03 1203.34 252.123L1163.83 266.833C1159.62 268.399 1154.87 268.035 1151.12 265.541C1151.11 265.52 1151.06 265.515 1151.02 265.481C1146.42 262.404 1142.97 257.873 1140.68 252.845C1133.69 237.583 1133.5 220.645 1133.39 204.106C1133.21 181.21 1130.12 153.701 1107.83 142.215C1105.23 140.884 1105.32 137.055 1108 135.844C1124.82 128.252 1143.69 122.96 1161.24 116.947C1163.89 116.033 1166.44 118.379 1165.87 121.106C1165.87 121.106 1165.89 121.148 1165.84 121.163C1159.62 150.807 1163.45 161.079 1181.09 184.26C1187.81 193.095 1209.61 222.365 1212.1 233.181L1212.12 233.174Z" fill="#DACFE2"/>
<path d="M1127.13 118.593C1127.23 119.004 1127.32 119.423 1127.4 119.842C1125.19 119.194 1123.46 119.626 1121.25 118.408C1115.37 115.143 1109.6 111.931 1105.13 106.76C1103.38 104.731 1093.46 90.6109 1098.68 89.0454C1103.15 87.6886 1111.46 94.1342 1114.57 96.8404C1116.33 98.3696 1117.82 100.161 1119.11 102.079C1122.61 107.276 1125.69 112.509 1127.15 118.585L1127.13 118.593Z" fill="#DACFE2"/>
<path d="M1134.32 115.82C1134.49 110.609 1137.6 106.345 1140.12 101.799C1142.95 96.665 1146.5 91.6894 1151.19 88.0956C1152.44 87.131 1155.07 84.276 1156.46 86.1555C1157.4 87.3964 1156.54 91.6533 1156.35 93.1019C1155.73 97.5051 1154.2 101.778 1151.77 105.526C1147.79 111.685 1141.51 116.276 1134.45 118.214C1134.33 117.381 1134.29 116.567 1134.31 115.799L1134.32 115.82Z" fill="#DACFE2"/>
<path d="M1122.03 97.8848C1122.03 97.8848 1121.93 97.8741 1121.9 97.8611C1121.59 97.7874 1121.41 97.4981 1121.24 97.2297C1117.51 91.4778 1113.76 86.1344 1111.64 79.5255C1109.51 72.9167 1108.66 66.2357 1109.33 59.5302C1109.44 58.4013 1109.66 58.675 1110.46 59.1819C1111.71 59.9761 1113.18 60.4457 1114.33 61.4191C1119.72 65.9812 1122.37 72.7059 1123.4 79.5356C1123.57 80.7042 1125.26 98.2237 1122.07 97.8693L1122.03 97.8848Z" fill="#DACFE2"/>
<path d="M1148.11 68.9359C1144.94 70.3742 1141.87 72.8716 1139.57 75.2228C1137.27 77.5948 1135.24 80.225 1133.59 83.0956C1131.38 86.9066 1127.21 94.7452 1129.68 99.1616C1130.6 99.2005 1131.46 98.8333 1132.2 98.3435C1137.06 95.2289 1141.54 91.2132 1144.87 86.4633C1146.85 83.6378 1147.27 80.8732 1148.29 77.7148C1148.58 76.8257 1150.07 68.158 1150.15 68.127C1149.47 68.3333 1148.78 68.5891 1148.11 68.8865L1148.11 68.9359Z" fill="#DACFE2"/>
<path d="M1139.2 41.2479C1135.07 45.4909 1131.86 51.2142 1129.9 56.7118C1128.28 61.3257 1125.62 71.3068 1129.63 75.3891C1131.38 77.1577 1139.06 64 1139.59 62.6875C1141.11 58.8512 1142.08 54.7872 1142.1 50.6297C1142.1 46.93 1140.54 44.0223 1139.98 40.4825C1139.72 40.7446 1139.46 40.9858 1139.2 41.2479V41.2479Z" fill="#DACFE2"/>
</svg>
