<svg width="444" height="73" viewBox="0 0 444 73" fill="none" xmlns="http://www.w3.org/2000/svg">
<path d="M72.3631 19.8807C71.2698 19.8807 70.2631 19.7007 69.3431 19.3407C68.4231 18.9807 67.6231 18.4807 66.9431 17.8407C66.2631 17.1873 65.7365 16.4273 65.3631 15.5607C64.9898 14.6807 64.8031 13.7207 64.8031 12.6807C64.8031 11.6407 64.9898 10.6873 65.3631 9.82066C65.7365 8.94066 66.2631 8.18066 66.9431 7.54066C67.6231 6.88733 68.4231 6.38066 69.3431 6.02066C70.2631 5.66066 71.2631 5.48066 72.3431 5.48066C73.4365 5.48066 74.4365 5.66066 75.3431 6.02066C76.2631 6.38066 77.0631 6.88733 77.7431 7.54066C78.4231 8.18066 78.9498 8.94066 79.3231 9.82066C79.6965 10.6873 79.8831 11.6407 79.8831 12.6807C79.8831 13.7207 79.6965 14.6807 79.3231 15.5607C78.9498 16.4407 78.4231 17.2007 77.7431 17.8407C77.0631 18.4807 76.2631 18.9807 75.3431 19.3407C74.4365 19.7007 73.4431 19.8807 72.3631 19.8807ZM72.3431 17.6007C73.0498 17.6007 73.7031 17.4807 74.3031 17.2407C74.9031 17.0007 75.4231 16.6607 75.8631 16.2207C76.3031 15.7673 76.6431 15.2473 76.8831 14.6607C77.1365 14.0607 77.2631 13.4007 77.2631 12.6807C77.2631 11.9607 77.1365 11.3073 76.8831 10.7207C76.6431 10.1207 76.3031 9.60066 75.8631 9.16066C75.4231 8.70733 74.9031 8.36066 74.3031 8.12066C73.7031 7.88066 73.0498 7.76066 72.3431 7.76066C71.6365 7.76066 70.9831 7.88066 70.3831 8.12066C69.7965 8.36066 69.2765 8.70733 68.8231 9.16066C68.3831 9.60066 68.0365 10.1207 67.7831 10.7207C67.5431 11.3073 67.4231 11.9607 67.4231 12.6807C67.4231 13.3873 67.5431 14.0407 67.7831 14.6407C68.0365 15.2407 68.3831 15.7673 68.8231 16.2207C69.2631 16.6607 69.7831 17.0007 70.3831 17.2407C70.9831 17.4807 71.6365 17.6007 72.3431 17.6007ZM86.9191 19.8207C86.0124 19.8207 85.2124 19.654 84.5191 19.3207C83.8257 18.974 83.2857 18.454 82.8991 17.7607C82.5124 17.054 82.3191 16.1673 82.3191 15.1007V9.00066H84.8191V14.7607C84.8191 15.7207 85.0324 16.4407 85.4591 16.9207C85.8991 17.3873 86.5191 17.6207 87.3191 17.6207C87.9057 17.6207 88.4124 17.5007 88.8391 17.2607C89.2791 17.0207 89.6191 16.6607 89.8591 16.1807C90.1124 15.7007 90.2391 15.1073 90.2391 14.4007V9.00066H92.7391V19.6807H90.3591V16.8007L90.7791 17.6807C90.4191 18.374 89.8924 18.9073 89.1991 19.2807C88.5057 19.6407 87.7457 19.8207 86.9191 19.8207ZM100.032 19.8207C98.859 19.8207 97.9524 19.5207 97.3124 18.9207C96.6724 18.3073 96.3524 17.4073 96.3524 16.2207V6.64066H98.8524V16.1607C98.8524 16.6673 98.979 17.0607 99.2324 17.3407C99.499 17.6207 99.8657 17.7607 100.332 17.7607C100.892 17.7607 101.359 17.614 101.732 17.3207L102.432 19.1007C102.139 19.3407 101.779 19.5207 101.352 19.6407C100.926 19.7607 100.486 19.8207 100.032 19.8207ZM94.5924 11.0807V9.08066H101.712V11.0807H94.5924ZM114.816 19.8207C113.723 19.8207 112.75 19.5873 111.896 19.1207C111.043 18.6407 110.37 17.9873 109.876 17.1607C109.383 16.334 109.136 15.394 109.136 14.3407C109.136 13.274 109.383 12.334 109.876 11.5207C110.37 10.694 111.043 10.0473 111.896 9.58066C112.75 9.114 113.723 8.88066 114.816 8.88066C115.923 8.88066 116.903 9.114 117.756 9.58066C118.623 10.0473 119.296 10.6873 119.776 11.5007C120.27 12.314 120.516 13.2607 120.516 14.3407C120.516 15.394 120.27 16.334 119.776 17.1607C119.296 17.9873 118.623 18.6407 117.756 19.1207C116.903 19.5873 115.923 19.8207 114.816 19.8207ZM114.816 17.6807C115.43 17.6807 115.976 17.5473 116.456 17.2807C116.936 17.014 117.31 16.6273 117.576 16.1207C117.856 15.614 117.996 15.0207 117.996 14.3407C117.996 13.6473 117.856 13.054 117.576 12.5607C117.31 12.054 116.936 11.6673 116.456 11.4007C115.976 11.134 115.436 11.0007 114.836 11.0007C114.223 11.0007 113.676 11.134 113.196 11.4007C112.73 11.6673 112.356 12.054 112.076 12.5607C111.796 13.054 111.656 13.6473 111.656 14.3407C111.656 15.0207 111.796 15.614 112.076 16.1207C112.356 16.6273 112.73 17.014 113.196 17.2807C113.676 17.5473 114.216 17.6807 114.816 17.6807ZM123.247 19.6807V8.40066C123.247 7.28066 123.574 6.38733 124.227 5.72066C124.894 5.04066 125.84 4.70066 127.067 4.70066C127.507 4.70066 127.92 4.74733 128.307 4.84066C128.707 4.934 129.04 5.08066 129.307 5.28066L128.627 7.16066C128.44 7.014 128.227 6.90733 127.987 6.84066C127.747 6.76066 127.5 6.72066 127.247 6.72066C126.727 6.72066 126.334 6.86733 126.067 7.16066C125.8 7.44066 125.667 7.86733 125.667 8.44066V9.64066L125.747 10.7607V19.6807H123.247ZM121.487 11.0807V9.08066H128.607V11.0807H121.487ZM139.837 19.8207C138.664 19.8207 137.757 19.5207 137.117 18.9207C136.477 18.3073 136.157 17.4073 136.157 16.2207V6.64066H138.657V16.1607C138.657 16.6673 138.784 17.0607 139.037 17.3407C139.304 17.6207 139.67 17.7607 140.137 17.7607C140.697 17.7607 141.164 17.614 141.537 17.3207L142.237 19.1007C141.944 19.3407 141.584 19.5207 141.157 19.6407C140.73 19.7607 140.29 19.8207 139.837 19.8207ZM134.397 11.0807V9.08066H141.517V11.0807H134.397ZM150.354 8.88066C151.207 8.88066 151.967 9.04733 152.634 9.38066C153.314 9.714 153.847 10.2273 154.234 10.9207C154.62 11.6007 154.814 12.4807 154.814 13.5607V19.6807H152.314V13.8807C152.314 12.934 152.087 12.2273 151.634 11.7607C151.194 11.294 150.574 11.0607 149.774 11.0607C149.187 11.0607 148.667 11.1807 148.214 11.4207C147.76 11.6607 147.407 12.0207 147.154 12.5007C146.914 12.9673 146.794 13.5607 146.794 14.2807V19.6807H144.294V4.84066H146.794V11.8807L146.254 11.0007C146.627 10.3207 147.167 9.80066 147.874 9.44066C148.594 9.06733 149.42 8.88066 150.354 8.88066ZM163.025 19.8207C161.838 19.8207 160.798 19.5873 159.905 19.1207C159.025 18.6407 158.338 17.9873 157.845 17.1607C157.365 16.334 157.125 15.394 157.125 14.3407C157.125 13.274 157.358 12.334 157.825 11.5207C158.305 10.694 158.958 10.0473 159.785 9.58066C160.625 9.114 161.578 8.88066 162.645 8.88066C163.685 8.88066 164.611 9.10733 165.425 9.56066C166.238 10.014 166.878 10.654 167.345 11.4807C167.811 12.3073 168.045 13.2807 168.045 14.4007C168.045 14.5073 168.038 14.6273 168.025 14.7607C168.025 14.894 168.018 15.0207 168.005 15.1407H159.105V13.4807H166.685L165.705 14.0007C165.718 13.3873 165.591 12.8473 165.325 12.3807C165.058 11.914 164.691 11.5473 164.225 11.2807C163.771 11.014 163.245 10.8807 162.645 10.8807C162.031 10.8807 161.491 11.014 161.025 11.2807C160.571 11.5473 160.211 11.9207 159.945 12.4007C159.691 12.8673 159.565 13.4207 159.565 14.0607V14.4607C159.565 15.1007 159.711 15.6673 160.005 16.1607C160.298 16.654 160.711 17.034 161.245 17.3007C161.778 17.5673 162.391 17.7007 163.085 17.7007C163.685 17.7007 164.225 17.6073 164.705 17.4207C165.185 17.234 165.611 16.9407 165.985 16.5407L167.325 18.0807C166.845 18.6407 166.238 19.074 165.505 19.3807C164.785 19.674 163.958 19.8207 163.025 19.8207ZM176.313 19.6807V8.40066C176.313 7.28066 176.64 6.38733 177.293 5.72066C177.96 5.04066 178.907 4.70066 180.133 4.70066C180.573 4.70066 180.987 4.74733 181.373 4.84066C181.773 4.934 182.107 5.08066 182.373 5.28066L181.693 7.16066C181.507 7.014 181.293 6.90733 181.053 6.84066C180.813 6.76066 180.567 6.72066 180.313 6.72066C179.793 6.72066 179.4 6.86733 179.133 7.16066C178.867 7.44066 178.733 7.86733 178.733 8.44066V9.64066L178.813 10.7607V19.6807H176.313ZM174.553 11.0807V9.08066H181.673V11.0807H174.553ZM183.433 19.6807V9.00066H185.933V19.6807H183.433ZM184.693 7.24066C184.227 7.24066 183.84 7.094 183.533 6.80066C183.24 6.50733 183.093 6.154 183.093 5.74066C183.093 5.314 183.24 4.96066 183.533 4.68066C183.84 4.38733 184.227 4.24066 184.693 4.24066C185.16 4.24066 185.54 4.38066 185.833 4.66066C186.14 4.92733 186.293 5.26733 186.293 5.68066C186.293 6.12066 186.147 6.494 185.853 6.80066C185.56 7.094 185.173 7.24066 184.693 7.24066ZM189.215 19.6807V9.00066H191.595V11.9407L191.315 11.0807C191.635 10.3607 192.135 9.814 192.815 9.44066C193.509 9.06733 194.369 8.88066 195.395 8.88066V11.2607C195.289 11.234 195.189 11.2207 195.095 11.2207C195.002 11.2073 194.909 11.2007 194.815 11.2007C193.869 11.2007 193.115 11.4807 192.555 12.0407C191.995 12.5873 191.715 13.4073 191.715 14.5007V19.6807H189.215ZM202.439 19.8207C201.252 19.8207 200.212 19.5873 199.319 19.1207C198.439 18.6407 197.752 17.9873 197.259 17.1607C196.779 16.334 196.539 15.394 196.539 14.3407C196.539 13.274 196.772 12.334 197.239 11.5207C197.719 10.694 198.372 10.0473 199.199 9.58066C200.039 9.114 200.992 8.88066 202.059 8.88066C203.099 8.88066 204.025 9.10733 204.839 9.56066C205.652 10.014 206.292 10.654 206.759 11.4807C207.225 12.3073 207.459 13.2807 207.459 14.4007C207.459 14.5073 207.452 14.6273 207.439 14.7607C207.439 14.894 207.432 15.0207 207.419 15.1407H198.519V13.4807H206.099L205.119 14.0007C205.132 13.3873 205.005 12.8473 204.739 12.3807C204.472 11.914 204.105 11.5473 203.639 11.2807C203.185 11.014 202.659 10.8807 202.059 10.8807C201.445 10.8807 200.905 11.014 200.439 11.2807C199.985 11.5473 199.625 11.9207 199.359 12.4007C199.105 12.8673 198.979 13.4207 198.979 14.0607V14.4607C198.979 15.1007 199.125 15.6673 199.419 16.1607C199.712 16.654 200.125 17.034 200.659 17.3007C201.192 17.5673 201.805 17.7007 202.499 17.7007C203.099 17.7007 203.639 17.6073 204.119 17.4207C204.599 17.234 205.025 16.9407 205.399 16.5407L206.739 18.0807C206.259 18.6407 205.652 19.074 204.919 19.3807C204.199 19.674 203.372 19.8207 202.439 19.8207ZM220.287 19.8207C219.167 19.8207 218.167 19.5873 217.287 19.1207C216.421 18.6407 215.741 17.9873 215.247 17.1607C214.754 16.334 214.507 15.394 214.507 14.3407C214.507 13.274 214.754 12.334 215.247 11.5207C215.741 10.694 216.421 10.0473 217.287 9.58066C218.167 9.114 219.167 8.88066 220.287 8.88066C221.327 8.88066 222.241 9.094 223.027 9.52066C223.827 9.934 224.434 10.5473 224.847 11.3607L222.927 12.4807C222.607 11.974 222.214 11.6007 221.747 11.3607C221.294 11.1207 220.801 11.0007 220.267 11.0007C219.654 11.0007 219.101 11.134 218.607 11.4007C218.114 11.6673 217.727 12.054 217.447 12.5607C217.167 13.054 217.027 13.6473 217.027 14.3407C217.027 15.034 217.167 15.634 217.447 16.1407C217.727 16.634 218.114 17.014 218.607 17.2807C219.101 17.5473 219.654 17.6807 220.267 17.6807C220.801 17.6807 221.294 17.5607 221.747 17.3207C222.214 17.0807 222.607 16.7073 222.927 16.2007L224.847 17.3207C224.434 18.1207 223.827 18.7407 223.027 19.1807C222.241 19.6073 221.327 19.8207 220.287 19.8207ZM231.652 19.8207C230.559 19.8207 229.586 19.5873 228.732 19.1207C227.879 18.6407 227.206 17.9873 226.712 17.1607C226.219 16.334 225.972 15.394 225.972 14.3407C225.972 13.274 226.219 12.334 226.712 11.5207C227.206 10.694 227.879 10.0473 228.732 9.58066C229.586 9.114 230.559 8.88066 231.652 8.88066C232.759 8.88066 233.739 9.114 234.592 9.58066C235.459 10.0473 236.132 10.6873 236.612 11.5007C237.106 12.314 237.352 13.2607 237.352 14.3407C237.352 15.394 237.106 16.334 236.612 17.1607C236.132 17.9873 235.459 18.6407 234.592 19.1207C233.739 19.5873 232.759 19.8207 231.652 19.8207ZM231.652 17.6807C232.266 17.6807 232.812 17.5473 233.292 17.2807C233.772 17.014 234.146 16.6273 234.412 16.1207C234.692 15.614 234.832 15.0207 234.832 14.3407C234.832 13.6473 234.692 13.054 234.412 12.5607C234.146 12.054 233.772 11.6673 233.292 11.4007C232.812 11.134 232.272 11.0007 231.672 11.0007C231.059 11.0007 230.512 11.134 230.032 11.4007C229.566 11.6673 229.192 12.054 228.912 12.5607C228.632 13.054 228.492 13.6473 228.492 14.3407C228.492 15.0207 228.632 15.614 228.912 16.1207C229.192 16.6273 229.566 17.014 230.032 17.2807C230.512 17.5473 231.052 17.6807 231.652 17.6807ZM253.223 8.88066C254.076 8.88066 254.829 9.04733 255.483 9.38066C256.149 9.714 256.669 10.2273 257.043 10.9207C257.416 11.6007 257.603 12.4807 257.603 13.5607V19.6807H255.103V13.8807C255.103 12.934 254.896 12.2273 254.483 11.7607C254.069 11.294 253.476 11.0607 252.703 11.0607C252.156 11.0607 251.669 11.1807 251.243 11.4207C250.829 11.6607 250.503 12.014 250.263 12.4807C250.036 12.9473 249.923 13.5407 249.923 14.2607V19.6807H247.423V13.8807C247.423 12.934 247.216 12.2273 246.803 11.7607C246.389 11.294 245.796 11.0607 245.023 11.0607C244.476 11.0607 243.989 11.1807 243.563 11.4207C243.149 11.6607 242.823 12.014 242.583 12.4807C242.356 12.9473 242.243 13.5407 242.243 14.2607V19.6807H239.743V9.00066H242.123V11.8407L241.703 11.0007C242.063 10.3073 242.583 9.78066 243.263 9.42066C243.956 9.06066 244.743 8.88066 245.623 8.88066C246.623 8.88066 247.489 9.12733 248.223 9.62066C248.969 10.114 249.463 10.8607 249.703 11.8607L248.723 11.5207C249.069 10.7207 249.643 10.0807 250.443 9.60066C251.243 9.12066 252.169 8.88066 253.223 8.88066ZM265.837 19.8207C264.65 19.8207 263.61 19.5873 262.717 19.1207C261.837 18.6407 261.15 17.9873 260.657 17.1607C260.177 16.334 259.937 15.394 259.937 14.3407C259.937 13.274 260.17 12.334 260.637 11.5207C261.117 10.694 261.77 10.0473 262.597 9.58066C263.437 9.114 264.39 8.88066 265.457 8.88066C266.497 8.88066 267.424 9.10733 268.237 9.56066C269.05 10.014 269.69 10.654 270.157 11.4807C270.624 12.3073 270.857 13.2807 270.857 14.4007C270.857 14.5073 270.85 14.6273 270.837 14.7607C270.837 14.894 270.83 15.0207 270.817 15.1407H261.917V13.4807H269.497L268.517 14.0007C268.53 13.3873 268.404 12.8473 268.137 12.3807C267.87 11.914 267.504 11.5473 267.037 11.2807C266.584 11.014 266.057 10.8807 265.457 10.8807C264.844 10.8807 264.304 11.014 263.837 11.2807C263.384 11.5473 263.024 11.9207 262.757 12.4007C262.504 12.8673 262.377 13.4207 262.377 14.0607V14.4607C262.377 15.1007 262.524 15.6673 262.817 16.1607C263.11 16.654 263.524 17.034 264.057 17.3007C264.59 17.5673 265.204 17.7007 265.897 17.7007C266.497 17.7007 267.037 17.6073 267.517 17.4207C267.997 17.234 268.424 16.9407 268.797 16.5407L270.137 18.0807C269.657 18.6407 269.05 19.074 268.317 19.3807C267.597 19.674 266.77 19.8207 265.837 19.8207ZM276.558 19.8207C275.665 19.8207 274.805 19.7073 273.978 19.4807C273.165 19.2407 272.518 18.954 272.038 18.6207L272.998 16.7207C273.478 17.0273 274.052 17.2807 274.718 17.4807C275.385 17.6807 276.052 17.7807 276.718 17.7807C277.505 17.7807 278.072 17.674 278.418 17.4607C278.778 17.2473 278.958 16.9607 278.958 16.6007C278.958 16.3073 278.838 16.0873 278.598 15.9407C278.358 15.7807 278.045 15.6607 277.658 15.5807C277.272 15.5007 276.838 15.4273 276.358 15.3607C275.892 15.294 275.418 15.2073 274.938 15.1007C274.472 14.9807 274.045 14.814 273.658 14.6007C273.272 14.374 272.958 14.074 272.718 13.7007C272.478 13.3273 272.358 12.834 272.358 12.2207C272.358 11.5407 272.552 10.954 272.938 10.4607C273.325 9.954 273.865 9.56733 274.558 9.30066C275.265 9.02066 276.098 8.88066 277.058 8.88066C277.778 8.88066 278.505 8.96066 279.238 9.12066C279.972 9.28066 280.578 9.50733 281.058 9.80066L280.098 11.7007C279.592 11.394 279.078 11.1873 278.558 11.0807C278.052 10.9607 277.545 10.9007 277.038 10.9007C276.278 10.9007 275.712 11.014 275.338 11.2407C274.978 11.4673 274.798 11.754 274.798 12.1007C274.798 12.4207 274.918 12.6607 275.158 12.8207C275.398 12.9807 275.712 13.1073 276.098 13.2007C276.485 13.294 276.912 13.374 277.378 13.4407C277.858 13.494 278.332 13.5807 278.798 13.7007C279.265 13.8207 279.692 13.9873 280.078 14.2007C280.478 14.4007 280.798 14.6873 281.038 15.0607C281.278 15.434 281.398 15.9207 281.398 16.5207C281.398 17.1873 281.198 17.7673 280.798 18.2607C280.412 18.754 279.858 19.1407 279.138 19.4207C278.418 19.6873 277.558 19.8207 276.558 19.8207ZM289.419 19.6807V8.40066C289.419 7.28066 289.745 6.38733 290.399 5.72066C291.065 5.04066 292.012 4.70066 293.239 4.70066C293.679 4.70066 294.092 4.74733 294.479 4.84066C294.879 4.934 295.212 5.08066 295.479 5.28066L294.799 7.16066C294.612 7.014 294.399 6.90733 294.159 6.84066C293.919 6.76066 293.672 6.72066 293.419 6.72066C292.899 6.72066 292.505 6.86733 292.239 7.16066C291.972 7.44066 291.839 7.86733 291.839 8.44066V9.64066L291.919 10.7607V19.6807H289.419ZM287.659 11.0807V9.08066H294.779V11.0807H287.659ZM296.539 19.6807V9.00066H299.039V19.6807H296.539ZM297.799 7.24066C297.332 7.24066 296.945 7.094 296.639 6.80066C296.345 6.50733 296.199 6.154 296.199 5.74066C296.199 5.314 296.345 4.96066 296.639 4.68066C296.945 4.38733 297.332 4.24066 297.799 4.24066C298.265 4.24066 298.645 4.38066 298.939 4.66066C299.245 4.92733 299.399 5.26733 299.399 5.68066C299.399 6.12066 299.252 6.494 298.959 6.80066C298.665 7.094 298.279 7.24066 297.799 7.24066ZM302.321 19.6807V9.00066H304.701V11.9407L304.421 11.0807C304.741 10.3607 305.241 9.814 305.921 9.44066C306.614 9.06733 307.474 8.88066 308.501 8.88066V11.2607C308.394 11.234 308.294 11.2207 308.201 11.2207C308.108 11.2073 308.014 11.2007 307.921 11.2007C306.974 11.2007 306.221 11.4807 305.661 12.0407C305.101 12.5873 304.821 13.4073 304.821 14.5007V19.6807H302.321ZM324.102 8.88066C324.955 8.88066 325.708 9.04733 326.362 9.38066C327.028 9.714 327.548 10.2273 327.922 10.9207C328.295 11.6007 328.482 12.4807 328.482 13.5607V19.6807H325.982V13.8807C325.982 12.934 325.775 12.2273 325.362 11.7607C324.948 11.294 324.355 11.0607 323.582 11.0607C323.035 11.0607 322.548 11.1807 322.122 11.4207C321.708 11.6607 321.382 12.014 321.142 12.4807C320.915 12.9473 320.802 13.5407 320.802 14.2607V19.6807H318.302V13.8807C318.302 12.934 318.095 12.2273 317.682 11.7607C317.268 11.294 316.675 11.0607 315.902 11.0607C315.355 11.0607 314.868 11.1807 314.442 11.4207C314.028 11.6607 313.702 12.014 313.462 12.4807C313.235 12.9473 313.122 13.5407 313.122 14.2607V19.6807H310.622V9.00066H313.002V11.8407L312.582 11.0007C312.942 10.3073 313.462 9.78066 314.142 9.42066C314.835 9.06066 315.622 8.88066 316.502 8.88066C317.502 8.88066 318.368 9.12733 319.102 9.62066C319.848 10.114 320.342 10.8607 320.582 11.8607L319.602 11.5207C319.948 10.7207 320.522 10.0807 321.322 9.60066C322.122 9.12066 323.048 8.88066 324.102 8.88066ZM337.736 8.88066C338.59 8.88066 339.35 9.04733 340.016 9.38066C340.696 9.714 341.23 10.2273 341.616 10.9207C342.003 11.6007 342.196 12.4807 342.196 13.5607V19.6807H339.696V13.8807C339.696 12.934 339.47 12.2273 339.016 11.7607C338.576 11.294 337.956 11.0607 337.156 11.0607C336.57 11.0607 336.05 11.1807 335.596 11.4207C335.143 11.6607 334.79 12.0207 334.536 12.5007C334.296 12.9673 334.176 13.5607 334.176 14.2807V19.6807H331.676V9.00066H334.056V11.8807L333.636 11.0007C334.01 10.3207 334.55 9.80066 335.256 9.44066C335.976 9.06733 336.803 8.88066 337.736 8.88066ZM350.407 19.8207C349.221 19.8207 348.181 19.5873 347.287 19.1207C346.407 18.6407 345.721 17.9873 345.227 17.1607C344.747 16.334 344.507 15.394 344.507 14.3407C344.507 13.274 344.741 12.334 345.207 11.5207C345.687 10.694 346.341 10.0473 347.167 9.58066C348.007 9.114 348.961 8.88066 350.027 8.88066C351.067 8.88066 351.994 9.10733 352.807 9.56066C353.621 10.014 354.261 10.654 354.727 11.4807C355.194 12.3073 355.427 13.2807 355.427 14.4007C355.427 14.5073 355.421 14.6273 355.407 14.7607C355.407 14.894 355.401 15.0207 355.387 15.1407H346.487V13.4807H354.067L353.087 14.0007C353.101 13.3873 352.974 12.8473 352.707 12.3807C352.441 11.914 352.074 11.5473 351.607 11.2807C351.154 11.014 350.627 10.8807 350.027 10.8807C349.414 10.8807 348.874 11.014 348.407 11.2807C347.954 11.5473 347.594 11.9207 347.327 12.4007C347.074 12.8673 346.947 13.4207 346.947 14.0607V14.4607C346.947 15.1007 347.094 15.6673 347.387 16.1607C347.681 16.654 348.094 17.034 348.627 17.3007C349.161 17.5673 349.774 17.7007 350.467 17.7007C351.067 17.7007 351.607 17.6073 352.087 17.4207C352.567 17.234 352.994 16.9407 353.367 16.5407L354.707 18.0807C354.227 18.6407 353.621 19.074 352.887 19.3807C352.167 19.674 351.341 19.8207 350.407 19.8207ZM361.129 19.8207C360.235 19.8207 359.375 19.7073 358.549 19.4807C357.735 19.2407 357.089 18.954 356.609 18.6207L357.569 16.7207C358.049 17.0273 358.622 17.2807 359.289 17.4807C359.955 17.6807 360.622 17.7807 361.289 17.7807C362.075 17.7807 362.642 17.674 362.989 17.4607C363.349 17.2473 363.529 16.9607 363.529 16.6007C363.529 16.3073 363.409 16.0873 363.169 15.9407C362.929 15.7807 362.615 15.6607 362.229 15.5807C361.842 15.5007 361.409 15.4273 360.929 15.3607C360.462 15.294 359.989 15.2073 359.509 15.1007C359.042 14.9807 358.615 14.814 358.229 14.6007C357.842 14.374 357.529 14.074 357.289 13.7007C357.049 13.3273 356.929 12.834 356.929 12.2207C356.929 11.5407 357.122 10.954 357.509 10.4607C357.895 9.954 358.435 9.56733 359.129 9.30066C359.835 9.02066 360.669 8.88066 361.629 8.88066C362.349 8.88066 363.075 8.96066 363.809 9.12066C364.542 9.28066 365.149 9.50733 365.629 9.80066L364.669 11.7007C364.162 11.394 363.649 11.1873 363.129 11.0807C362.622 10.9607 362.115 10.9007 361.609 10.9007C360.849 10.9007 360.282 11.014 359.909 11.2407C359.549 11.4673 359.369 11.754 359.369 12.1007C359.369 12.4207 359.489 12.6607 359.729 12.8207C359.969 12.9807 360.282 13.1073 360.669 13.2007C361.055 13.294 361.482 13.374 361.949 13.4407C362.429 13.494 362.902 13.5807 363.369 13.7007C363.835 13.8207 364.262 13.9873 364.649 14.2007C365.049 14.4007 365.369 14.6873 365.609 15.0607C365.849 15.434 365.969 15.9207 365.969 16.5207C365.969 17.1873 365.769 17.7673 365.369 18.2607C364.982 18.754 364.429 19.1407 363.709 19.4207C362.989 19.6873 362.129 19.8207 361.129 19.8207ZM371.422 19.8207C370.528 19.8207 369.668 19.7073 368.842 19.4807C368.028 19.2407 367.382 18.954 366.902 18.6207L367.862 16.7207C368.342 17.0273 368.915 17.2807 369.582 17.4807C370.248 17.6807 370.915 17.7807 371.582 17.7807C372.368 17.7807 372.935 17.674 373.282 17.4607C373.642 17.2473 373.822 16.9607 373.822 16.6007C373.822 16.3073 373.702 16.0873 373.462 15.9407C373.222 15.7807 372.908 15.6607 372.522 15.5807C372.135 15.5007 371.702 15.4273 371.222 15.3607C370.755 15.294 370.282 15.2073 369.802 15.1007C369.335 14.9807 368.908 14.814 368.522 14.6007C368.135 14.374 367.822 14.074 367.582 13.7007C367.342 13.3273 367.222 12.834 367.222 12.2207C367.222 11.5407 367.415 10.954 367.802 10.4607C368.188 9.954 368.728 9.56733 369.422 9.30066C370.128 9.02066 370.962 8.88066 371.922 8.88066C372.642 8.88066 373.368 8.96066 374.102 9.12066C374.835 9.28066 375.442 9.50733 375.922 9.80066L374.962 11.7007C374.455 11.394 373.942 11.1873 373.422 11.0807C372.915 10.9607 372.408 10.9007 371.902 10.9007C371.142 10.9007 370.575 11.014 370.202 11.2407C369.842 11.4673 369.662 11.754 369.662 12.1007C369.662 12.4207 369.782 12.6607 370.022 12.8207C370.262 12.9807 370.575 13.1073 370.962 13.2007C371.348 13.294 371.775 13.374 372.242 13.4407C372.722 13.494 373.195 13.5807 373.662 13.7007C374.128 13.8207 374.555 13.9873 374.942 14.2007C375.342 14.4007 375.662 14.6873 375.902 15.0607C376.142 15.434 376.262 15.9207 376.262 16.5207C376.262 17.1873 376.062 17.7673 375.662 18.2607C375.275 18.754 374.722 19.1407 374.002 19.4207C373.282 19.6873 372.422 19.8207 371.422 19.8207ZM377.755 22.7007L378.915 18.2807L379.255 19.7607C378.788 19.7607 378.395 19.6207 378.075 19.3407C377.768 19.0473 377.615 18.654 377.615 18.1607C377.615 17.654 377.768 17.254 378.075 16.9607C378.395 16.654 378.781 16.5007 379.235 16.5007C379.701 16.5007 380.088 16.654 380.395 16.9607C380.701 17.2673 380.855 17.6673 380.855 18.1607C380.855 18.294 380.841 18.4407 380.815 18.6007C380.788 18.7473 380.741 18.9207 380.675 19.1207C380.621 19.3207 380.528 19.574 380.395 19.8807L379.375 22.7007H377.755ZM48.8898 43.8207C47.7164 43.8207 46.8098 43.5207 46.1698 42.9207C45.5298 42.3073 45.2098 41.4073 45.2098 40.2207V30.6407H47.7098V40.1607C47.7098 40.6673 47.8364 41.0607 48.0898 41.3407C48.3564 41.6207 48.7231 41.7607 49.1898 41.7607C49.7498 41.7607 50.2164 41.614 50.5898 41.3207L51.2898 43.1007C50.9964 43.3407 50.6364 43.5207 50.2098 43.6407C49.7831 43.7607 49.3431 43.8207 48.8898 43.8207ZM43.4498 35.0807V33.0807H50.5698V35.0807H43.4498ZM59.4063 32.8807C60.2597 32.8807 61.0197 33.0473 61.6863 33.3807C62.3663 33.714 62.8997 34.2273 63.2863 34.9207C63.673 35.6007 63.8663 36.4807 63.8663 37.5607V43.6807H61.3663V37.8807C61.3663 36.934 61.1397 36.2273 60.6863 35.7607C60.2463 35.294 59.6263 35.0607 58.8263 35.0607C58.2397 35.0607 57.7197 35.1807 57.2663 35.4207C56.813 35.6607 56.4597 36.0207 56.2063 36.5007C55.9663 36.9673 55.8463 37.5607 55.8463 38.2807V43.6807H53.3463V28.8407H55.8463V35.8807L55.3063 35.0007C55.6797 34.3207 56.2197 33.8007 56.9263 33.4407C57.6463 33.0673 58.473 32.8807 59.4063 32.8807ZM67.0378 43.6807V33.0007H69.4178V35.9407L69.1378 35.0807C69.4578 34.3607 69.9578 33.814 70.6378 33.4407C71.3311 33.0673 72.1911 32.8807 73.2178 32.8807V35.2607C73.1111 35.234 73.0111 35.2207 72.9178 35.2207C72.8244 35.2073 72.7311 35.2007 72.6378 35.2007C71.6911 35.2007 70.9378 35.4807 70.3778 36.0407C69.8178 36.5873 69.5378 37.4073 69.5378 38.5007V43.6807H67.0378ZM80.0409 43.8207C78.9475 43.8207 77.9742 43.5873 77.1209 43.1207C76.2675 42.6407 75.5942 41.9873 75.1009 41.1607C74.6075 40.334 74.3609 39.394 74.3609 38.3407C74.3609 37.274 74.6075 36.334 75.1009 35.5207C75.5942 34.694 76.2675 34.0473 77.1209 33.5807C77.9742 33.114 78.9475 32.8807 80.0409 32.8807C81.1475 32.8807 82.1275 33.114 82.9809 33.5807C83.8475 34.0473 84.5209 34.6873 85.0009 35.5007C85.4942 36.314 85.7409 37.2607 85.7409 38.3407C85.7409 39.394 85.4942 40.334 85.0009 41.1607C84.5209 41.9873 83.8475 42.6407 82.9809 43.1207C82.1275 43.5873 81.1475 43.8207 80.0409 43.8207ZM80.0409 41.6807C80.6542 41.6807 81.2009 41.5473 81.6809 41.2807C82.1609 41.014 82.5342 40.6273 82.8009 40.1207C83.0809 39.614 83.2209 39.0207 83.2209 38.3407C83.2209 37.6473 83.0809 37.054 82.8009 36.5607C82.5342 36.054 82.1609 35.6673 81.6809 35.4007C81.2009 35.134 80.6609 35.0007 80.0609 35.0007C79.4475 35.0007 78.9009 35.134 78.4209 35.4007C77.9542 35.6673 77.5809 36.054 77.3009 36.5607C77.0209 37.054 76.8809 37.6473 76.8809 38.3407C76.8809 39.0207 77.0209 39.614 77.3009 40.1207C77.5809 40.6273 77.9542 41.014 78.4209 41.2807C78.9009 41.5473 79.4409 41.6807 80.0409 41.6807ZM92.6515 43.8207C91.7448 43.8207 90.9448 43.654 90.2515 43.3207C89.5582 42.974 89.0182 42.454 88.6315 41.7607C88.2448 41.054 88.0515 40.1673 88.0515 39.1007V33.0007H90.5515V38.7607C90.5515 39.7207 90.7648 40.4407 91.1915 40.9207C91.6315 41.3873 92.2515 41.6207 93.0515 41.6207C93.6382 41.6207 94.1448 41.5007 94.5715 41.2607C95.0115 41.0207 95.3515 40.6607 95.5915 40.1807C95.8448 39.7007 95.9715 39.1073 95.9715 38.4007V33.0007H98.4715V43.6807H96.0915V40.8007L96.5115 41.6807C96.1515 42.374 95.6248 42.9073 94.9315 43.2807C94.2382 43.6407 93.4782 43.8207 92.6515 43.8207ZM106.585 47.7007C105.598 47.7007 104.631 47.5673 103.685 47.3007C102.751 47.0473 101.985 46.674 101.385 46.1807L102.505 44.3007C102.971 44.6873 103.558 44.994 104.265 45.2207C104.985 45.4607 105.711 45.5807 106.445 45.5807C107.618 45.5807 108.478 45.3073 109.025 44.7607C109.571 44.2273 109.845 43.4207 109.845 42.3407V40.4407L110.045 38.0207L109.965 35.6007V33.0007H112.345V42.0607C112.345 43.994 111.851 45.414 110.865 46.3207C109.878 47.2407 108.451 47.7007 106.585 47.7007ZM106.265 43.2007C105.251 43.2007 104.331 42.9873 103.505 42.5607C102.691 42.1207 102.045 41.514 101.565 40.7407C101.098 39.9673 100.865 39.0607 100.865 38.0207C100.865 36.994 101.098 36.094 101.565 35.3207C102.045 34.5473 102.691 33.9473 103.505 33.5207C104.331 33.094 105.251 32.8807 106.265 32.8807C107.171 32.8807 107.985 33.0607 108.705 33.4207C109.425 33.7807 109.998 34.3407 110.425 35.1007C110.865 35.8607 111.085 36.834 111.085 38.0207C111.085 39.2073 110.865 40.1873 110.425 40.9607C109.998 41.7207 109.425 42.2873 108.705 42.6607C107.985 43.0207 107.171 43.2007 106.265 43.2007ZM106.645 41.0807C107.271 41.0807 107.831 40.954 108.325 40.7007C108.818 40.434 109.198 40.074 109.465 39.6207C109.745 39.154 109.885 38.6207 109.885 38.0207C109.885 37.4207 109.745 36.894 109.465 36.4407C109.198 35.974 108.818 35.6207 108.325 35.3807C107.831 35.1273 107.271 35.0007 106.645 35.0007C106.018 35.0007 105.451 35.1273 104.945 35.3807C104.451 35.6207 104.065 35.974 103.785 36.4407C103.518 36.894 103.385 37.4207 103.385 38.0207C103.385 38.6207 103.518 39.154 103.785 39.6207C104.065 40.074 104.451 40.434 104.945 40.7007C105.451 40.954 106.018 41.0807 106.645 41.0807ZM121.692 32.8807C122.545 32.8807 123.305 33.0473 123.972 33.3807C124.652 33.714 125.185 34.2273 125.572 34.9207C125.958 35.6007 126.152 36.4807 126.152 37.5607V43.6807H123.652V37.8807C123.652 36.934 123.425 36.2273 122.972 35.7607C122.532 35.294 121.912 35.0607 121.112 35.0607C120.525 35.0607 120.005 35.1807 119.552 35.4207C119.098 35.6607 118.745 36.0207 118.492 36.5007C118.252 36.9673 118.132 37.5607 118.132 38.2807V43.6807H115.632V28.8407H118.132V35.8807L117.592 35.0007C117.965 34.3207 118.505 33.8007 119.212 33.4407C119.932 33.0673 120.758 32.8807 121.692 32.8807ZM138.15 43.8207C137.257 43.8207 136.397 43.7073 135.57 43.4807C134.757 43.2407 134.11 42.954 133.63 42.6207L134.59 40.7207C135.07 41.0273 135.644 41.2807 136.31 41.4807C136.977 41.6807 137.644 41.7807 138.31 41.7807C139.097 41.7807 139.664 41.674 140.01 41.4607C140.37 41.2473 140.55 40.9607 140.55 40.6007C140.55 40.3073 140.43 40.0873 140.19 39.9407C139.95 39.7807 139.637 39.6607 139.25 39.5807C138.864 39.5007 138.43 39.4273 137.95 39.3607C137.484 39.294 137.01 39.2073 136.53 39.1007C136.064 38.9807 135.637 38.814 135.25 38.6007C134.864 38.374 134.55 38.074 134.31 37.7007C134.07 37.3273 133.95 36.834 133.95 36.2207C133.95 35.5407 134.144 34.954 134.53 34.4607C134.917 33.954 135.457 33.5673 136.15 33.3007C136.857 33.0207 137.69 32.8807 138.65 32.8807C139.37 32.8807 140.097 32.9607 140.83 33.1207C141.564 33.2807 142.17 33.5073 142.65 33.8007L141.69 35.7007C141.184 35.394 140.67 35.1873 140.15 35.0807C139.644 34.9607 139.137 34.9007 138.63 34.9007C137.87 34.9007 137.304 35.014 136.93 35.2407C136.57 35.4673 136.39 35.754 136.39 36.1007C136.39 36.4207 136.51 36.6607 136.75 36.8207C136.99 36.9807 137.304 37.1073 137.69 37.2007C138.077 37.294 138.504 37.374 138.97 37.4407C139.45 37.494 139.924 37.5807 140.39 37.7007C140.857 37.8207 141.284 37.9873 141.67 38.2007C142.07 38.4007 142.39 38.6873 142.63 39.0607C142.87 39.434 142.99 39.9207 142.99 40.5207C142.99 41.1873 142.79 41.7673 142.39 42.2607C142.004 42.754 141.45 43.1407 140.73 43.4207C140.01 43.6873 139.15 43.8207 138.15 43.8207ZM149.163 43.8207C147.99 43.8207 147.083 43.5207 146.443 42.9207C145.803 42.3073 145.483 41.4073 145.483 40.2207V30.6407H147.983V40.1607C147.983 40.6673 148.11 41.0607 148.363 41.3407C148.63 41.6207 148.997 41.7607 149.463 41.7607C150.023 41.7607 150.49 41.614 150.863 41.3207L151.563 43.1007C151.27 43.3407 150.91 43.5207 150.483 43.6407C150.057 43.7607 149.617 43.8207 149.163 43.8207ZM143.723 35.0807V33.0807H150.843V35.0807H143.723ZM153.62 43.6807V33.0007H156V35.9407L155.72 35.0807C156.04 34.3607 156.54 33.814 157.22 33.4407C157.913 33.0673 158.773 32.8807 159.8 32.8807V35.2607C159.693 35.234 159.593 35.2207 159.5 35.2207C159.406 35.2073 159.313 35.2007 159.22 35.2007C158.273 35.2007 157.52 35.4807 156.96 36.0407C156.4 36.5873 156.12 37.4073 156.12 38.5007V43.6807H153.62ZM166.843 43.8207C165.656 43.8207 164.616 43.5873 163.723 43.1207C162.843 42.6407 162.156 41.9873 161.663 41.1607C161.183 40.334 160.943 39.394 160.943 38.3407C160.943 37.274 161.176 36.334 161.643 35.5207C162.123 34.694 162.776 34.0473 163.603 33.5807C164.443 33.114 165.396 32.8807 166.463 32.8807C167.503 32.8807 168.43 33.1073 169.243 33.5607C170.056 34.014 170.696 34.654 171.163 35.4807C171.63 36.3073 171.863 37.2807 171.863 38.4007C171.863 38.5073 171.856 38.6273 171.843 38.7607C171.843 38.894 171.836 39.0207 171.823 39.1407H162.923V37.4807H170.503L169.523 38.0007C169.536 37.3873 169.41 36.8473 169.143 36.3807C168.876 35.914 168.51 35.5473 168.043 35.2807C167.59 35.014 167.063 34.8807 166.463 34.8807C165.85 34.8807 165.31 35.014 164.843 35.2807C164.39 35.5473 164.03 35.9207 163.763 36.4007C163.51 36.8673 163.383 37.4207 163.383 38.0607V38.4607C163.383 39.1007 163.53 39.6673 163.823 40.1607C164.116 40.654 164.53 41.034 165.063 41.3007C165.596 41.5673 166.21 41.7007 166.903 41.7007C167.503 41.7007 168.043 41.6073 168.523 41.4207C169.003 41.234 169.43 40.9407 169.803 40.5407L171.143 42.0807C170.663 42.6407 170.056 43.074 169.323 43.3807C168.603 43.674 167.776 43.8207 166.843 43.8207ZM177.564 43.8207C176.671 43.8207 175.811 43.7073 174.984 43.4807C174.171 43.2407 173.524 42.954 173.044 42.6207L174.004 40.7207C174.484 41.0273 175.058 41.2807 175.724 41.4807C176.391 41.6807 177.058 41.7807 177.724 41.7807C178.511 41.7807 179.078 41.674 179.424 41.4607C179.784 41.2473 179.964 40.9607 179.964 40.6007C179.964 40.3073 179.844 40.0873 179.604 39.9407C179.364 39.7807 179.051 39.6607 178.664 39.5807C178.278 39.5007 177.844 39.4273 177.364 39.3607C176.898 39.294 176.424 39.2073 175.944 39.1007C175.478 38.9807 175.051 38.814 174.664 38.6007C174.278 38.374 173.964 38.074 173.724 37.7007C173.484 37.3273 173.364 36.834 173.364 36.2207C173.364 35.5407 173.558 34.954 173.944 34.4607C174.331 33.954 174.871 33.5673 175.564 33.3007C176.271 33.0207 177.104 32.8807 178.064 32.8807C178.784 32.8807 179.511 32.9607 180.244 33.1207C180.978 33.2807 181.584 33.5073 182.064 33.8007L181.104 35.7007C180.598 35.394 180.084 35.1873 179.564 35.0807C179.058 34.9607 178.551 34.9007 178.044 34.9007C177.284 34.9007 176.718 35.014 176.344 35.2407C175.984 35.4673 175.804 35.754 175.804 36.1007C175.804 36.4207 175.924 36.6607 176.164 36.8207C176.404 36.9807 176.718 37.1073 177.104 37.2007C177.491 37.294 177.918 37.374 178.384 37.4407C178.864 37.494 179.338 37.5807 179.804 37.7007C180.271 37.8207 180.698 37.9873 181.084 38.2007C181.484 38.4007 181.804 38.6873 182.044 39.0607C182.284 39.434 182.404 39.9207 182.404 40.5207C182.404 41.1873 182.204 41.7673 181.804 42.2607C181.418 42.754 180.864 43.1407 180.144 43.4207C179.424 43.6873 178.564 43.8207 177.564 43.8207ZM187.857 43.8207C186.964 43.8207 186.104 43.7073 185.277 43.4807C184.464 43.2407 183.817 42.954 183.337 42.6207L184.297 40.7207C184.777 41.0273 185.351 41.2807 186.017 41.4807C186.684 41.6807 187.351 41.7807 188.017 41.7807C188.804 41.7807 189.371 41.674 189.717 41.4607C190.077 41.2473 190.257 40.9607 190.257 40.6007C190.257 40.3073 190.137 40.0873 189.897 39.9407C189.657 39.7807 189.344 39.6607 188.957 39.5807C188.571 39.5007 188.137 39.4273 187.657 39.3607C187.191 39.294 186.717 39.2073 186.237 39.1007C185.771 38.9807 185.344 38.814 184.957 38.6007C184.571 38.374 184.257 38.074 184.017 37.7007C183.777 37.3273 183.657 36.834 183.657 36.2207C183.657 35.5407 183.851 34.954 184.237 34.4607C184.624 33.954 185.164 33.5673 185.857 33.3007C186.564 33.0207 187.397 32.8807 188.357 32.8807C189.077 32.8807 189.804 32.9607 190.537 33.1207C191.271 33.2807 191.877 33.5073 192.357 33.8007L191.397 35.7007C190.891 35.394 190.377 35.1873 189.857 35.0807C189.351 34.9607 188.844 34.9007 188.337 34.9007C187.577 34.9007 187.011 35.014 186.637 35.2407C186.277 35.4673 186.097 35.754 186.097 36.1007C186.097 36.4207 186.217 36.6607 186.457 36.8207C186.697 36.9807 187.011 37.1073 187.397 37.2007C187.784 37.294 188.211 37.374 188.677 37.4407C189.157 37.494 189.631 37.5807 190.097 37.7007C190.564 37.8207 190.991 37.9873 191.377 38.2007C191.777 38.4007 192.097 38.6873 192.337 39.0607C192.577 39.434 192.697 39.9207 192.697 40.5207C192.697 41.1873 192.497 41.7673 192.097 42.2607C191.711 42.754 191.157 43.1407 190.437 43.4207C189.717 43.6873 188.857 43.8207 187.857 43.8207ZM202.738 43.6807L198.818 33.0007H201.178L204.538 42.4207H203.418L206.938 33.0007H209.038L212.458 42.4207H211.358L214.818 33.0007H217.038L213.098 43.6807H210.698L207.578 35.3407H208.318L205.138 43.6807H202.738ZM223.484 43.8207C222.297 43.8207 221.257 43.5873 220.364 43.1207C219.484 42.6407 218.797 41.9873 218.304 41.1607C217.824 40.334 217.584 39.394 217.584 38.3407C217.584 37.274 217.817 36.334 218.284 35.5207C218.764 34.694 219.417 34.0473 220.244 33.5807C221.084 33.114 222.037 32.8807 223.104 32.8807C224.144 32.8807 225.07 33.1073 225.884 33.5607C226.697 34.014 227.337 34.654 227.804 35.4807C228.27 36.3073 228.504 37.2807 228.504 38.4007C228.504 38.5073 228.497 38.6273 228.484 38.7607C228.484 38.894 228.477 39.0207 228.464 39.1407H219.564V37.4807H227.144L226.164 38.0007C226.177 37.3873 226.05 36.8473 225.784 36.3807C225.517 35.914 225.15 35.5473 224.684 35.2807C224.23 35.014 223.704 34.8807 223.104 34.8807C222.49 34.8807 221.95 35.014 221.484 35.2807C221.03 35.5473 220.67 35.9207 220.404 36.4007C220.15 36.8673 220.024 37.4207 220.024 38.0607V38.4607C220.024 39.1007 220.17 39.6673 220.464 40.1607C220.757 40.654 221.17 41.034 221.704 41.3007C222.237 41.5673 222.85 41.7007 223.544 41.7007C224.144 41.7007 224.684 41.6073 225.164 41.4207C225.644 41.234 226.07 40.9407 226.444 40.5407L227.784 42.0807C227.304 42.6407 226.697 43.074 225.964 43.3807C225.244 43.674 224.417 43.8207 223.484 43.8207ZM242.352 43.8207C241.486 43.8207 240.692 43.6207 239.972 43.2207C239.266 42.8207 238.699 42.2207 238.272 41.4207C237.859 40.6073 237.652 39.5807 237.652 38.3407C237.652 37.0873 237.852 36.0607 238.252 35.2607C238.666 34.4607 239.226 33.8673 239.932 33.4807C240.639 33.0807 241.446 32.8807 242.352 32.8807C243.406 32.8807 244.332 33.1073 245.132 33.5607C245.946 34.014 246.586 34.6473 247.052 35.4607C247.532 36.274 247.772 37.234 247.772 38.3407C247.772 39.4473 247.532 40.414 247.052 41.2407C246.586 42.054 245.946 42.6873 245.132 43.1407C244.332 43.594 243.406 43.8207 242.352 43.8207ZM236.432 47.5607V33.0007H238.812V35.5207L238.732 38.3607L238.932 41.2007V47.5607H236.432ZM242.072 41.6807C242.672 41.6807 243.206 41.5473 243.672 41.2807C244.152 41.014 244.532 40.6273 244.812 40.1207C245.092 39.614 245.232 39.0207 245.232 38.3407C245.232 37.6473 245.092 37.054 244.812 36.5607C244.532 36.054 244.152 35.6673 243.672 35.4007C243.206 35.134 242.672 35.0007 242.072 35.0007C241.472 35.0007 240.932 35.134 240.452 35.4007C239.972 35.6673 239.592 36.054 239.312 36.5607C239.032 37.054 238.892 37.6473 238.892 38.3407C238.892 39.0207 239.032 39.614 239.312 40.1207C239.592 40.6273 239.972 41.014 240.452 41.2807C240.932 41.5473 241.472 41.6807 242.072 41.6807ZM256.587 43.6807V41.5207L256.447 41.0607V37.2807C256.447 36.5473 256.227 35.9807 255.787 35.5807C255.347 35.1673 254.68 34.9607 253.787 34.9607C253.187 34.9607 252.593 35.054 252.007 35.2407C251.433 35.4273 250.947 35.6873 250.547 36.0207L249.567 34.2007C250.14 33.7607 250.82 33.434 251.607 33.2207C252.407 32.994 253.233 32.8807 254.087 32.8807C255.633 32.8807 256.827 33.254 257.667 34.0007C258.52 34.734 258.947 35.874 258.947 37.4207V43.6807H256.587ZM253.227 43.8207C252.427 43.8207 251.727 43.6873 251.127 43.4207C250.527 43.1407 250.06 42.7607 249.727 42.2807C249.407 41.7873 249.247 41.234 249.247 40.6207C249.247 40.0207 249.387 39.4807 249.667 39.0007C249.96 38.5207 250.433 38.1407 251.087 37.8607C251.74 37.5807 252.607 37.4407 253.687 37.4407H256.787V39.1007H253.867C253.013 39.1007 252.44 39.2407 252.147 39.5207C251.853 39.7873 251.707 40.1207 251.707 40.5207C251.707 40.974 251.887 41.334 252.247 41.6007C252.607 41.8673 253.107 42.0007 253.747 42.0007C254.36 42.0007 254.907 41.8607 255.387 41.5807C255.88 41.3007 256.233 40.8873 256.447 40.3407L256.867 41.8407C256.627 42.4673 256.193 42.954 255.567 43.3007C254.953 43.6473 254.173 43.8207 253.227 43.8207ZM265.455 43.8207C264.562 43.8207 263.702 43.7073 262.875 43.4807C262.062 43.2407 261.415 42.954 260.935 42.6207L261.895 40.7207C262.375 41.0273 262.948 41.2807 263.615 41.4807C264.282 41.6807 264.948 41.7807 265.615 41.7807C266.402 41.7807 266.968 41.674 267.315 41.4607C267.675 41.2473 267.855 40.9607 267.855 40.6007C267.855 40.3073 267.735 40.0873 267.495 39.9407C267.255 39.7807 266.942 39.6607 266.555 39.5807C266.168 39.5007 265.735 39.4273 265.255 39.3607C264.788 39.294 264.315 39.2073 263.835 39.1007C263.368 38.9807 262.942 38.814 262.555 38.6007C262.168 38.374 261.855 38.074 261.615 37.7007C261.375 37.3273 261.255 36.834 261.255 36.2207C261.255 35.5407 261.448 34.954 261.835 34.4607C262.222 33.954 262.762 33.5673 263.455 33.3007C264.162 33.0207 264.995 32.8807 265.955 32.8807C266.675 32.8807 267.402 32.9607 268.135 33.1207C268.868 33.2807 269.475 33.5073 269.955 33.8007L268.995 35.7007C268.488 35.394 267.975 35.1873 267.455 35.0807C266.948 34.9607 266.442 34.9007 265.935 34.9007C265.175 34.9007 264.608 35.014 264.235 35.2407C263.875 35.4673 263.695 35.754 263.695 36.1007C263.695 36.4207 263.815 36.6607 264.055 36.8207C264.295 36.9807 264.608 37.1073 264.995 37.2007C265.382 37.294 265.808 37.374 266.275 37.4407C266.755 37.494 267.228 37.5807 267.695 37.7007C268.162 37.8207 268.588 37.9873 268.975 38.2007C269.375 38.4007 269.695 38.6873 269.935 39.0607C270.175 39.434 270.295 39.9207 270.295 40.5207C270.295 41.1873 270.095 41.7673 269.695 42.2607C269.308 42.754 268.755 43.1407 268.035 43.4207C267.315 43.6873 266.455 43.8207 265.455 43.8207ZM275.748 43.8207C274.855 43.8207 273.995 43.7073 273.168 43.4807C272.355 43.2407 271.708 42.954 271.228 42.6207L272.188 40.7207C272.668 41.0273 273.241 41.2807 273.908 41.4807C274.575 41.6807 275.241 41.7807 275.908 41.7807C276.695 41.7807 277.261 41.674 277.608 41.4607C277.968 41.2473 278.148 40.9607 278.148 40.6007C278.148 40.3073 278.028 40.0873 277.788 39.9407C277.548 39.7807 277.235 39.6607 276.848 39.5807C276.461 39.5007 276.028 39.4273 275.548 39.3607C275.081 39.294 274.608 39.2073 274.128 39.1007C273.661 38.9807 273.235 38.814 272.848 38.6007C272.461 38.374 272.148 38.074 271.908 37.7007C271.668 37.3273 271.548 36.834 271.548 36.2207C271.548 35.5407 271.741 34.954 272.128 34.4607C272.515 33.954 273.055 33.5673 273.748 33.3007C274.455 33.0207 275.288 32.8807 276.248 32.8807C276.968 32.8807 277.695 32.9607 278.428 33.1207C279.161 33.2807 279.768 33.5073 280.248 33.8007L279.288 35.7007C278.781 35.394 278.268 35.1873 277.748 35.0807C277.241 34.9607 276.735 34.9007 276.228 34.9007C275.468 34.9007 274.901 35.014 274.528 35.2407C274.168 35.4673 273.988 35.754 273.988 36.1007C273.988 36.4207 274.108 36.6607 274.348 36.8207C274.588 36.9807 274.901 37.1073 275.288 37.2007C275.675 37.294 276.101 37.374 276.568 37.4407C277.048 37.494 277.521 37.5807 277.988 37.7007C278.455 37.8207 278.881 37.9873 279.268 38.2007C279.668 38.4007 279.988 38.6873 280.228 39.0607C280.468 39.434 280.588 39.9207 280.588 40.5207C280.588 41.1873 280.388 41.7673 279.988 42.2607C279.601 42.754 279.048 43.1407 278.328 43.4207C277.608 43.6873 276.748 43.8207 275.748 43.8207ZM292.288 43.8207C291.115 43.8207 290.208 43.5207 289.568 42.9207C288.928 42.3073 288.608 41.4073 288.608 40.2207V30.6407H291.108V40.1607C291.108 40.6673 291.235 41.0607 291.488 41.3407C291.755 41.6207 292.122 41.7607 292.588 41.7607C293.148 41.7607 293.615 41.614 293.988 41.3207L294.688 43.1007C294.395 43.3407 294.035 43.5207 293.608 43.6407C293.182 43.7607 292.742 43.8207 292.288 43.8207ZM286.848 35.0807V33.0807H293.968V35.0807H286.848ZM301.193 43.8207C300.1 43.8207 299.127 43.5873 298.273 43.1207C297.42 42.6407 296.747 41.9873 296.253 41.1607C295.76 40.334 295.513 39.394 295.513 38.3407C295.513 37.274 295.76 36.334 296.253 35.5207C296.747 34.694 297.42 34.0473 298.273 33.5807C299.127 33.114 300.1 32.8807 301.193 32.8807C302.3 32.8807 303.28 33.114 304.133 33.5807C305 34.0473 305.673 34.6873 306.153 35.5007C306.647 36.314 306.893 37.2607 306.893 38.3407C306.893 39.394 306.647 40.334 306.153 41.1607C305.673 41.9873 305 42.6407 304.133 43.1207C303.28 43.5873 302.3 43.8207 301.193 43.8207ZM301.193 41.6807C301.807 41.6807 302.353 41.5473 302.833 41.2807C303.313 41.014 303.687 40.6273 303.953 40.1207C304.233 39.614 304.373 39.0207 304.373 38.3407C304.373 37.6473 304.233 37.054 303.953 36.5607C303.687 36.054 303.313 35.6673 302.833 35.4007C302.353 35.134 301.813 35.0007 301.213 35.0007C300.6 35.0007 300.053 35.134 299.573 35.4007C299.107 35.6673 298.733 36.054 298.453 36.5607C298.173 37.054 298.033 37.6473 298.033 38.3407C298.033 39.0207 298.173 39.614 298.453 40.1207C298.733 40.6273 299.107 41.014 299.573 41.2807C300.053 41.5473 300.593 41.6807 301.193 41.6807ZM318.111 43.8207C317.218 43.8207 316.358 43.7073 315.531 43.4807C314.718 43.2407 314.071 42.954 313.591 42.6207L314.551 40.7207C315.031 41.0273 315.605 41.2807 316.271 41.4807C316.938 41.6807 317.605 41.7807 318.271 41.7807C319.058 41.7807 319.625 41.674 319.971 41.4607C320.331 41.2473 320.511 40.9607 320.511 40.6007C320.511 40.3073 320.391 40.0873 320.151 39.9407C319.911 39.7807 319.598 39.6607 319.211 39.5807C318.825 39.5007 318.391 39.4273 317.911 39.3607C317.445 39.294 316.971 39.2073 316.491 39.1007C316.025 38.9807 315.598 38.814 315.211 38.6007C314.825 38.374 314.511 38.074 314.271 37.7007C314.031 37.3273 313.911 36.834 313.911 36.2207C313.911 35.5407 314.105 34.954 314.491 34.4607C314.878 33.954 315.418 33.5673 316.111 33.3007C316.818 33.0207 317.651 32.8807 318.611 32.8807C319.331 32.8807 320.058 32.9607 320.791 33.1207C321.525 33.2807 322.131 33.5073 322.611 33.8007L321.651 35.7007C321.145 35.394 320.631 35.1873 320.111 35.0807C319.605 34.9607 319.098 34.9007 318.591 34.9007C317.831 34.9007 317.265 35.014 316.891 35.2407C316.531 35.4673 316.351 35.754 316.351 36.1007C316.351 36.4207 316.471 36.6607 316.711 36.8207C316.951 36.9807 317.265 37.1073 317.651 37.2007C318.038 37.294 318.465 37.374 318.931 37.4407C319.411 37.494 319.885 37.5807 320.351 37.7007C320.818 37.8207 321.245 37.9873 321.631 38.2007C322.031 38.4007 322.351 38.6873 322.591 39.0607C322.831 39.434 322.951 39.9207 322.951 40.5207C322.951 41.1873 322.751 41.7673 322.351 42.2607C321.965 42.754 321.411 43.1407 320.691 43.4207C319.971 43.6873 319.111 43.8207 318.111 43.8207ZM329.124 43.8207C327.951 43.8207 327.044 43.5207 326.404 42.9207C325.764 42.3073 325.444 41.4073 325.444 40.2207V30.6407H327.944V40.1607C327.944 40.6673 328.071 41.0607 328.324 41.3407C328.591 41.6207 328.958 41.7607 329.424 41.7607C329.984 41.7607 330.451 41.614 330.824 41.3207L331.524 43.1007C331.231 43.3407 330.871 43.5207 330.444 43.6407C330.018 43.7607 329.578 43.8207 329.124 43.8207ZM323.684 35.0807V33.0807H330.804V35.0807H323.684ZM333.581 43.6807V33.0007H335.961V35.9407L335.681 35.0807C336.001 34.3607 336.501 33.814 337.181 33.4407C337.874 33.0673 338.734 32.8807 339.761 32.8807V35.2607C339.654 35.234 339.554 35.2207 339.461 35.2207C339.367 35.2073 339.274 35.2007 339.181 35.2007C338.234 35.2007 337.481 35.4807 336.921 36.0407C336.361 36.5873 336.081 37.4073 336.081 38.5007V43.6807H333.581ZM346.804 43.8207C345.617 43.8207 344.577 43.5873 343.684 43.1207C342.804 42.6407 342.117 41.9873 341.624 41.1607C341.144 40.334 340.904 39.394 340.904 38.3407C340.904 37.274 341.137 36.334 341.604 35.5207C342.084 34.694 342.737 34.0473 343.564 33.5807C344.404 33.114 345.357 32.8807 346.424 32.8807C347.464 32.8807 348.391 33.1073 349.204 33.5607C350.017 34.014 350.657 34.654 351.124 35.4807C351.591 36.3073 351.824 37.2807 351.824 38.4007C351.824 38.5073 351.817 38.6273 351.804 38.7607C351.804 38.894 351.797 39.0207 351.784 39.1407H342.884V37.4807H350.464L349.484 38.0007C349.497 37.3873 349.371 36.8473 349.104 36.3807C348.837 35.914 348.471 35.5473 348.004 35.2807C347.551 35.014 347.024 34.8807 346.424 34.8807C345.811 34.8807 345.271 35.014 344.804 35.2807C344.351 35.5473 343.991 35.9207 343.724 36.4007C343.471 36.8673 343.344 37.4207 343.344 38.0607V38.4607C343.344 39.1007 343.491 39.6673 343.784 40.1607C344.077 40.654 344.491 41.034 345.024 41.3007C345.557 41.5673 346.171 41.7007 346.864 41.7007C347.464 41.7007 348.004 41.6073 348.484 41.4207C348.964 41.234 349.391 40.9407 349.764 40.5407L351.104 42.0807C350.624 42.6407 350.017 43.074 349.284 43.3807C348.564 43.674 347.737 43.8207 346.804 43.8207ZM360.285 32.8807C361.139 32.8807 361.899 33.0473 362.565 33.3807C363.245 33.714 363.779 34.2273 364.165 34.9207C364.552 35.6007 364.745 36.4807 364.745 37.5607V43.6807H362.245V37.8807C362.245 36.934 362.019 36.2273 361.565 35.7607C361.125 35.294 360.505 35.0607 359.705 35.0607C359.119 35.0607 358.599 35.1807 358.145 35.4207C357.692 35.6607 357.339 36.0207 357.085 36.5007C356.845 36.9673 356.725 37.5607 356.725 38.2807V43.6807H354.225V33.0007H356.605V35.8807L356.185 35.0007C356.559 34.3207 357.099 33.8007 357.805 33.4407C358.525 33.0673 359.352 32.8807 360.285 32.8807ZM372.776 47.7007C371.79 47.7007 370.823 47.5673 369.876 47.3007C368.943 47.0473 368.176 46.674 367.576 46.1807L368.696 44.3007C369.163 44.6873 369.75 44.994 370.456 45.2207C371.176 45.4607 371.903 45.5807 372.636 45.5807C373.81 45.5807 374.67 45.3073 375.216 44.7607C375.763 44.2273 376.036 43.4207 376.036 42.3407V40.4407L376.236 38.0207L376.156 35.6007V33.0007H378.536V42.0607C378.536 43.994 378.043 45.414 377.056 46.3207C376.07 47.2407 374.643 47.7007 372.776 47.7007ZM372.456 43.2007C371.443 43.2007 370.523 42.9873 369.696 42.5607C368.883 42.1207 368.236 41.514 367.756 40.7407C367.29 39.9673 367.056 39.0607 367.056 38.0207C367.056 36.994 367.29 36.094 367.756 35.3207C368.236 34.5473 368.883 33.9473 369.696 33.5207C370.523 33.094 371.443 32.8807 372.456 32.8807C373.363 32.8807 374.176 33.0607 374.896 33.4207C375.616 33.7807 376.19 34.3407 376.616 35.1007C377.056 35.8607 377.276 36.834 377.276 38.0207C377.276 39.2073 377.056 40.1873 376.616 40.9607C376.19 41.7207 375.616 42.2873 374.896 42.6607C374.176 43.0207 373.363 43.2007 372.456 43.2007ZM372.836 41.0807C373.463 41.0807 374.023 40.954 374.516 40.7007C375.01 40.434 375.39 40.074 375.656 39.6207C375.936 39.154 376.076 38.6207 376.076 38.0207C376.076 37.4207 375.936 36.894 375.656 36.4407C375.39 35.974 375.01 35.6207 374.516 35.3807C374.023 35.1273 373.463 35.0007 372.836 35.0007C372.21 35.0007 371.643 35.1273 371.136 35.3807C370.643 35.6207 370.256 35.974 369.976 36.4407C369.71 36.894 369.576 37.4207 369.576 38.0207C369.576 38.6207 369.71 39.154 369.976 39.6207C370.256 40.074 370.643 40.434 371.136 40.7007C371.643 40.954 372.21 41.0807 372.836 41.0807ZM385.843 43.8207C384.67 43.8207 383.763 43.5207 383.123 42.9207C382.483 42.3073 382.163 41.4073 382.163 40.2207V30.6407H384.663V40.1607C384.663 40.6673 384.79 41.0607 385.043 41.3407C385.31 41.6207 385.676 41.7607 386.143 41.7607C386.703 41.7607 387.17 41.614 387.543 41.3207L388.243 43.1007C387.95 43.3407 387.59 43.5207 387.163 43.6407C386.736 43.7607 386.296 43.8207 385.843 43.8207ZM380.403 35.0807V33.0807H387.523V35.0807H380.403ZM396.359 32.8807C397.213 32.8807 397.973 33.0473 398.639 33.3807C399.319 33.714 399.853 34.2273 400.239 34.9207C400.626 35.6007 400.819 36.4807 400.819 37.5607V43.6807H398.319V37.8807C398.319 36.934 398.093 36.2273 397.639 35.7607C397.199 35.294 396.579 35.0607 395.779 35.0607C395.193 35.0607 394.673 35.1807 394.219 35.4207C393.766 35.6607 393.413 36.0207 393.159 36.5007C392.919 36.9673 392.799 37.5607 392.799 38.2807V43.6807H390.299V28.8407H392.799V35.8807L392.259 35.0007C392.633 34.3207 393.173 33.8007 393.879 33.4407C394.599 33.0673 395.426 32.8807 396.359 32.8807Z" fill="#D9CEE0"/>
<path d="M11.2473 19.5062L14.0633 9.33023H7.72733L4.01533 18.5462C2.54333 22.0662 2.28733 23.2822 2.28733 24.9462C2.28733 28.5942 4.91133 31.0902 8.49533 31.0902C12.0153 31.0902 14.6393 28.6582 14.6393 24.9462C14.6393 22.3222 13.3593 20.4022 11.2473 19.5062ZM26.3513 19.5062L29.1673 9.33023H22.8313L19.1193 18.5462C17.6473 22.0662 17.3913 23.2822 17.3913 24.9462C17.3913 28.5942 20.0153 31.0902 23.5993 31.0902C27.1193 31.0902 29.7433 28.6582 29.7433 24.9462C29.7433 22.3222 28.4633 20.4022 26.3513 19.5062Z" fill="#C8703A"/>
<path d="M432.276 49.0381L429.46 59.2141L435.796 59.2141L439.508 49.9981C440.98 46.4781 441.236 45.2621 441.236 43.5981C441.236 39.9501 438.612 37.4541 435.028 37.4541C431.508 37.4541 428.884 39.8861 428.884 43.5981C428.884 46.2221 430.164 48.1421 432.276 49.0381ZM417.172 49.0381L414.356 59.2141L420.692 59.2141L424.404 49.9981C425.876 46.4781 426.132 45.2621 426.132 43.5981C426.132 39.9501 423.508 37.4541 419.924 37.4541C416.404 37.4541 413.78 39.8861 413.78 43.5981C413.78 46.2221 415.06 48.1421 417.172 49.0381Z" fill="#C8703A"/>
</svg>
