<svg width="341" height="108" viewBox="0 0 341 108" fill="none" xmlns="http://www.w3.org/2000/svg">
<path d="M43.2355 25H45.8355V11H43.2355V25ZM59.8095 25.14C61.8895 25.14 63.5495 24.24 64.3695 22.64L62.4495 21.52C61.8095 22.54 60.8495 23 59.7895 23C57.9495 23 56.5495 21.74 56.5495 19.66C56.5495 17.6 57.9495 16.32 59.7895 16.32C60.8495 16.32 61.8095 16.78 62.4495 17.8L64.3695 16.68C63.5495 15.06 61.8895 14.2 59.8095 14.2C56.4295 14.2 54.0295 16.46 54.0295 19.66C54.0295 22.86 56.4295 25.14 59.8095 25.14ZM70.6106 14.2C68.8906 14.2 67.2306 14.64 66.0906 15.52L67.0706 17.34C67.8706 16.68 69.1106 16.28 70.3106 16.28C72.0906 16.28 72.9706 17.14 72.9706 18.6V18.76H70.2106C66.9706 18.76 65.7706 20.16 65.7706 21.94C65.7706 23.8 67.3106 25.14 69.7506 25.14C71.3506 25.14 72.5106 24.62 73.1106 23.7V25H75.4706V18.74C75.4706 15.66 73.6906 14.2 70.6106 14.2ZM70.2706 23.32C68.9906 23.32 68.2306 22.74 68.2306 21.84C68.2306 21.06 68.6906 20.42 70.3906 20.42H72.9706V21.66C72.5506 22.76 71.4906 23.32 70.2706 23.32ZM92.1591 14.2C90.4591 14.2 89.0191 14.88 88.1591 15.98C87.4191 14.78 86.1191 14.2 84.5591 14.2C83.0991 14.2 81.8591 14.72 81.0591 15.68V14.32H78.6791V25H81.1791V19.58C81.1791 17.46 82.2991 16.38 83.9591 16.38C85.4791 16.38 86.3591 17.3 86.3591 19.2V25H88.8591V19.58C88.8591 17.46 89.9991 16.38 91.6391 16.38C93.1591 16.38 94.0391 17.3 94.0391 19.2V25H96.5391V18.88C96.5391 15.66 94.7391 14.2 92.1591 14.2ZM109.871 19.72C109.871 16.38 107.591 14.2 104.471 14.2C101.291 14.2 98.9514 16.48 98.9514 19.66C98.9514 22.84 101.271 25.14 104.851 25.14C106.691 25.14 108.191 24.54 109.151 23.4L107.811 21.86C107.051 22.64 106.111 23.02 104.911 23.02C103.051 23.02 101.751 22.02 101.451 20.46H109.831C109.851 20.22 109.871 19.92 109.871 19.72ZM104.471 16.2C106.111 16.2 107.291 17.26 107.491 18.8H101.431C101.671 17.24 102.851 16.2 104.471 16.2ZM119.06 12.56C120 12.56 120.66 11.88 120.66 11C120.66 10.18 119.98 9.56 119.06 9.56C118.14 9.56 117.46 10.22 117.46 11.06C117.46 11.9 118.14 12.56 119.06 12.56ZM117.8 25H120.3V14.32H117.8V25ZM129.641 14.2C128.081 14.2 126.781 14.72 125.961 15.7V14.32H123.581V25H126.081V19.6C126.081 17.46 127.281 16.38 129.061 16.38C130.661 16.38 131.601 17.3 131.601 19.2V25H134.101V18.88C134.101 15.66 132.201 14.2 129.641 14.2ZM157.24 14.32L154.34 22.24L151.46 14.32H149.36L146.42 22.2L143.6 14.32H141.24L145.16 25H147.56L150.36 17.64L153.12 25H155.52L159.46 14.32H157.24ZM162.439 12.56C163.379 12.56 164.039 11.88 164.039 11C164.039 10.18 163.359 9.56 162.439 9.56C161.519 9.56 160.839 10.22 160.839 11.06C160.839 11.9 161.519 12.56 162.439 12.56ZM161.179 25H163.679V14.32H161.179V25ZM172.68 22.64C172.3 22.94 171.8 23.08 171.28 23.08C170.32 23.08 169.8 22.52 169.8 21.48V16.4H172.66V14.4H169.8V11.96H167.3V14.4H165.54V16.4H167.3V21.54C167.3 23.9 168.64 25.14 170.98 25.14C171.88 25.14 172.78 24.9 173.38 24.42L172.68 22.64ZM181.497 14.2C180.017 14.2 178.757 14.68 177.937 15.56V10.16H175.437V25H177.937V19.6C177.937 17.46 179.137 16.38 180.917 16.38C182.517 16.38 183.457 17.3 183.457 19.2V25H185.957V18.88C185.957 15.66 184.057 14.2 181.497 14.2ZM194.026 25.14C197.346 25.14 199.726 22.86 199.726 19.66C199.726 16.46 197.346 14.2 194.026 14.2C190.746 14.2 188.346 16.46 188.346 19.66C188.346 22.86 190.746 25.14 194.026 25.14ZM194.026 23C192.226 23 190.866 21.7 190.866 19.66C190.866 17.62 192.226 16.32 194.026 16.32C195.846 16.32 197.206 17.62 197.206 19.66C197.206 21.7 195.846 23 194.026 23ZM209.957 14.32V19.72C209.957 21.86 208.777 22.94 207.037 22.94C205.457 22.94 204.537 22.02 204.537 20.08V14.32H202.037V20.42C202.037 23.64 203.897 25.14 206.637 25.14C208.017 25.14 209.277 24.62 210.077 23.64V25H212.457V14.32H209.957ZM221.45 22.64C221.07 22.94 220.57 23.08 220.05 23.08C219.09 23.08 218.57 22.52 218.57 21.48V16.4H221.43V14.4H218.57V11.96H216.07V14.4H214.31V16.4H216.07V21.54C216.07 23.9 217.41 25.14 219.75 25.14C220.65 25.14 221.55 24.9 222.15 24.42L221.45 22.64ZM239.774 19.72C239.774 16.38 237.494 14.2 234.374 14.2C231.194 14.2 228.854 16.48 228.854 19.66C228.854 22.84 231.174 25.14 234.754 25.14C236.594 25.14 238.094 24.54 239.054 23.4L237.714 21.86C236.954 22.64 236.014 23.02 234.814 23.02C232.954 23.02 231.654 22.02 231.354 20.46H239.734C239.754 20.22 239.774 19.92 239.774 19.72ZM234.374 16.2C236.014 16.2 237.194 17.26 237.394 18.8H231.334C231.574 17.24 232.754 16.2 234.374 16.2ZM249.58 14.32L246.16 22.24L242.84 14.32H240.24L244.82 25H247.4L251.98 14.32H249.58ZM263.289 19.72C263.289 16.38 261.009 14.2 257.889 14.2C254.709 14.2 252.369 16.48 252.369 19.66C252.369 22.84 254.689 25.14 258.269 25.14C260.109 25.14 261.609 24.54 262.569 23.4L261.229 21.86C260.469 22.64 259.529 23.02 258.329 23.02C256.469 23.02 255.169 22.02 254.869 20.46H263.249C263.269 20.22 263.289 19.92 263.289 19.72ZM257.889 16.2C259.529 16.2 260.709 17.26 260.909 18.8H254.849C255.089 17.24 256.269 16.2 257.889 16.2ZM268.071 15.88V14.32H265.691V25H268.191V19.82C268.191 17.64 269.391 16.52 271.291 16.52C271.471 16.52 271.651 16.54 271.871 16.58V14.2C270.091 14.2 268.791 14.76 268.071 15.88ZM285.677 14.2C284.197 14.2 282.937 14.68 282.117 15.56V10.16H279.617V25H282.117V19.6C282.117 17.46 283.317 16.38 285.097 16.38C286.697 16.38 287.637 17.3 287.637 19.2V25H290.137V18.88C290.137 15.66 288.237 14.2 285.677 14.2ZM297.388 14.2C295.668 14.2 294.008 14.64 292.868 15.52L293.848 17.34C294.648 16.68 295.888 16.28 297.088 16.28C298.868 16.28 299.748 17.14 299.748 18.6V18.76H296.988C293.748 18.76 292.548 20.16 292.548 21.94C292.548 23.8 294.088 25.14 296.528 25.14C298.128 25.14 299.288 24.62 299.888 23.7V25H302.248V18.74C302.248 15.66 300.468 14.2 297.388 14.2ZM297.048 23.32C295.768 23.32 295.008 22.74 295.008 21.84C295.008 21.06 295.468 20.42 297.168 20.42H299.748V21.66C299.328 22.76 298.268 23.32 297.048 23.32ZM313.514 10.16V15.64C312.674 14.66 311.454 14.2 310.074 14.2C306.974 14.2 304.674 16.34 304.674 19.66C304.674 22.98 306.974 25.14 310.074 25.14C311.534 25.14 312.774 24.64 313.614 23.62V25H316.014V10.16H313.514ZM310.374 23C308.574 23 307.194 21.7 307.194 19.66C307.194 17.62 308.574 16.32 310.374 16.32C312.174 16.32 313.554 17.62 313.554 19.66C313.554 21.7 312.174 23 310.374 23ZM59.2038 46.64C58.8238 46.94 58.3238 47.08 57.8038 47.08C56.8438 47.08 56.3238 46.52 56.3238 45.48V40.4H59.1838V38.4H56.3238V35.96H53.8238V38.4H52.0638V40.4H53.8238V45.54C53.8238 47.9 55.1638 49.14 57.5038 49.14C58.4038 49.14 59.3038 48.9 59.9038 48.42L59.2038 46.64ZM64.3403 39.88V38.32H61.9603V49H64.4603V43.82C64.4603 41.64 65.6603 40.52 67.5603 40.52C67.7403 40.52 67.9203 40.54 68.1403 40.58V38.2C66.3603 38.2 65.0603 38.76 64.3403 39.88ZM71.5211 36.56C72.4611 36.56 73.1211 35.88 73.1211 35C73.1211 34.18 72.4411 33.56 71.5211 33.56C70.6011 33.56 69.9211 34.22 69.9211 35.06C69.9211 35.9 70.6011 36.56 71.5211 36.56ZM70.2611 49H72.7611V38.32H70.2611V49ZM86.0823 43.72C86.0823 40.38 83.8023 38.2 80.6823 38.2C77.5023 38.2 75.1623 40.48 75.1623 43.66C75.1623 46.84 77.4823 49.14 81.0623 49.14C82.9023 49.14 84.4023 48.54 85.3623 47.4L84.0223 45.86C83.2623 46.64 82.3223 47.02 81.1223 47.02C79.2623 47.02 77.9623 46.02 77.6623 44.46H86.0423C86.0623 44.22 86.0823 43.92 86.0823 43.72ZM80.6823 40.2C82.3223 40.2 83.5023 41.26 83.7023 42.8H77.6423C77.8823 41.24 79.0623 40.2 80.6823 40.2ZM96.4438 34.16V39.64C95.6038 38.66 94.3838 38.2 93.0038 38.2C89.9038 38.2 87.6038 40.34 87.6038 43.66C87.6038 46.98 89.9038 49.14 93.0038 49.14C94.4638 49.14 95.7038 48.64 96.5438 47.62V49H98.9438V34.16H96.4438ZM93.3038 47C91.5038 47 90.1238 45.7 90.1238 43.66C90.1238 41.62 91.5038 40.32 93.3038 40.32C95.1038 40.32 96.4838 41.62 96.4838 43.66C96.4838 45.7 95.1038 47 93.3038 47ZM112.642 49.14C114.722 49.14 116.382 48.24 117.202 46.64L115.282 45.52C114.642 46.54 113.682 47 112.622 47C110.782 47 109.382 45.74 109.382 43.66C109.382 41.6 110.782 40.32 112.622 40.32C113.682 40.32 114.642 40.78 115.282 41.8L117.202 40.68C116.382 39.06 114.722 38.2 112.642 38.2C109.262 38.2 106.862 40.46 106.862 43.66C106.862 46.86 109.262 49.14 112.642 49.14ZM129.246 43.72C129.246 40.38 126.966 38.2 123.846 38.2C120.666 38.2 118.326 40.48 118.326 43.66C118.326 46.84 120.646 49.14 124.226 49.14C126.066 49.14 127.566 48.54 128.526 47.4L127.186 45.86C126.426 46.64 125.486 47.02 124.286 47.02C122.426 47.02 121.126 46.02 120.826 44.46H129.206C129.226 44.22 129.246 43.92 129.246 43.72ZM123.846 40.2C125.486 40.2 126.666 41.26 126.866 42.8H120.806C121.046 41.24 122.226 40.2 123.846 40.2ZM134.028 39.88V38.32H131.648V49H134.148V43.82C134.148 41.64 135.348 40.52 137.248 40.52C137.428 40.52 137.608 40.54 137.828 40.58V38.2C136.048 38.2 134.748 38.76 134.028 39.88ZM143.97 38.2C142.25 38.2 140.59 38.64 139.45 39.52L140.43 41.34C141.23 40.68 142.47 40.28 143.67 40.28C145.45 40.28 146.33 41.14 146.33 42.6V42.76H143.57C140.33 42.76 139.13 44.16 139.13 45.94C139.13 47.8 140.67 49.14 143.11 49.14C144.71 49.14 145.87 48.62 146.47 47.7V49H148.83V42.74C148.83 39.66 147.05 38.2 143.97 38.2ZM143.63 47.32C142.35 47.32 141.59 46.74 141.59 45.84C141.59 45.06 142.05 44.42 143.75 44.42H146.33V45.66C145.91 46.76 144.85 47.32 143.63 47.32ZM165.518 38.2C163.818 38.2 162.378 38.88 161.518 39.98C160.778 38.78 159.478 38.2 157.918 38.2C156.458 38.2 155.218 38.72 154.418 39.68V38.32H152.038V49H154.538V43.58C154.538 41.46 155.658 40.38 157.318 40.38C158.838 40.38 159.718 41.3 159.718 43.2V49H162.218V43.58C162.218 41.46 163.358 40.38 164.998 40.38C166.518 40.38 167.398 41.3 167.398 43.2V49H169.898V42.88C169.898 39.66 168.098 38.2 165.518 38.2ZM174.353 36.56C175.293 36.56 175.953 35.88 175.953 35C175.953 34.18 175.273 33.56 174.353 33.56C173.433 33.56 172.753 34.22 172.753 35.06C172.753 35.9 173.433 36.56 174.353 36.56ZM173.093 49H175.593V38.32H173.093V49ZM183.774 49.14C185.854 49.14 187.514 48.24 188.334 46.64L186.414 45.52C185.774 46.54 184.814 47 183.754 47C181.914 47 180.514 45.74 180.514 43.66C180.514 41.6 181.914 40.32 183.754 40.32C184.814 40.32 185.774 40.78 186.414 41.8L188.334 40.68C187.514 39.06 185.854 38.2 183.774 38.2C180.394 38.2 177.994 40.46 177.994 43.66C177.994 46.86 180.394 49.14 183.774 49.14ZM193.795 49.14C196.795 49.14 198.635 47.84 198.635 45.84C198.635 41.66 192.035 43.58 192.035 41.42C192.035 40.72 192.755 40.22 194.275 40.22C195.295 40.22 196.315 40.42 197.335 41.02L198.295 39.12C197.335 38.54 195.715 38.2 194.295 38.2C191.415 38.2 189.595 39.52 189.595 41.54C189.595 45.8 196.195 43.88 196.195 45.92C196.195 46.66 195.535 47.1 193.955 47.1C192.615 47.1 191.175 46.66 190.235 46.04L189.275 47.94C190.235 48.62 192.015 49.14 193.795 49.14ZM201.608 45.82C200.688 45.82 199.988 46.48 199.988 47.48C199.988 48.2 200.368 48.72 200.928 48.96L200.128 52.02H201.748L202.768 49.2C203.128 48.28 203.228 47.92 203.228 47.48C203.228 46.5 202.548 45.82 201.608 45.82ZM215.279 38.2C213.559 38.2 211.899 38.64 210.759 39.52L211.739 41.34C212.539 40.68 213.779 40.28 214.979 40.28C216.759 40.28 217.639 41.14 217.639 42.6V42.76H214.879C211.639 42.76 210.439 44.16 210.439 45.94C210.439 47.8 211.979 49.14 214.419 49.14C216.019 49.14 217.179 48.62 217.779 47.7V49H220.139V42.74C220.139 39.66 218.359 38.2 215.279 38.2ZM214.939 47.32C213.659 47.32 212.899 46.74 212.899 45.84C212.899 45.06 213.359 44.42 215.059 44.42H217.639V45.66C217.219 46.76 216.159 47.32 214.939 47.32ZM229.407 38.2C227.847 38.2 226.547 38.72 225.727 39.7V38.32H223.347V49H225.847V43.6C225.847 41.46 227.047 40.38 228.827 40.38C230.427 40.38 231.367 41.3 231.367 43.2V49H233.867V42.88C233.867 39.66 231.967 38.2 229.407 38.2ZM245.096 34.16V39.64C244.256 38.66 243.036 38.2 241.656 38.2C238.556 38.2 236.256 40.34 236.256 43.66C236.256 46.98 238.556 49.14 241.656 49.14C243.116 49.14 244.356 48.64 245.196 47.62V49H247.596V34.16H245.096ZM241.956 47C240.156 47 238.776 45.7 238.776 43.66C238.776 41.62 240.156 40.32 241.956 40.32C243.756 40.32 245.136 41.62 245.136 43.66C245.136 45.7 243.756 47 241.956 47ZM256.634 49H259.234V35H256.634V49ZM282.748 38.32L279.848 46.24L276.968 38.32H274.868L271.928 46.2L269.108 38.32H266.748L270.668 49H273.068L275.868 41.64L278.628 49H281.028L284.968 38.32H282.748ZM290.435 38.2C288.715 38.2 287.055 38.64 285.915 39.52L286.895 41.34C287.695 40.68 288.935 40.28 290.135 40.28C291.915 40.28 292.795 41.14 292.795 42.6V42.76H290.035C286.795 42.76 285.595 44.16 285.595 45.94C285.595 47.8 287.135 49.14 289.575 49.14C291.175 49.14 292.335 48.62 292.935 47.7V49H295.295V42.74C295.295 39.66 293.515 38.2 290.435 38.2ZM290.095 47.32C288.815 47.32 288.055 46.74 288.055 45.84C288.055 45.06 288.515 44.42 290.215 44.42H292.795V45.66C292.375 46.76 291.315 47.32 290.095 47.32ZM301.803 49.14C304.803 49.14 306.643 47.84 306.643 45.84C306.643 41.66 300.043 43.58 300.043 41.42C300.043 40.72 300.763 40.22 302.283 40.22C303.303 40.22 304.323 40.42 305.343 41.02L306.303 39.12C305.343 38.54 303.723 38.2 302.303 38.2C299.423 38.2 297.603 39.52 297.603 41.54C297.603 45.8 304.203 43.88 304.203 45.92C304.203 46.66 303.543 47.1 301.963 47.1C300.623 47.1 299.183 46.66 298.243 46.04L297.283 47.94C298.243 48.62 300.023 49.14 301.803 49.14ZM52.6712 62.2C50.9512 62.2 49.2912 62.64 48.1512 63.52L49.1312 65.34C49.9312 64.68 51.1712 64.28 52.3712 64.28C54.1512 64.28 55.0312 65.14 55.0312 66.6V66.76H52.2712C49.0312 66.76 47.8312 68.16 47.8312 69.94C47.8312 71.8 49.3712 73.14 51.8112 73.14C53.4112 73.14 54.5712 72.62 55.1712 71.7V73H57.5312V66.74C57.5312 63.66 55.7512 62.2 52.6712 62.2ZM52.3312 71.32C51.0512 71.32 50.2912 70.74 50.2912 69.84C50.2912 69.06 50.7512 68.42 52.4512 68.42H55.0312V69.66C54.6112 70.76 53.5512 71.32 52.3312 71.32ZM66.6596 62.2C65.2996 62.2 64.0996 62.66 63.2396 63.62V58.16H60.7396V73H63.1196V71.62C63.9596 72.64 65.1996 73.14 66.6596 73.14C69.7796 73.14 72.0796 70.98 72.0796 67.66C72.0796 64.34 69.7796 62.2 66.6596 62.2ZM66.3796 71C64.5796 71 63.1996 69.7 63.1996 67.66C63.1996 65.62 64.5796 64.32 66.3796 64.32C68.1796 64.32 69.5396 65.62 69.5396 67.66C69.5396 69.7 68.1796 71 66.3796 71ZM74.4505 73H76.9505V58.16H74.4505V73ZM90.2718 67.72C90.2718 64.38 87.9918 62.2 84.8718 62.2C81.6918 62.2 79.3518 64.48 79.3518 67.66C79.3518 70.84 81.6718 73.14 85.2518 73.14C87.0918 73.14 88.5918 72.54 89.5518 71.4L88.2118 69.86C87.4518 70.64 86.5118 71.02 85.3118 71.02C83.4518 71.02 82.1518 70.02 81.8518 68.46H90.2318C90.2518 68.22 90.2718 67.92 90.2718 67.72ZM84.8718 64.2C86.5118 64.2 87.6918 65.26 87.8918 66.8H81.8318C82.0718 65.24 83.2518 64.2 84.8718 64.2ZM103.921 70.64C103.541 70.94 103.041 71.08 102.521 71.08C101.561 71.08 101.041 70.52 101.041 69.48V64.4H103.901V62.4H101.041V59.96H98.5405V62.4H96.7805V64.4H98.5405V69.54C98.5405 71.9 99.8805 73.14 102.221 73.14C103.121 73.14 104.021 72.9 104.621 72.42L103.921 70.64ZM111.126 73.14C114.446 73.14 116.826 70.86 116.826 67.66C116.826 64.46 114.446 62.2 111.126 62.2C107.846 62.2 105.446 64.46 105.446 67.66C105.446 70.86 107.846 73.14 111.126 73.14ZM111.126 71C109.326 71 107.966 69.7 107.966 67.66C107.966 65.62 109.326 64.32 111.126 64.32C112.946 64.32 114.306 65.62 114.306 67.66C114.306 69.7 112.946 71 111.126 71ZM132.804 62.32V63.72C131.964 62.7 130.724 62.2 129.264 62.2C126.144 62.2 123.864 64.36 123.864 67.66C123.864 70.98 126.144 73.14 129.264 73.14C130.624 73.14 131.824 72.68 132.684 71.7V76.88H135.184V62.32H132.804ZM129.544 71C127.744 71 126.384 69.7 126.384 67.66C126.384 65.62 127.744 64.32 129.544 64.32C131.364 64.32 132.724 65.62 132.724 67.66C132.724 69.7 131.364 71 129.544 71ZM146.294 62.32V67.72C146.294 69.86 145.114 70.94 143.374 70.94C141.794 70.94 140.874 70.02 140.874 68.08V62.32H138.374V68.42C138.374 71.64 140.234 73.14 142.974 73.14C144.354 73.14 145.614 72.62 146.414 71.64V73H148.794V62.32H146.294ZM153.328 60.56C154.268 60.56 154.928 59.88 154.928 59C154.928 58.18 154.248 57.56 153.328 57.56C152.408 57.56 151.728 58.22 151.728 59.06C151.728 59.9 152.408 60.56 153.328 60.56ZM152.068 73H154.568V62.32H152.068V73ZM162.749 73.14C164.829 73.14 166.489 72.24 167.309 70.64L165.389 69.52C164.749 70.54 163.789 71 162.729 71C160.889 71 159.489 69.74 159.489 67.66C159.489 65.6 160.889 64.32 162.729 64.32C163.789 64.32 164.749 64.78 165.389 65.8L167.309 64.68C166.489 63.06 164.829 62.2 162.749 62.2C159.369 62.2 156.969 64.46 156.969 67.66C156.969 70.86 159.369 73.14 162.749 73.14ZM177.432 73H180.472L175.592 66.8L180.052 62.32H177.052L171.872 67.12V58.16H169.372V73H171.872V70.18L173.732 68.42L177.432 73ZM182.087 73H184.587V58.16H182.087V73ZM195.469 62.32L192.089 70.22L188.729 62.32H186.129L190.789 73.04L190.609 73.46C190.129 74.52 189.609 74.94 188.729 74.94C188.049 74.94 187.369 74.66 186.889 74.2L185.889 76.04C186.569 76.66 187.689 77.02 188.749 77.02C190.529 77.02 191.889 76.28 192.869 73.86L197.869 62.32H195.469ZM204.958 73H207.458V58.16H204.958V73ZM220.78 67.72C220.78 64.38 218.5 62.2 215.38 62.2C212.2 62.2 209.86 64.48 209.86 67.66C209.86 70.84 212.18 73.14 215.76 73.14C217.6 73.14 219.1 72.54 220.06 71.4L218.72 69.86C217.96 70.64 217.02 71.02 215.82 71.02C213.96 71.02 212.66 70.02 212.36 68.46H220.74C220.76 68.22 220.78 67.92 220.78 67.72ZM215.38 64.2C217.02 64.2 218.2 65.26 218.4 66.8H212.34C212.58 65.24 213.76 64.2 215.38 64.2ZM226.968 62.2C225.248 62.2 223.588 62.64 222.448 63.52L223.428 65.34C224.228 64.68 225.468 64.28 226.668 64.28C228.448 64.28 229.328 65.14 229.328 66.6V66.76H226.568C223.328 66.76 222.128 68.16 222.128 69.94C222.128 71.8 223.668 73.14 226.108 73.14C227.708 73.14 228.868 72.62 229.468 71.7V73H231.828V66.74C231.828 63.66 230.048 62.2 226.968 62.2ZM226.628 71.32C225.348 71.32 224.588 70.74 224.588 69.84C224.588 69.06 225.048 68.42 226.748 68.42H229.328V69.66C228.908 70.76 227.848 71.32 226.628 71.32ZM237.416 63.88V62.32H235.036V73H237.536V67.82C237.536 65.64 238.736 64.52 240.636 64.52C240.816 64.52 240.996 64.54 241.216 64.58V62.2C239.436 62.2 238.136 62.76 237.416 63.88ZM249.397 62.2C247.837 62.2 246.537 62.72 245.717 63.7V62.32H243.337V73H245.837V67.6C245.837 65.46 247.037 64.38 248.817 64.38C250.417 64.38 251.357 65.3 251.357 67.2V73H253.857V66.88C253.857 63.66 251.957 62.2 249.397 62.2ZM266.896 60.04C267.416 60.04 267.896 60.22 268.276 60.48L268.976 58.6C268.416 58.2 267.576 58.02 266.716 58.02C264.236 58.02 262.896 59.48 262.896 61.72V62.4H261.136V64.4H262.896V73H265.396V64.4H268.256V62.4H265.316V61.76C265.316 60.62 265.856 60.04 266.896 60.04ZM273.92 63.88V62.32H271.54V73H274.04V67.82C274.04 65.64 275.24 64.52 277.14 64.52C277.32 64.52 277.5 64.54 277.72 64.58V62.2C275.94 62.2 274.64 62.76 273.92 63.88ZM284.544 73.14C287.864 73.14 290.244 70.86 290.244 67.66C290.244 64.46 287.864 62.2 284.544 62.2C281.264 62.2 278.864 64.46 278.864 67.66C278.864 70.86 281.264 73.14 284.544 73.14ZM284.544 71C282.744 71 281.384 69.7 281.384 67.66C281.384 65.62 282.744 64.32 284.544 64.32C286.364 64.32 287.724 65.62 287.724 67.66C287.724 69.7 286.364 71 284.544 71ZM306.114 62.2C304.414 62.2 302.974 62.88 302.114 63.98C301.374 62.78 300.074 62.2 298.514 62.2C297.054 62.2 295.814 62.72 295.014 63.68V62.32H292.634V73H295.134V67.58C295.134 65.46 296.254 64.38 297.914 64.38C299.434 64.38 300.314 65.3 300.314 67.2V73H302.814V67.58C302.814 65.46 303.954 64.38 305.594 64.38C307.114 64.38 307.994 65.3 307.994 67.2V73H310.494V66.88C310.494 63.66 308.694 62.2 306.114 62.2ZM73.75 84.56C74.69 84.56 75.35 83.88 75.35 83C75.35 82.18 74.67 81.56 73.75 81.56C72.83 81.56 72.15 82.22 72.15 83.06C72.15 83.9 72.83 84.56 73.75 84.56ZM71.29 101.02C73.67 101.02 75.01 99.54 75.01 97.2V86.32H72.51V97.26C72.51 98.4 71.99 98.96 71.07 98.96C70.51 98.96 69.99 98.82 69.61 98.54L68.89 100.4C69.47 100.84 70.37 101.02 71.29 101.02ZM86.1284 86.32V91.72C86.1284 93.86 84.9484 94.94 83.2084 94.94C81.6284 94.94 80.7084 94.02 80.7084 92.08V86.32H78.2084V92.42C78.2084 95.64 80.0684 97.14 82.8084 97.14C84.1884 97.14 85.4484 96.62 86.2484 95.64V97H88.6284V86.32H86.1284ZM95.2017 97.14C98.2017 97.14 100.042 95.84 100.042 93.84C100.042 89.66 93.4417 91.58 93.4417 89.42C93.4417 88.72 94.1617 88.22 95.6817 88.22C96.7017 88.22 97.7217 88.42 98.7417 89.02L99.7017 87.12C98.7417 86.54 97.1217 86.2 95.7017 86.2C92.8217 86.2 91.0017 87.52 91.0017 89.54C91.0017 93.8 97.6017 91.88 97.6017 93.92C97.6017 94.66 96.9417 95.1 95.3617 95.1C94.0217 95.1 92.5817 94.66 91.6417 94.04L90.6817 95.94C91.6417 96.62 93.4217 97.14 95.2017 97.14ZM107.915 94.64C107.535 94.94 107.035 95.08 106.515 95.08C105.555 95.08 105.035 94.52 105.035 93.48V88.4H107.895V86.4H105.035V83.96H102.535V86.4H100.775V88.4H102.535V93.54C102.535 95.9 103.875 97.14 106.215 97.14C107.115 97.14 108.015 96.9 108.615 96.42L107.915 94.64ZM120.279 86.2C118.559 86.2 116.899 86.64 115.759 87.52L116.739 89.34C117.539 88.68 118.779 88.28 119.979 88.28C121.759 88.28 122.639 89.14 122.639 90.6V90.76H119.879C116.639 90.76 115.439 92.16 115.439 93.94C115.439 95.8 116.979 97.14 119.419 97.14C121.019 97.14 122.179 96.62 122.779 95.7V97H125.139V90.74C125.139 87.66 123.359 86.2 120.279 86.2ZM119.939 95.32C118.659 95.32 117.899 94.74 117.899 93.84C117.899 93.06 118.359 92.42 120.059 92.42H122.639V93.66C122.219 94.76 121.159 95.32 119.939 95.32ZM138.214 84.04C138.734 84.04 139.214 84.22 139.594 84.48L140.294 82.6C139.734 82.2 138.894 82.02 138.034 82.02C135.554 82.02 134.214 83.48 134.214 85.72V86.4H132.454V88.4H134.214V97H136.714V88.4H139.574V86.4H136.634V85.76C136.634 84.62 137.174 84.04 138.214 84.04ZM151.141 91.72C151.141 88.38 148.861 86.2 145.741 86.2C142.561 86.2 140.221 88.48 140.221 91.66C140.221 94.84 142.541 97.14 146.121 97.14C147.961 97.14 149.461 96.54 150.421 95.4L149.081 93.86C148.321 94.64 147.381 95.02 146.181 95.02C144.321 95.02 143.021 94.02 142.721 92.46H151.101C151.121 92.22 151.141 91.92 151.141 91.72ZM145.741 88.2C147.381 88.2 148.561 89.26 148.761 90.8H142.701C142.941 89.24 144.121 88.2 145.741 88.2ZM167.787 86.32L164.887 94.24L162.007 86.32H159.907L156.967 94.2L154.147 86.32H151.787L155.707 97H158.107L160.907 89.64L163.667 97H166.067L170.007 86.32H167.787ZM191.693 86.32L188.793 94.24L185.913 86.32H183.813L180.873 94.2L178.053 86.32H175.693L179.613 97H182.013L184.813 89.64L187.573 97H189.973L193.913 86.32H191.693ZM200.139 97.14C203.459 97.14 205.839 94.86 205.839 91.66C205.839 88.46 203.459 86.2 200.139 86.2C196.859 86.2 194.459 88.46 194.459 91.66C194.459 94.86 196.859 97.14 200.139 97.14ZM200.139 95C198.339 95 196.979 93.7 196.979 91.66C196.979 89.62 198.339 88.32 200.139 88.32C201.959 88.32 203.319 89.62 203.319 91.66C203.319 93.7 201.959 95 200.139 95ZM210.61 87.88V86.32H208.23V97H210.73V91.82C210.73 89.64 211.93 88.52 213.83 88.52C214.01 88.52 214.19 88.54 214.41 88.58V86.2C212.63 86.2 211.33 86.76 210.61 87.88ZM224.591 97H227.631L222.751 90.8L227.211 86.32H224.211L219.031 91.12V82.16H216.531V97H219.031V94.18L220.891 92.42L224.591 97ZM232.213 97.14C235.213 97.14 237.053 95.84 237.053 93.84C237.053 89.66 230.453 91.58 230.453 89.42C230.453 88.72 231.173 88.22 232.693 88.22C233.713 88.22 234.733 88.42 235.753 89.02L236.713 87.12C235.753 86.54 234.133 86.2 232.713 86.2C229.833 86.2 228.013 87.52 228.013 89.54C228.013 93.8 234.613 91.88 234.613 93.92C234.613 94.66 233.953 95.1 232.373 95.1C231.033 95.1 229.593 94.66 228.653 94.04L227.693 95.94C228.653 96.62 230.433 97.14 232.213 97.14ZM245.266 86.2C243.786 86.2 242.526 86.68 241.706 87.56V82.16H239.206V97H241.706V91.6C241.706 89.46 242.906 88.38 244.686 88.38C246.286 88.38 247.226 89.3 247.226 91.2V97H249.726V90.88C249.726 87.66 247.826 86.2 245.266 86.2ZM257.795 97.14C261.115 97.14 263.495 94.86 263.495 91.66C263.495 88.46 261.115 86.2 257.795 86.2C254.515 86.2 252.115 88.46 252.115 91.66C252.115 94.86 254.515 97.14 257.795 97.14ZM257.795 95C255.995 95 254.635 93.7 254.635 91.66C254.635 89.62 255.995 88.32 257.795 88.32C259.615 88.32 260.975 89.62 260.975 91.66C260.975 93.7 259.615 95 257.795 95ZM271.806 86.2C270.346 86.2 269.106 86.7 268.266 87.72V86.32H265.886V100.88H268.386V95.7C269.246 96.68 270.446 97.14 271.806 97.14C274.926 97.14 277.226 94.98 277.226 91.66C277.226 88.36 274.926 86.2 271.806 86.2ZM271.526 95C269.726 95 268.346 93.7 268.346 91.66C268.346 89.62 269.726 88.32 271.526 88.32C273.326 88.32 274.686 89.62 274.686 91.66C274.686 93.7 273.326 95 271.526 95ZM282.897 97.14C285.897 97.14 287.737 95.84 287.737 93.84C287.737 89.66 281.137 91.58 281.137 89.42C281.137 88.72 281.857 88.22 283.377 88.22C284.397 88.22 285.417 88.42 286.437 89.02L287.397 87.12C286.437 86.54 284.817 86.2 283.397 86.2C280.517 86.2 278.697 87.52 278.697 89.54C278.697 93.8 285.297 91.88 285.297 93.92C285.297 94.66 284.637 95.1 283.057 95.1C281.717 95.1 280.277 94.66 279.337 94.04L278.377 95.94C279.337 96.62 281.117 97.14 282.897 97.14Z" fill="#D9CEE0"/>
<path d="M11.136 10.688L13.952 0.511997H7.616L3.904 9.728C2.432 13.248 2.176 14.464 2.176 16.128C2.176 19.776 4.8 22.272 8.384 22.272C11.904 22.272 14.528 19.84 14.528 16.128C14.528 13.504 13.248 11.584 11.136 10.688ZM26.24 10.688L29.056 0.511997H22.72L19.008 9.728C17.536 13.248 17.28 14.464 17.28 16.128C17.28 19.776 19.904 22.272 23.488 22.272C27.008 22.272 29.632 19.84 29.632 16.128C29.632 13.504 28.352 11.584 26.24 10.688Z" fill="#C8703A"/>
<path d="M329.864 97.312L327.048 107.488L333.384 107.488L337.096 98.272C338.568 94.752 338.824 93.536 338.824 91.872C338.824 88.224 336.2 85.728 332.616 85.728C329.096 85.728 326.472 88.16 326.472 91.872C326.472 94.496 327.752 96.416 329.864 97.312ZM314.76 97.312L311.944 107.488L318.28 107.488L321.992 98.272C323.464 94.752 323.72 93.536 323.72 91.872C323.72 88.224 321.096 85.728 317.512 85.728C313.992 85.728 311.368 88.16 311.368 91.872C311.368 94.496 312.648 96.416 314.76 97.312Z" fill="#C8703A"/>
</svg>
