<svg width="428" height="93" viewBox="0 0 428 93" fill="none" xmlns="http://www.w3.org/2000/svg">
<path d="M-11.6841 65.8359C-9.31721 69.9369 22.8082 65.1946 27.7728 64.6412C38.2512 63.4732 50.0823 56.8905 58.1033 51.1161C63.4374 47.2761 67 40.5 67 25C67.0001 17 61.3898 1.6084 55.0001 2.50007C41 4.4537 41.1496 25.9404 41 32.5C40.7333 44.1899 51.4271 61.6908 63.6425 64.7954C89.9039 71.47 111.163 51.8863 134.744 45.7173C144.479 43.1705 159.719 48.8278 167.803 52.9476C182.962 60.6731 195.498 72.6744 209.751 81.5518C223.766 90.2808 236.373 92.9977 254.098 90.0748C266.349 88.0545 277.029 81.8004 289.257 79.5115C301.751 77.1728 315.642 78.0382 328.278 78.1281C341.704 78.2236 356.244 81.2989 369.647 79.805C382.97 78.3198 397.805 74.156 409.39 68.1375C422.414 61.3715 429.072 51.246 435.131 39.5222" stroke="#A38FBF" stroke-width="3" stroke-linecap="round"/>
</svg>
