<svg width="428" height="223" viewBox="0 0 428 223" fill="none" xmlns="http://www.w3.org/2000/svg">
<path d="M110 52C47.9111 104.859 36.5 41.5 -2 41.5V201.807H431V33.3215C256 -15.1932 184 -11 110 52Z" fill="#D9CEE0"/>
<path d="M110 51.5979C47.9111 104.457 36.5 41.0979 -2 41.0979V201.405H431V32.9194C256 -15.5954 184 -11.4021 110 51.5979Z" fill="#D9CEE0"/>
<path d="M-11.6841 166.836C-9.31721 170.937 22.8082 166.195 27.7728 165.641C38.2512 164.473 50.0823 157.89 58.1033 152.116C63.4374 148.276 67 141.5 67 126C67.0001 118 61.3898 102.608 55.0001 103.5C41 105.454 41.1496 126.94 41 133.5C40.7333 145.19 51.4271 162.691 63.6425 165.795C89.9039 172.47 111.163 152.886 134.744 146.717C144.479 144.171 159.719 149.828 167.803 153.948C182.962 161.673 195.498 173.674 209.751 182.552C223.766 191.281 236.373 193.998 254.098 191.075C266.349 189.054 277.029 182.8 289.257 180.511C301.751 178.173 315.642 179.038 328.278 179.128C341.704 179.224 356.244 182.299 369.647 180.805C382.97 179.32 397.805 175.156 409.39 169.138C422.414 162.372 429.072 152.246 435.131 140.522" stroke="#A38FBF" stroke-width="3" stroke-linecap="round"/>
</svg>
