<svg width="141" height="105" viewBox="0 0 141 105" fill="none" xmlns="http://www.w3.org/2000/svg">
<path d="M2.46931 57.6015C8.28726 29.8897 50.1227 21.7465 69.0447 41.8931C77.3978 50.7868 79.5211 60.652 71.7249 70.9457C66.5713 77.7502 60.0908 64.2622 59.8969 60.3056C59.0232 42.4752 71.0193 24.8136 90.6191 28.0588C101.602 29.8772 113.851 37.2895 119.881 46.765C122.347 50.6409 125.619 53.8994 127.813 57.9704C129.112 60.3813 128.831 63.274 131.543 64.3918" stroke="#D9CEE0" stroke-width="3" stroke-linecap="round"/>
<path d="M118.587 60.2741C117.939 60.0069 123.47 63.5072 125 64.1376C126.57 64.7848 132.435 69.6231 132.927 66.7939C134.151 59.7582 130.75 51.5009 133.636 44.4969" stroke="#D9CEE0" stroke-width="3" stroke-linecap="round"/>
</svg>
