<svg width="139" height="123" viewBox="0 0 139 123" fill="none" xmlns="http://www.w3.org/2000/svg">
<path d="M137.17 50.902C125.263 25.2116 82.6678 26.6964 68.7676 50.5859C62.6313 61.132 62.7836 71.222 72.6972 79.4961C79.2504 84.9655 82.5278 70.3648 81.8259 66.4661C78.6627 48.8968 62.9982 34.3896 44.6323 41.9642C34.3411 46.2086 24.0749 56.1885 20.3336 66.7782C18.8032 71.1099 16.3486 75.0215 15.1281 79.4817C14.4053 82.1232 15.3304 84.8783 12.9392 86.5781" stroke="#D9CEE0" stroke-width="3" stroke-linecap="round"/>
<path d="M24.6353 79.6493C25.2069 79.243 20.6058 83.8987 19.2573 84.8574C17.8729 85.8415 13.2479 91.8761 12.1314 89.2303C9.35501 82.6507 10.8097 73.8397 6.42066 67.6653" stroke="#D9CEE0" stroke-width="3" stroke-linecap="round"/>
</svg>
