<svg width="135" height="133" viewBox="0 0 135 133" fill="none" xmlns="http://www.w3.org/2000/svg">
<path d="M2.36894 46.0031C17.9224 22.3412 59.8366 30.0688 70.0756 55.7415C74.5957 67.0747 72.9624 77.0328 61.9406 83.7604C54.6548 88.2076 53.5584 73.2838 54.8256 69.5305C60.536 52.6168 78.1622 40.5687 95.2157 50.7598C104.772 56.4703 113.46 67.8504 115.605 78.8749C116.482 83.3844 118.335 87.6143 118.887 92.2054C119.214 94.9244 117.894 97.5137 120.009 99.5464" stroke="#D9CEE0" stroke-width="3" stroke-linecap="round"/>
<path d="M109.458 90.9742C108.953 90.4883 112.82 95.7696 114.013 96.916C115.238 98.0929 118.926 104.742 120.419 102.289C124.132 96.1884 123.988 87.2592 129.236 81.7968" stroke="#D9CEE0" stroke-width="3" stroke-linecap="round"/>
</svg>
