<svg width="1280" height="119" viewBox="0 0 1280 119" fill="none" xmlns="http://www.w3.org/2000/svg">
<path d="M1.83451 86.0781C19.0114 85.4089 35.0607 85.8604 51.7617 90.6076C71.4092 96.1924 88.5471 105.564 109.031 108.507C134.424 112.155 159.914 111.97 185.374 114.832C203.637 116.885 221.55 117.924 239.916 117.063C281.114 115.133 328.858 104.007 364.147 81.6162C369.281 78.3586 388.741 61.7852 379.019 52.7841C374.832 48.9075 361.648 54.9393 358.389 57.5902C348.851 65.3487 345.933 72.1514 346.84 84.174C349.701 122.122 418.6 105.969 440.554 98.6519C461.263 91.7495 477.029 77.3617 494.395 64.77C513.677 50.7894 535.417 37.8268 557.314 28.4156C599.17 10.426 640.062 0.662264 685.678 2.46062C704.343 3.19647 728.059 11.2964 744.461 19.9475C754.097 25.0305 765.554 33.9696 769.529 44.5161C777.494 65.6524 756.776 77.2745 740.156 63.4361C733.908 58.2338 733.415 45.5775 737.198 38.8302C742.747 28.9346 759.021 23.3801 769.059 20.4018C799.074 11.4971 833.562 17.8974 863.211 24.9743C895.954 32.7897 929.443 35.3377 962.099 42.4291C1015 53.9161 1067.38 63.6372 1121.74 61.5197C1164.66 59.8474 1209.23 70.132 1248.4 49.169C1260.03 42.9455 1271.54 36.0147 1284.32 32.3482C1289.94 30.7358 1298.85 28.2868 1301.35 22.7379" stroke="#A38FBF" stroke-width="3" stroke-linecap="round"/>
</svg>
