<?xml version="1.0" encoding="UTF-8"?>
<svg id="Layer_2" data-name="Layer 2" xmlns="http://www.w3.org/2000/svg" viewBox="0 0 386.73 89.49">
  <defs>
    <style>
      .cls-1 {
        font-family: ProximaNova-Semibold, 'Proxima Nova';
        font-size: 14.17px;
        font-weight: 600;
      }

      .cls-1, .cls-2 {
        fill: #dfd0e7;
      }

      .cls-3 {
        letter-spacing: .19em;
      }

      .cls-4 {
        letter-spacing: .2em;
      }
    </style>
  </defs>
  <g id="Layer_1-2" data-name="Layer 1">
    <g>
      <g>
        <path class="cls-2" d="M120.77,20.02c-.61-1.15-3.84,.06-4.68,.34-1.69,.56-3.31,1.36-4.79,2.35-1.66,1.13-3.12,2.49-4.36,4.08-1.25,1.58-2.11,3.24-2.62,4.99v-8.84c0-.59,.1-1.18,.1-1.77,.03-.81,.13-1.28-.59-1.55-.99-.35-2.48-.21-3.52-.24-1.23-.05-2.46-.03-3.71,.03,1.76,1.5,3.36,2.67,4.35,4.81,1.01,2.22,.99,4.32,.99,6.68v12.51c0,5.4,.4,10.82-2.49,15.6h6.97c-.32-.42-.54-.78-.74-1.34-.16-.51-.26-1.15-.5-1.63-.3-1.02-.5-2.08-.58-3.13-.14-1.89-.29-3.71-.29-5.61v-7.88c0-2.72,.56-4.84,1.69-6.36,1.13-1.52,2.41-2.51,3.85-2.97,1.44-.45,2.81-.67,4.11-.67,.74,0,1.82,.11,3.26,.34,3.04,.48,6.23,1.23,9.3,1.15l-5.75-10.87Z"/>
        <path class="cls-2" d="M97.7,35.93c0-1.75-.35-3.57-1.06-5.47-.71-1.89-1.79-3.64-3.26-5.25-1.47-1.61-3.33-2.94-5.59-3.98-2.26-1.04-4.94-1.57-8.05-1.57-2.83,0-5.48,.51-7.97,1.52-2.49,1.02-4.65,2.43-6.48,4.24-1.84,1.81-3.29,3.91-4.36,6.31-.24,.53-.44,1.07-.62,1.62-.27-.02-.6,.01-.98,.11-1.29,.33-2.55,.77-3.76,1.31-1.26,.56-2.42,1.26-3.55,2.01-3.06,2.06-5.81,4.57-9.29,6.03-.12,.05-.24,.1-.36,.15-4.18,1.69-8.9,2.54-14.15,2.54-3.62,0-6.99-.41-10.13-1.23-3.14-.82-5.86-1.93-8.18-3.35-2.32-1.41-4.15-3.08-5.51-5-1.36-1.92-2.03-3.95-2.03-6.1s.68-4.25,2.03-6.14c1.36-1.89,3.19-3.56,5.51-5,2.32-1.44,5.04-2.57,8.18-3.39,3.14-.82,6.51-1.23,10.13-1.23,5.14,0,9.79,.83,13.94,2.5,4.15,1.67,7.27,3.83,9.36,6.48l3.9-.93c-.79-3.16-2.03-6.1-3.73-8.81-1.69-2.71-3.74-5.06-6.14-7.03-2.4-1.98-5.07-3.52-8.01-4.62-2.94-1.1-6.05-1.65-9.32-1.65-3.9,0-7.56,.78-10.97,2.33-3.42,1.55-6.41,3.67-8.98,6.36-2.57,2.68-4.59,5.82-6.06,9.41-1.47,3.59-2.2,7.44-2.2,11.57s.73,7.91,2.2,11.52c1.47,3.62,3.49,6.77,6.06,9.45,2.57,2.68,5.56,4.8,8.98,6.36,3.42,1.55,7.08,2.33,10.97,2.33,3.28,0,6.38-.55,9.32-1.65,2.94-1.1,5.61-2.64,8.01-4.62,2.4-1.98,4.45-4.32,6.14-7.03,.87-1.4,1.77-2.87,2.37-4.41,.58-1.46,1.07-2.83,2.25-3.95,.53-.5,1.15-.91,1.82-1.18,.5-.21,.99-.23,1.48-.28-.18,1.07-.29,2.16-.29,3.29,0,2.71,.54,5.28,1.61,7.71,1.07,2.43,2.53,4.53,4.36,6.31,1.84,1.78,4,3.19,6.48,4.24,2.49,1.05,5.14,1.57,7.97,1.57,3.9,0,7.43-.96,10.59-2.88,3.16-1.92,5.62-4.43,7.37-7.54l-10-5.76c-.85,2.32-2.43,4.24-4.75,5.76-2.32,1.52-4.97,2.29-7.97,2.29-1.81,0-3.53-.31-5.17-.93-1.64-.62-3.06-1.45-4.28-2.5-1.22-1.04-2.16-2.29-2.84-3.73-.68-1.44-1.02-2.95-1.02-4.53,0-1.24,.2-2.43,.59-3.56h35.42Zm-29.49-6.57c2.03-1.04,4.29-1.57,6.78-1.57s4.75,.52,6.78,1.57c2.03,1.05,3.64,2.44,4.83,4.19h-23.13c1.13-1.75,2.71-3.15,4.75-4.19Z"/>
        <path class="cls-2" d="M277.34,19.57h-44.5l7.2,8.22h32.47c-.85,2.49-2.88,8.53-4.07,11.02-2.2-2.09-4.62-3.57-7.24-4.45-2.63-.88-5.47-1.31-8.52-1.31-2.15,0-4.22,.3-6.23,.89-2.01,.59-3.79,1.47-5.34,2.63-1.55,1.16-2.8,2.63-3.73,4.41-.93,1.78-1.4,3.86-1.4,6.23,0,1.92,.35,3.63,1.06,5.13,.71,1.5,1.65,2.77,2.84,3.81,1.16,1.02,2.5,1.79,4.04,2.33-1.22,0-2.44-.11-3.64-.33-2.46-.45-4.79-1.19-6.37-3.25-1.29-1.69-2.34-3.54-2.2-5.74,.09-1.43-.04-2.87-.04-4.3v-5.95c0-2.72-.3-5.23-.89-7.54-.59-2.32-1.52-4.35-2.8-6.11-1.26-1.76-2.89-3.12-4.87-4.11s-4.35-1.49-7.11-1.49c-4.08,0-7.26,1.04-9.57,3.13s-3.96,4.83-4.92,8.21c-.96-3.39-2.59-6.12-4.91-8.21-2.32-2.09-5.55-3.13-9.67-3.13-3.39,0-6.17,.75-8.34,2.24-2.17,1.5-3.84,3.5-4.95,5.98v-8.21h-2.38v24.38c0,2.1,.53,4.94-2.05,5.53-2.3,.52-4.55-.47-5.46-2.71-.89-2.24-2.32-4.33-3.84-6.18,1.58-3.39,2.94-6.84,4.11-10.34,1.15-3.5,2.16-7.1,3-10.76h-40.5l7.24,8.21h28.46c-.85,2.48-2.91,8.53-4.09,11.01-2.21-2.09-4.62-3.56-7.26-4.44-2.62-.88-5.47-1.31-8.52-1.31-2.14,0-4.22,.29-6.22,.88-2.01,.59-3.79,1.47-5.34,2.64-1.57,1.15-2.8,2.62-3.74,4.4-.93,1.79-1.39,3.87-1.39,6.23,0,1.92,.35,3.63,1.05,5.13s1.65,2.76,2.84,3.82c1.18,1.04,2.57,1.82,4.14,2.37,1.58,.54,3.26,.8,5,.8,3.34,0,6.25-.85,8.73-2.57,2.45-1.7,4.14-4.26,6.53-5.99-.38,.28,.65,2.48,.77,2.81,.72,2.02,2.34,3.59,4.07,4.75,3.74,2.51,8.8,2.68,11.76-.99,2.46-3.06,2.89-7.42,3.03-11.2,.16-4.25-.61-10.16,3.55-12.68,1.04-.66,2.35-1.17,3.93-1.53,1.58-.37,3.53-.54,5.85-.54s4.46,.19,6.06,.59c1.61,.4,2.92,.93,3.95,1.61,1.01,.67,1.79,1.45,2.33,2.37,.53,.91,.88,1.89,1.05,2.97,.43,2.67-.14,5.61,.03,8.3,.27,4.28-1.08,8.74-3.29,12.4,1.07-.03,2.14,0,3.22,.02h5.34c-.36-.37-1.1-2.51-1.22-2.79-.39-.91-.73-1.86-.99-2.82-.55-2.01-.64-3.98-.8-6.04-.23-2.99,0-6.08,0-9.08h.08l-.08-.26c.22-1.02,.62-1.97,1.18-2.84,.58-.88,1.36-1.65,2.38-2.33,1.01-.67,2.33-1.2,3.93-1.57,1.61-.37,3.58-.54,5.9-.54s4.38,.19,6.01,.59c1.65,.4,2.97,.93,4,1.61,1.01,.67,1.79,1.45,2.32,2.37,.54,.91,.89,1.89,1.07,2.97v7.95c0,3.77,.34,7.37,3.38,10.01,4.01,3.49,10.22,3.98,15.29,3.32,2.16-.28,4.29-.83,6.32-1.65-.03-.03-.05-.05-.08-.08,1.23-.42,2.39-.97,3.47-1.72,2.48-1.72,4.66-3.77,6.52-6.14,.17,1.41,.28,2.85,.34,4.32s.09,2.94,.09,4.41h11.69c0-3.56-.47-6.86-1.4-9.91-.93-3.05-2.53-5.96-4.79-8.73,1.58-3.39,2.95-6.83,4.11-10.34,1.16-3.5,2.16-7.09,3.01-10.76Zm-126.6,31.35c-1.07,1.2-2.24,2.24-3.52,3.15-1.26,.89-2.65,1.61-4.16,2.16-1.49,.53-3.05,.8-4.7,.8-2.94,0-5.39-.88-7.37-2.62-1.98-1.76-2.97-4.33-2.97-7.72,0-1.69,.34-3.21,1.02-4.57,.67-1.36,1.61-2.53,2.84-3.52,1.21-.99,2.64-1.74,4.27-2.24,1.65-.51,3.39-.77,5.26-.77,3.5,0,6.2,.99,8.09,2.96,1.9,1.98,3.21,4.86,3.95,8.65-.74,1.29-1.65,2.54-2.72,3.72Zm110.33,0c-1.07,1.19-2.25,2.23-3.52,3.14s-2.66,1.62-4.15,2.16c-1.5,.54-3.07,.81-4.7,.81-2.94,0-5.4-.88-7.37-2.63-1.98-1.75-2.97-4.32-2.97-7.71,0-1.69,.34-3.22,1.02-4.58,.68-1.35,1.62-2.53,2.84-3.52,1.21-.99,2.64-1.74,4.28-2.24,1.64-.51,3.39-.76,5.25-.76,3.5,0,6.2,.99,8.09,2.97,1.89,1.98,3.21,4.86,3.94,8.64-.74,1.3-1.64,2.54-2.71,3.73Z"/>
        <path class="cls-2" d="M382.96,40.63c-1.37-.48-3.2-.85-5.45-1.1-2.27-.26-5.1-.46-8.49-.62-6.44-.29-10.96-.82-13.55-1.58-2.61-.75-3.9-1.9-3.9-3.42,0-.96,.42-1.81,1.23-2.54,.81-.74,1.85-1.37,3.08-1.92,1.25-.53,2.61-.94,4.08-1.23,1.47-.27,2.83-.42,4.08-.42,2.99,0,5.64,.75,7.96,2.24,2.32,1.5,3.9,3.44,4.75,5.82l9.99-5.77c-1.74-3.1-4.2-5.63-7.37-7.54-3.16-1.92-6.7-2.88-10.6-2.88-2.81,0-5.42,.5-7.78,1.49-2.38,.99-4.44,2.22-6.18,3.68-1.76,1.47-3.13,3.04-4.12,4.67-.97,1.65-1.47,3.1-1.47,4.41,0,1.58,.58,2.83,1.73,3.77,1.17,.93,2.65,1.63,4.49,2.11,1.84,.48,3.95,.82,6.31,.97,2.38,.18,4.78,.32,7.21,.43,5.71,.27,9.7,.7,11.99,1.26,2.29,.58,3.44,1.44,3.44,2.64,0,.74-.32,1.47-.97,2.19-.66,.74-1.55,1.39-2.72,1.95-1.15,.58-2.48,1.04-3.98,1.41-3.06,.75-5.64,.75-8.74,.19-3.02-.54-5.91-1.82-8.33-3.72-2.9-2.28-5.26-5.48-8.77-6.6-2.5-.79-5.25-.38-7.68,.6-3.48,1.42-6.11,3.82-9,6.08-3.1,2.42-7.11,3.99-11.07,3.99-1.81,0-3.53-.3-5.18-.93-1.63-.62-3.07-1.45-4.28-2.49-1.21-1.05-2.16-2.3-2.83-3.74-.69-1.44-1.02-2.94-1.02-4.52,0-1.25,.21-2.43,.59-3.56h35.43c0-1.76-.35-3.58-1.07-5.47-.7-1.89-1.79-3.64-3.26-5.26-1.47-1.6-3.32-2.92-5.59-3.98-2.25-1.04-4.94-1.57-8.04-1.57-2.83,0-5.48,.51-7.97,1.52-2.48,1.02-4.65,2.43-6.47,4.24-1.84,1.82-3.29,3.92-4.36,6.31-1.09,2.41-1.61,4.99-1.61,7.77s.53,5.27,1.61,7.7c1.07,2.43,2.53,4.54,4.36,6.31,1.82,1.77,4,3.2,6.47,4.24,6.08,2.55,13.26,1.94,18.8-1.67,3.6-2.34,5.5-5.5,7.03-9.4,.42-1.07,1.03-2.3,2.16-2.48,.92-.15,1.81,.51,2.27,1.33,1.29,2.31,1.35,5.11,2.83,7.33,3.07,4.58,8.9,6.45,14.2,6.45,2.76,0,5.34-.5,7.7-1.52,2.38-1.02,4.46-2.25,6.23-3.69,1.77-1.44,3.16-2.97,4.16-4.62,.97-1.63,1.47-3.1,1.47-4.4,0-1.02-.27-1.9-.85-2.64-.56-.74-1.53-1.34-2.92-1.82Zm-66.64-11.27c2.05-1.04,4.3-1.57,6.79-1.57s4.75,.53,6.78,1.57c2.03,1.05,3.64,2.45,4.83,4.2h-23.13c1.12-1.76,2.7-3.15,4.73-4.2Z"/>
        <path class="cls-2" d="M306.82,51.97c-.64-1.09-1.15-2.24-1.6-3.4-.51-1.41-1.1-.89-2.33-.53-.99,.29-2.05,.5-3.18,.64-1.12,.14-2.17,.21-3.13,.21-.45,0-1.17-.03-2.16-.08-.99-.06-2.09-.4-3.31-1.02s-2.24-1.58-3.05-2.88c-.81-1.29-1.23-3.1-1.23-5.42V21.94s19.82,0,19.82,0h3.68l3.88-2.36-4.2,.08h-23.17v-5.91c0-1.64-.21-3.31,.08-4.94,.13-.73,.32-1.43,.66-2.1,.15-.3,.86-1.66,1.24-1.66-2.14,0-4.27,.01-6.41,.02,2.34,2.39,2.15,5.38,2.15,8.47v6.12h-2.45c-.59,0-1.15-.22-1.58,.24-.5,.53-.77,1.42-.99,2.09-.02,.03,2.57,0,2.83-.02,.14,0,2.19-.05,2.19-.03v17.55c0,3.79,.45,6.92,1.36,9.4,.91,2.49,2.05,4.46,3.44,5.93,1.37,1.47,2.91,2.54,4.57,3.18,1.66,.66,3.1,1.05,4.32,1.23,2.88,.42,5.51,.27,8.37-.3,1.71-.34,3.5-1.2,5.18-1.36-1.98-1.52-3.68-3.45-4.95-5.59Z"/>
        <path class="cls-2" d="M29.06,16.3c-.14-.5-.81-.5-.94,0-1.61,5.9-7.11,11.4-13.01,13.01-.5,.14-.5,.81,0,.94,5.9,1.61,11.4,7.11,13.01,13.01,.14,.5,.81,.5,.94,0,1.61-5.9,7.11-11.4,13.01-13.01,.5-.14,.5-.81,0-.94-5.9-1.61-11.4-7.11-13.01-13.01Z"/>
      </g>
      <text class="cls-1" transform="translate(114.54 84.46)"><tspan class="cls-4" x="0" y="0">CERAMICS </tspan><tspan class="cls-3" x="99.03" y="0">S</tspan><tspan class="cls-4" x="110.14" y="0">TUDIO</tspan></text>
    </g>
  </g>
</svg>